<svg width="18" height="19" viewBox="0 0 18 19" fill="none" xmlns="http://www.w3.org/2000/svg">
<path d="M16.5 15.5H1.5V14H2.25V8.77325C2.25 5.03225 5.2725 2 9 2C12.7275 2 15.75 5.03225 15.75 8.77325V14H16.5V15.5ZM3.75 14H14.25V8.77325C14.25 5.861 11.8995 3.5 9 3.5C6.1005 3.5 3.75 5.861 3.75 8.77325V14ZM7.125 16.25H10.875C10.875 16.7473 10.6775 17.2242 10.3258 17.5758C9.9742 17.9275 9.49728 18.125 9 18.125C8.50272 18.125 8.02581 17.9275 7.67418 17.5758C7.32254 17.2242 7.125 16.7473 7.125 16.25Z" fill="#F03F65"/>
</svg>
