<svg width="25" height="25" viewBox="0 0 25 25" fill="none" xmlns="http://www.w3.org/2000/svg">
<mask id="mask0_7634_83657" style="mask-type:alpha" maskUnits="userSpaceOnUse" x="0" y="0" width="25" height="25">
<rect x="0.429688" y="0.59375" width="24" height="24" fill="#D9D9D9"/>
</mask>
<g mask="url(#mask0_7634_83657)">
<path d="M5.84319 20.0938V18.5938H19.0162V20.0938H5.84319ZM5.81444 16.9015L4.45269 9.06875C4.41935 9.07508 4.38185 9.08083 4.34019 9.086C4.29852 9.09117 4.26102 9.09375 4.22769 9.09375C3.86235 9.09375 3.55469 8.96758 3.30469 8.71525C3.05469 8.46275 2.92969 8.15625 2.92969 7.79575C2.92969 7.42975 3.05469 7.11867 3.30469 6.8625C3.55469 6.6065 3.8626 6.4785 4.22844 6.4785C4.5941 6.4785 4.90494 6.6065 5.16094 6.8625C5.4171 7.11867 5.54519 7.42975 5.54519 7.79575C5.54519 7.88875 5.53744 7.97517 5.52194 8.055C5.5066 8.13467 5.48227 8.20975 5.44894 8.28025L8.61244 9.6225L11.6604 5.463C11.4964 5.34883 11.3641 5.19867 11.2634 5.0125C11.1628 4.82633 11.1124 4.62583 11.1124 4.411C11.1124 4.04517 11.2404 3.73417 11.4964 3.478C11.7524 3.22183 12.0634 3.09375 12.4292 3.09375C12.7949 3.09375 13.1059 3.22167 13.3624 3.4775C13.6188 3.73317 13.7469 4.04375 13.7469 4.40925C13.7469 4.62842 13.6966 4.83033 13.5959 5.015C13.4953 5.1995 13.3629 5.34883 13.1989 5.463L16.2469 9.6225L19.4104 8.28025C19.3848 8.21208 19.3624 8.137 19.3432 8.055C19.3239 7.97317 19.3142 7.88675 19.3142 7.79575C19.3142 7.42975 19.4392 7.11867 19.6892 6.8625C19.9392 6.6065 20.2471 6.4785 20.6129 6.4785C20.9786 6.4785 21.2895 6.6065 21.5457 6.8625C21.8017 7.11867 21.9297 7.42975 21.9297 7.79575C21.9297 8.15525 21.8014 8.4615 21.5449 8.7145C21.2884 8.96733 20.9769 9.09375 20.6104 9.09375C20.5811 9.09375 20.5481 9.08958 20.5114 9.08125C20.4749 9.07292 20.4389 9.06875 20.4034 9.06875L19.0449 16.9015H5.81444ZM7.09119 15.4015H17.7682L18.7067 10.2455L15.7354 11.4822L12.4297 6.94575L9.12394 11.4822L6.15269 10.2455L7.09119 15.4015Z" fill="#9A9A9A"/>
</g>
</svg>
