<svg width="25" height="25" viewBox="0 0 25 25" fill="none" xmlns="http://www.w3.org/2000/svg">
<mask id="mask0_8944_28122" style="mask-type:alpha" maskUnits="userSpaceOnUse" x="0" y="0" width="25" height="25">
<rect x="0.3125" y="0.164062" width="24" height="24" fill="#D9D9D9"/>
</mask>
<g mask="url(#mask0_8944_28122)">
<path d="M12.3125 21.1063C11.9112 21.1063 11.5563 21.0006 11.248 20.7891C10.9397 20.5774 10.724 20.2998 10.601 19.9563H10.3125C9.9035 19.9563 9.55125 19.8086 9.25575 19.5131C8.96025 19.2176 8.8125 18.8653 8.8125 18.4563V15.1756C7.8035 14.5641 7.00958 13.7442 6.43075 12.7161C5.85192 11.6877 5.5625 10.5871 5.5625 9.41406C5.5625 7.53206 6.217 5.93656 7.526 4.62756C8.835 3.31856 10.4305 2.66406 12.3125 2.66406C14.1945 2.66406 15.79 3.31856 17.099 4.62756C18.408 5.93656 19.0625 7.53206 19.0625 9.41406C19.0625 10.6076 18.7731 11.7133 18.1943 12.7313C17.6154 13.7493 16.8215 14.5641 15.8125 15.1756V18.4563C15.8125 18.8653 15.6648 19.2176 15.3693 19.5131C15.0738 19.8086 14.7215 19.9563 14.3125 19.9563H14.024C13.901 20.2998 13.6853 20.5774 13.377 20.7891C13.0687 21.0006 12.7138 21.1063 12.3125 21.1063ZM10.3125 18.4563H14.3125V17.5178H10.3125V18.4563ZM10.3125 16.6333H14.3125V15.6641H10.3125V16.6333ZM10.1125 14.1641H11.7162V11.2526L9.574 9.11031L10.4125 8.27181L12.3125 10.1718L14.2125 8.27181L15.051 9.11031L12.9088 11.2526V14.1641H14.5125C15.4125 13.7307 16.1458 13.0932 16.7125 12.2516C17.2792 11.4099 17.5625 10.4641 17.5625 9.41406C17.5625 7.9474 17.0542 6.70573 16.0375 5.68906C15.0208 4.6724 13.7792 4.16406 12.3125 4.16406C10.8458 4.16406 9.60417 4.6724 8.5875 5.68906C7.57083 6.70573 7.0625 7.9474 7.0625 9.41406C7.0625 10.4641 7.34583 11.4099 7.9125 12.2516C8.47917 13.0932 9.2125 13.7307 10.1125 14.1641Z" fill="#018941"/>
</g>
</svg>
