<svg width="213" height="189" viewBox="0 0 213 189" fill="none" xmlns="http://www.w3.org/2000/svg">
<g clip-path="url(#clip0_8457_64394)">
<path d="M191.074 51.0755L81.3683 28.0286C81.1052 27.9647 80.8297 28.0088 80.5914 28.1522L0.621037 75.883C-0.332002 76.4522 -0.155898 78.0672 0.890374 78.3518L113.732 108.964C114.016 109.041 114.314 108.993 114.567 108.832L191.401 53.5355C192.339 52.9376 192.124 51.3292 191.071 51.0777L191.074 51.0755Z" fill="#B9DEBF"/>
<g filter="url(#filter0_d_8457_64394)">
<path d="M70.6897 34.3618C70.2839 34.2886 67.6067 33.8452 65.3562 35.6837C63.7645 36.9825 63.2981 38.6788 63.1663 39.2561C62.9885 51.1279 62.8107 62.9997 62.6329 74.8715L93.9983 82.7129C94.2263 82.7673 95.2093 83.0287 95.8514 83.9992C96.3702 84.7836 96.3639 85.5763 96.3513 85.8503C96.7864 87.9418 97.2235 90.0313 97.6586 92.1229L152.567 105.532C153.142 105.817 153.899 106.266 154.663 106.971C155.261 107.523 155.696 108.08 156.005 108.54V121.859L169.755 115.844L170.615 62.1359C170.565 61.4624 170.37 60.1656 169.479 58.8919C167.806 56.5033 165.062 56.1686 164.6 56.1205C147.468 52.1842 130.333 48.2478 113.201 44.3114C113.226 43.3263 113.155 40.7537 111.436 38.2563C110.39 36.7357 109.139 35.8343 108.334 35.349C97.6063 33.59 86.8765 31.8331 76.1487 30.074C75.4983 30.1786 74.0467 30.5049 72.6704 31.6678C71.5096 32.6488 70.9449 33.7657 70.6939 34.3639L70.6897 34.3618Z" fill="url(#paint0_linear_8457_64394)" shape-rendering="crispEdges"/>
</g>
<path d="M39.8593 22.0324C37 21.5 36 21.5 34 22.5C32.6352 23.8735 32.2519 25.1691 32.2275 26.007C31.9035 37.7707 31.5773 49.5345 31.2533 61.2983L65.3246 69.8283C65.5732 69.8883 66.6406 70.1728 67.3375 71.2263C67.9011 72.0797 67.8945 72.9421 67.8789 73.2399C68.3516 75.5157 68.8243 77.7894 69.2992 80.0652L128.942 94.6516C129.568 94.9605 130.392 95.4517 131.217 96.2162C131.867 96.8186 132.34 97.4231 132.675 97.9231V112.414L147.61 105.871L148.545 47.4431C148.489 46.7097 148.278 45.2984 147.311 43.9138C145.493 41.3157 142.513 40.9512 142.011 40.8978C123.401 36.615 104.789 34.184 86.1785 29.9012C86.2184 28.8611 86.1785 24.9162 84.9827 22.0324C83.9797 20.63 83.409 19.6717 81.2785 18.6971C76.3807 17.817 71.443 16.9524 66.4698 16.1012C60.4602 15.0744 54.495 14.0854 48.5741 13.1342C45.6204 12.6852 42.751 13.7409 41.1576 15.9256C39.8949 17.657 39.8372 21.2634 39.8593 22.0324Z" fill="url(#paint1_linear_8457_64394)"/>
<g filter="url(#filter1_d_8457_64394)">
<path d="M20.1607 54.9832C18.6924 54.8515 16.1407 54.864 14.4988 56.5143C13.2125 57.8069 12.9908 59.5512 12.9678 60.3398C12.6624 71.4105 12.3549 82.4813 12.0496 93.552L44.1616 101.58C44.3959 101.636 45.4019 101.904 46.0587 102.895C46.59 103.698 46.5837 104.51 46.569 104.79C47.0145 106.932 47.4601 109.072 47.9076 111.213L104.121 124.94C104.711 125.231 105.487 125.693 106.265 126.413C106.878 126.98 107.323 127.549 107.639 128.019V141.656L121.715 135.499L122.596 80.5131C122.544 79.8229 122.345 78.4947 121.433 77.1917C119.72 74.7466 116.911 74.4036 116.438 74.3534C98.8983 70.3229 81.3562 66.2945 63.8162 62.264C63.8539 61.2852 64.5249 59.4287 62.9511 56.2812C62.0057 54.9614 60.5905 53.9206 59.198 53.4606C54.5819 52.6323 49.9281 51.8187 45.2409 51.0176C39.5769 50.0513 33.9547 49.1205 28.3744 48.2253C25.5905 47.8028 22.886 48.7963 21.3843 50.8524C20.1942 52.4817 20.1398 54.2595 20.1607 54.9832Z" fill="#FAFAFA"/>
</g>
<g filter="url(#filter2_d_8457_64394)">
<path d="M3.48839 75.6167L115.858 101.354C117.134 101.645 118.036 102.745 118.036 104.01V175.104C118.036 176.907 116.255 178.214 114.454 177.738L2.08379 147.937C0.854503 147.611 0.0032959 146.534 0.0032959 145.303V78.2729C0.0032959 76.5089 1.70993 75.2094 3.48839 75.6167Z" fill="#B9DEBF"/>
</g>
<path d="M97.331 124.993L96.364 123.888C94.9133 122.215 93.7194 120.784 92.7822 119.594C91.8451 118.405 91.1149 117.359 90.5917 116.456C90.0685 115.553 89.7242 114.746 89.5589 114.033C89.3934 113.321 89.3528 112.614 89.4373 111.911C89.6048 110.517 90.215 109.407 91.268 108.579C92.3211 107.752 93.5446 107.423 94.9385 107.59C95.796 107.693 96.5822 107.991 97.2972 108.484C98.0122 108.977 98.6061 109.632 99.0788 110.448C99.7317 109.767 100.464 109.271 101.275 108.962C102.087 108.653 102.921 108.549 103.778 108.653C105.172 108.82 106.283 109.43 107.11 110.483C107.937 111.536 108.267 112.76 108.099 114.154C108.015 114.856 107.808 115.534 107.478 116.187C107.149 116.84 106.623 117.543 105.901 118.296C105.179 119.049 104.223 119.892 103.034 120.826C101.845 121.76 100.344 122.868 98.5322 124.148L97.331 124.993Z" fill="#F03F65"/>
<g filter="url(#filter3_d_8457_64394)">
<path d="M118.189 103.476L191.515 53.1889C191.729 53.0421 192.007 53.208 192.007 53.4824V118.237C192.007 118.348 191.958 118.452 191.878 118.518L118.552 177.393C118.34 177.563 118.04 177.399 118.04 177.112V103.77C118.04 103.651 118.097 103.54 118.189 103.476Z" fill="#89C894"/>
</g>
</g>
<defs>
<filter id="filter0_d_8457_64394" x="51.8329" y="23.274" width="129.582" height="113.385" filterUnits="userSpaceOnUse" color-interpolation-filters="sRGB">
<feFlood flood-opacity="0" result="BackgroundImageFix"/>
<feColorMatrix in="SourceAlpha" type="matrix" values="0 0 0 0 0 0 0 0 0 0 0 0 0 0 0 0 0 0 127 0" result="hardAlpha"/>
<feOffset dy="4"/>
<feGaussianBlur stdDeviation="5.4"/>
<feComposite in2="hardAlpha" operator="out"/>
<feColorMatrix type="matrix" values="0 0 0 0 0 0 0 0 0 0 0 0 0 0 0 0 0 0 0.25 0"/>
<feBlend mode="normal" in2="BackgroundImageFix" result="effect1_dropShadow_8457_64394"/>
<feBlend mode="normal" in="SourceGraphic" in2="effect1_dropShadow_8457_64394" result="shape"/>
</filter>
<filter id="filter1_d_8457_64394" x="7.24956" y="40.3296" width="126.146" height="109.127" filterUnits="userSpaceOnUse" color-interpolation-filters="sRGB">
<feFlood flood-opacity="0" result="BackgroundImageFix"/>
<feColorMatrix in="SourceAlpha" type="matrix" values="0 0 0 0 0 0 0 0 0 0 0 0 0 0 0 0 0 0 127 0" result="hardAlpha"/>
<feOffset dx="3"/>
<feGaussianBlur stdDeviation="3.9"/>
<feComposite in2="hardAlpha" operator="out"/>
<feColorMatrix type="matrix" values="0 0 0 0 0 0 0 0 0 0 0 0 0 0 0 0 0 0 0.25 0"/>
<feBlend mode="normal" in2="BackgroundImageFix" result="effect1_dropShadow_8457_64394"/>
<feBlend mode="normal" in="SourceGraphic" in2="effect1_dropShadow_8457_64394" result="shape"/>
</filter>
<filter id="filter2_d_8457_64394" x="-3.9967" y="75.5416" width="126.033" height="110.295" filterUnits="userSpaceOnUse" color-interpolation-filters="sRGB">
<feFlood flood-opacity="0" result="BackgroundImageFix"/>
<feColorMatrix in="SourceAlpha" type="matrix" values="0 0 0 0 0 0 0 0 0 0 0 0 0 0 0 0 0 0 127 0" result="hardAlpha"/>
<feOffset dy="4"/>
<feGaussianBlur stdDeviation="2"/>
<feComposite in2="hardAlpha" operator="out"/>
<feColorMatrix type="matrix" values="0 0 0 0 0.80773 0 0 0 0 0.80773 0 0 0 0 0.80773 0 0 0 0.25 0"/>
<feBlend mode="normal" in2="BackgroundImageFix" result="effect1_dropShadow_8457_64394"/>
<feBlend mode="normal" in="SourceGraphic" in2="effect1_dropShadow_8457_64394" result="shape"/>
</filter>
<filter id="filter3_d_8457_64394" x="114.04" y="53.1342" width="81.9672" height="132.328" filterUnits="userSpaceOnUse" color-interpolation-filters="sRGB">
<feFlood flood-opacity="0" result="BackgroundImageFix"/>
<feColorMatrix in="SourceAlpha" type="matrix" values="0 0 0 0 0 0 0 0 0 0 0 0 0 0 0 0 0 0 127 0" result="hardAlpha"/>
<feOffset dy="4"/>
<feGaussianBlur stdDeviation="2"/>
<feComposite in2="hardAlpha" operator="out"/>
<feColorMatrix type="matrix" values="0 0 0 0 0.632606 0 0 0 0 0.632606 0 0 0 0 0.632606 0 0 0 0.25 0"/>
<feBlend mode="normal" in2="BackgroundImageFix" result="effect1_dropShadow_8457_64394"/>
<feBlend mode="normal" in="SourceGraphic" in2="effect1_dropShadow_8457_64394" result="shape"/>
</filter>
<linearGradient id="paint0_linear_8457_64394" x1="116.624" y1="30.074" x2="116.624" y2="121.859" gradientUnits="userSpaceOnUse">
<stop stop-color="#CAEBC9" stop-opacity="0.74"/>
<stop offset="1" stop-color="#018941"/>
</linearGradient>
<linearGradient id="paint1_linear_8457_64394" x1="89.8989" y1="13.0324" x2="89.8989" y2="112.414" gradientUnits="userSpaceOnUse">
<stop stop-color="#018941"/>
<stop offset="1" stop-color="#89D386"/>
</linearGradient>
<clipPath id="clip0_8457_64394">
<rect width="212.459" height="188.14" fill="white"/>
</clipPath>
</defs>
</svg>
