<svg width="130" height="111" viewBox="0 0 130 111" fill="none" xmlns="http://www.w3.org/2000/svg">
<g clip-path="url(#clip0_7369_66520)">
<path d="M81.3579 4.88191L98.9766 0.53125C96.8282 9.73665 91.9675 24.7689 80.1997 39.5612C78.7235 41.4155 65.9715 57.1019 44.9083 66.9614C41.5238 68.5456 35.6909 71.048 28.0997 71.27C20.9587 71.4801 16.86 69.5538 15.7379 68.9897C14.0996 68.1676 10.8771 66.5593 8.54876 63.1148C5.15224 58.086 5.90836 52.5412 6.11839 50.9569C6.43644 48.5506 7.15054 46.6363 7.73863 45.3701C8.31472 44.452 8.89081 43.5338 9.4729 42.6217C10.049 45.4841 11.3872 49.6427 14.8497 52.7032C25.4173 62.0286 45.7724 52.3131 48.5689 50.7349C53.7116 47.8245 62.881 41.7455 70.5442 30.7279C77.6673 20.4843 80.2897 10.5828 81.3579 4.88191Z" fill="#018941" fill-opacity="0.43"/>
<path d="M111.549 40.917C119.249 44.4755 123.551 52.2887 122.279 59.5978C121.511 64.0145 118.793 66.973 117.922 67.8731C111.753 74.2281 102.602 73.3339 100.34 73.1119C92.4485 72.3438 87.2337 68.0351 82.763 64.3506C76.4501 59.1418 72.5735 53.2549 70.2331 48.7482C67.6647 44.8596 53.9407 24.9005 31.3472 23.1963C26.7565 22.8482 11.6882 21.7081 4.20507 31.6756C-0.601664 38.0666 -0.0735831 46.0898 0.118446 47.8841C0.376485 50.2784 1.35463 56.3873 6.16737 61.9922C9.72591 66.1388 13.7825 68.1371 16.0029 69.0433C8.15367 63.5404 4.97919 54.281 7.79362 46.9779C9.6359 42.1892 13.6565 39.5608 15.0907 38.7447C21.6557 34.9941 28.6828 36.9624 32.6554 38.0786C38.4583 39.7048 42.3049 42.6092 44.4472 44.2535C50.0641 48.5682 51.9604 52.3067 56.311 57.9116C59.4255 61.9322 64.3402 67.5911 71.6554 73.676C74.5478 76.8685 81.9769 84.1596 93.7987 86.5779C97.6633 87.3701 105.615 88.9963 114.358 85.0597C119.651 82.6774 122.717 79.4489 123.317 78.7888C124.625 77.3485 127.8 73.766 128.988 68.1311C130.614 60.408 127.374 54.245 126.498 52.6368C121.805 44.0255 113.314 41.4211 111.561 40.923L111.549 40.917Z" fill="#01AF3E" fill-opacity="0.45"/>
</g>
<defs>
<clipPath id="clip0_7369_66520">
<rect width="129.428" height="109.493" fill="white" transform="translate(0 0.53125)"/>
</clipPath>
</defs>
</svg>
