<svg width="192" height="229" viewBox="0 0 192 229" fill="none" xmlns="http://www.w3.org/2000/svg">
<g clip-path="url(#clip0_8457_64339)">
<g opacity="0.83" filter="url(#filter0_d_8457_64339)">
<path d="M191.146 97.8039H0.786987V228.152H191.146V97.8039Z" fill="#FEFEFE"/>
</g>
<g filter="url(#filter1_d_8457_64339)">
<path d="M191.297 98.3228C191.287 95.9695 190.943 92.117 188.982 87.8563C187.633 84.9226 185.951 82.7358 184.603 81.2475C158.565 56.0859 132.528 30.9189 106.49 5.75729C105.308 4.37106 102.697 1.74905 98.6297 0.894749C97.77 0.712068 96.9587 0.636846 96.2172 0.620728H95.9324C95.191 0.636846 94.3797 0.712068 93.52 0.894749C89.4473 1.74905 86.8414 4.36569 85.6593 5.75729C59.6219 30.9189 33.5791 56.0805 7.54171 81.2422C6.19309 82.7305 4.50598 84.9226 3.16273 87.8509C1.20697 92.1117 0.863104 95.9641 0.846985 98.3175H92.5367V98.3443H99.3819V98.3175H191.297V98.3228Z" fill="#FEFEFE"/>
</g>
<path d="M160.88 19.6119H24.8151V178.63H160.88V19.6119Z" fill="#B9DEBF"/>
<g opacity="0.83" filter="url(#filter2_d_8457_64339)">
<path d="M1.24818 98.4721C3.23081 98.1605 6.14833 97.9295 9.59778 98.499C13.6221 99.1652 16.6686 100.648 18.5223 101.739C30.4933 111.416 39.998 120.19 46.9077 126.911C59.2172 138.888 66.1537 145.717 73.649 156.844C81.3323 168.256 85.5931 178.245 87.4629 182.967C91.2831 192.628 96.0919 208.108 96.8172 228.09C64.891 228.031 32.9702 227.971 1.04401 227.912C1.10848 184.762 1.17833 141.612 1.24281 98.4668L1.24818 98.4721Z" fill="#FEFEFE"/>
</g>
<g opacity="0.83" filter="url(#filter3_d_8457_64339)">
<path d="M191.252 98.4721C189.269 98.1605 186.352 97.9295 182.902 98.499C178.878 99.1652 175.832 100.648 173.978 101.739C162.007 111.416 152.502 120.19 145.593 126.911C133.283 138.888 126.347 145.717 118.851 156.844C111.168 168.256 106.907 178.245 105.037 182.967C101.217 192.628 96.4083 208.108 95.683 228.09C127.523 228.063 159.363 228.031 191.209 228.004C191.225 184.827 191.241 141.644 191.257 98.4668L191.252 98.4721Z" fill="#FEFEFE"/>
</g>
<g filter="url(#filter4_d_8457_64339)">
<path d="M190.546 227.856C189.74 224.933 188.606 221.575 186.989 217.97C185.356 214.327 183.588 211.221 181.928 208.659C163.971 191.105 146.015 173.557 128.064 156.003C127.521 155.321 126.36 154.058 124.448 153.204C122.691 152.414 121.111 152.339 120.251 152.361H72.4265C71.5668 152.339 69.9871 152.414 68.2302 153.204C66.3174 154.058 65.1622 155.326 64.6142 156.003C46.6577 173.557 28.7012 191.105 10.7501 208.659C9.08989 211.221 7.32219 214.327 5.6888 217.97C4.07154 221.575 2.94322 224.933 2.1319 227.856C33.3489 227.845 64.5604 227.84 95.7774 227.829V227.856C95.7774 227.856 95.9171 227.856 95.9225 227.856C127.344 227.077 158.888 227.072 190.54 227.856H190.546Z" fill="#FEFEFE"/>
</g>
<path d="M142.755 57.1805L141.663 56.1989C140.023 54.7112 138.667 53.4328 137.595 52.3637C136.523 51.2944 135.673 50.3428 135.046 49.5089C134.418 48.6751 133.98 47.9144 133.731 47.2268C133.482 46.5395 133.357 45.8419 133.357 45.1343C133.357 43.7303 133.83 42.5549 134.777 41.608C135.724 40.6612 136.9 40.1879 138.303 40.1879C139.167 40.1879 139.983 40.3898 140.752 40.7938C141.521 41.1978 142.188 41.7771 142.755 42.5317C143.322 41.7771 143.99 41.1978 144.759 40.7938C145.527 40.3898 146.343 40.1879 147.207 40.1879C148.611 40.1879 149.786 40.6612 150.733 41.608C151.68 42.5549 152.153 43.7303 152.153 45.1343C152.153 45.8419 152.029 46.5395 151.779 47.2268C151.53 47.9144 151.092 48.6751 150.465 49.5089C149.838 50.3428 148.99 51.2944 147.92 52.3637C146.851 53.4328 145.493 54.7112 143.847 56.1989L142.755 57.1805Z" fill="#F03F65"/>
</g>
<defs>
<filter id="filter0_d_8457_64339" x="-9.01301" y="92.0039" width="209.959" height="149.948" filterUnits="userSpaceOnUse" color-interpolation-filters="sRGB">
<feFlood flood-opacity="0" result="BackgroundImageFix"/>
<feColorMatrix in="SourceAlpha" type="matrix" values="0 0 0 0 0 0 0 0 0 0 0 0 0 0 0 0 0 0 127 0" result="hardAlpha"/>
<feOffset dy="4"/>
<feGaussianBlur stdDeviation="4.9"/>
<feComposite in2="hardAlpha" operator="out"/>
<feColorMatrix type="matrix" values="0 0 0 0 0 0 0 0 0 0 0 0 0 0 0 0 0 0 0.25 0"/>
<feBlend mode="normal" in2="BackgroundImageFix" result="effect1_dropShadow_8457_64339"/>
<feBlend mode="normal" in="SourceGraphic" in2="effect1_dropShadow_8457_64339" result="shape"/>
</filter>
<filter id="filter1_d_8457_64339" x="-6.45302" y="-2.67927" width="205.05" height="112.324" filterUnits="userSpaceOnUse" color-interpolation-filters="sRGB">
<feFlood flood-opacity="0" result="BackgroundImageFix"/>
<feColorMatrix in="SourceAlpha" type="matrix" values="0 0 0 0 0 0 0 0 0 0 0 0 0 0 0 0 0 0 127 0" result="hardAlpha"/>
<feOffset dy="4"/>
<feGaussianBlur stdDeviation="3.65"/>
<feComposite in2="hardAlpha" operator="out"/>
<feColorMatrix type="matrix" values="0 0 0 0 0.779428 0 0 0 0 0.779428 0 0 0 0 0.779428 0 0 0 0.25 0"/>
<feBlend mode="normal" in2="BackgroundImageFix" result="effect1_dropShadow_8457_64339"/>
<feBlend mode="normal" in="SourceGraphic" in2="effect1_dropShadow_8457_64339" result="shape"/>
</filter>
<filter id="filter2_d_8457_64339" x="-8.75599" y="92.3508" width="115.373" height="149.539" filterUnits="userSpaceOnUse" color-interpolation-filters="sRGB">
<feFlood flood-opacity="0" result="BackgroundImageFix"/>
<feColorMatrix in="SourceAlpha" type="matrix" values="0 0 0 0 0 0 0 0 0 0 0 0 0 0 0 0 0 0 127 0" result="hardAlpha"/>
<feOffset dy="4"/>
<feGaussianBlur stdDeviation="4.9"/>
<feComposite in2="hardAlpha" operator="out"/>
<feColorMatrix type="matrix" values="0 0 0 0 0 0 0 0 0 0 0 0 0 0 0 0 0 0 0.25 0"/>
<feBlend mode="normal" in2="BackgroundImageFix" result="effect1_dropShadow_8457_64339"/>
<feBlend mode="normal" in="SourceGraphic" in2="effect1_dropShadow_8457_64339" result="shape"/>
</filter>
<filter id="filter3_d_8457_64339" x="85.883" y="92.3508" width="115.174" height="149.539" filterUnits="userSpaceOnUse" color-interpolation-filters="sRGB">
<feFlood flood-opacity="0" result="BackgroundImageFix"/>
<feColorMatrix in="SourceAlpha" type="matrix" values="0 0 0 0 0 0 0 0 0 0 0 0 0 0 0 0 0 0 127 0" result="hardAlpha"/>
<feOffset dy="4"/>
<feGaussianBlur stdDeviation="4.9"/>
<feComposite in2="hardAlpha" operator="out"/>
<feColorMatrix type="matrix" values="0 0 0 0 0 0 0 0 0 0 0 0 0 0 0 0 0 0 0.25 0"/>
<feBlend mode="normal" in2="BackgroundImageFix" result="effect1_dropShadow_8457_64339"/>
<feBlend mode="normal" in="SourceGraphic" in2="effect1_dropShadow_8457_64339" result="shape"/>
</filter>
<filter id="filter4_d_8457_64339" x="-7.6681" y="146.558" width="208.014" height="95.0986" filterUnits="userSpaceOnUse" color-interpolation-filters="sRGB">
<feFlood flood-opacity="0" result="BackgroundImageFix"/>
<feColorMatrix in="SourceAlpha" type="matrix" values="0 0 0 0 0 0 0 0 0 0 0 0 0 0 0 0 0 0 127 0" result="hardAlpha"/>
<feOffset dy="4"/>
<feGaussianBlur stdDeviation="4.9"/>
<feComposite in2="hardAlpha" operator="out"/>
<feColorMatrix type="matrix" values="0 0 0 0 0 0 0 0 0 0 0 0 0 0 0 0 0 0 0.25 0"/>
<feBlend mode="normal" in2="BackgroundImageFix" result="effect1_dropShadow_8457_64339"/>
<feBlend mode="normal" in="SourceGraphic" in2="effect1_dropShadow_8457_64339" result="shape"/>
</filter>
<clipPath id="clip0_8457_64339">
<rect width="190.515" height="227.535" fill="white" transform="translate(0.784119 0.618958)"/>
</clipPath>
</defs>
</svg>
