<svg width="209" height="142" viewBox="0 0 209 142" fill="none" xmlns="http://www.w3.org/2000/svg">
<g filter="url(#filter0_d_8457_72951)">
<path opacity="0.83" d="M8.39999 4.32479C10.4041 4.00978 13.3532 3.77624 16.8401 4.35195C20.908 5.02542 23.9875 6.52442 25.8613 7.62695C37.962 17.4085 47.5697 26.2777 54.5542 33.0721C66.9971 45.1782 74.0088 52.0812 81.5853 63.3292C89.3519 74.8651 93.6588 84.9617 95.5488 89.7357C99.4104 99.5009 104.271 115.148 105.005 135.347C72.7324 135.287 40.4657 135.227 8.1936 135.168C8.25878 91.5497 8.32938 47.9318 8.39456 4.31936L8.39999 4.32479Z" fill="white" fill-opacity="0.35"/>
<path opacity="0.83" d="M200.462 4.32479C198.458 4.00978 195.509 3.77624 192.022 4.35195C187.954 5.02542 184.875 6.52442 183.001 7.62695C170.9 17.4085 161.292 26.2777 154.308 33.0721C141.865 45.1782 134.853 52.0812 127.277 63.3292C119.51 74.8651 115.203 84.9617 113.313 89.7357C109.452 99.5009 104.591 115.148 103.858 135.347C136.043 135.32 168.228 135.287 200.419 135.26C200.435 91.6149 200.451 47.9644 200.468 4.31936L200.462 4.32479Z" fill="white" fill-opacity="0.35"/>
<g filter="url(#filter1_d_8457_72951)">
<path d="M8.00001 4.43065C8.01087 6.80952 8.35847 10.7037 10.3408 15.0106C11.7041 17.976 13.404 20.1865 14.7673 21.691C41.0868 47.1252 67.4063 72.5649 93.7259 97.9992C94.9207 99.4004 97.5603 102.051 101.672 102.914C102.541 103.099 103.361 103.175 104.11 103.191L104.398 103.191C105.148 103.175 105.968 103.099 106.837 102.914C110.954 102.051 113.588 99.4059 114.783 97.9992C141.102 72.5649 167.427 47.1307 193.747 21.6964C195.11 20.192 196.815 17.9761 198.173 15.0161C200.15 10.7091 200.498 6.81496 200.514 4.4361L107.831 4.43609L107.831 4.40893L100.911 4.40893L100.911 4.43609L8.00001 4.43608L8.00001 4.43065Z" fill="#FBFDFE"/>
</g>
<path d="M199.751 135.11C198.936 132.155 197.79 128.761 196.155 125.116C194.504 121.434 192.717 118.295 191.039 115.704C172.888 97.9603 154.737 80.222 136.591 62.4784C136.043 61.7886 134.87 60.5123 132.936 59.6487C131.16 58.8503 129.563 58.7743 128.694 58.796H80.3514C79.4824 58.7743 77.8857 58.8503 76.1096 59.6487C74.1761 60.5123 73.0084 61.794 72.4545 62.4784C54.3034 80.222 36.1524 97.9603 18.0068 115.704C16.3286 118.295 14.5417 121.434 12.8906 125.116C11.2558 128.761 10.1153 132.155 9.29517 135.11C40.8504 135.099 72.4002 135.093 103.955 135.082V135.11C103.955 135.11 104.097 135.11 104.102 135.11C135.864 134.322 167.75 134.317 199.745 135.11H199.751Z" fill="white" fill-opacity="0.37"/>
</g>
<defs>
<filter id="filter0_d_8457_72951" x="4" y="2" width="200.514" height="139.347" filterUnits="userSpaceOnUse" color-interpolation-filters="sRGB">
<feFlood flood-opacity="0" result="BackgroundImageFix"/>
<feColorMatrix in="SourceAlpha" type="matrix" values="0 0 0 0 0 0 0 0 0 0 0 0 0 0 0 0 0 0 127 0" result="hardAlpha"/>
<feOffset dy="2"/>
<feGaussianBlur stdDeviation="2"/>
<feComposite in2="hardAlpha" operator="out"/>
<feColorMatrix type="matrix" values="0 0 0 0 0 0 0 0 0 0 0 0 0 0 0 0 0 0 0.25 0"/>
<feBlend mode="normal" in2="BackgroundImageFix" result="effect1_dropShadow_8457_72951"/>
<feBlend mode="normal" in="SourceGraphic" in2="effect1_dropShadow_8457_72951" result="shape"/>
</filter>
<filter id="filter1_d_8457_72951" x="0.2" y="0.608935" width="208.114" height="114.382" filterUnits="userSpaceOnUse" color-interpolation-filters="sRGB">
<feFlood flood-opacity="0" result="BackgroundImageFix"/>
<feColorMatrix in="SourceAlpha" type="matrix" values="0 0 0 0 0 0 0 0 0 0 0 0 0 0 0 0 0 0 127 0" result="hardAlpha"/>
<feOffset dy="4"/>
<feGaussianBlur stdDeviation="3.9"/>
<feComposite in2="hardAlpha" operator="out"/>
<feColorMatrix type="matrix" values="0 0 0 0 0 0 0 0 0 0 0 0 0 0 0 0 0 0 0.1 0"/>
<feBlend mode="normal" in2="BackgroundImageFix" result="effect1_dropShadow_8457_72951"/>
<feBlend mode="normal" in="SourceGraphic" in2="effect1_dropShadow_8457_72951" result="shape"/>
</filter>
</defs>
</svg>
