<svg width="24" height="24" viewBox="0 0 24 24" fill="none" xmlns="http://www.w3.org/2000/svg">
<mask id="mask0_8634_20675" style="mask-type:alpha" maskUnits="userSpaceOnUse" x="0" y="0" width="24" height="24">
<rect width="24" height="24" fill="#D9D9D9"/>
</mask>
<g mask="url(#mask0_8634_20675)">
<path d="M10.3464 16.1913L17.0694 9.46825L16.0156 8.4145L10.3464 14.0838L7.49638 11.2338L6.44262 12.2875L10.3464 16.1913ZM11.7674 21.4375C10.4534 21.4375 9.21829 21.1882 8.06212 20.6895C6.90596 20.1908 5.90029 19.5141 5.04512 18.6593C4.18996 17.8044 3.51287 16.7992 3.01387 15.6435C2.51504 14.4878 2.26562 13.2531 2.26562 11.9392C2.26562 10.6252 2.51496 9.39017 3.01362 8.234C3.51229 7.07783 4.18904 6.07217 5.04388 5.217C5.89871 4.36183 6.90396 3.68475 8.05963 3.18575C9.21529 2.68692 10.45 2.4375 11.7639 2.4375C13.0779 2.4375 14.313 2.68683 15.4691 3.1855C16.6253 3.68417 17.631 4.36092 18.4861 5.21575C19.3413 6.07058 20.0184 7.07583 20.5174 8.2315C21.0162 9.38717 21.2656 10.6219 21.2656 11.9358C21.2656 13.2498 21.0163 14.4848 20.5176 15.641C20.019 16.7972 19.3422 17.8028 18.4874 18.658C17.6325 19.5132 16.6273 20.1903 15.4716 20.6893C14.316 21.1881 13.0812 21.4375 11.7674 21.4375Z" fill="#018941"/>
</g>
</svg>
