<svg width="25" height="25" viewBox="0 0 25 25" fill="none" xmlns="http://www.w3.org/2000/svg">
<mask id="mask0_7245_48464" style="mask-type:alpha" maskUnits="userSpaceOnUse" x="0" y="0" width="25" height="25">
<rect x="0.75" y="0.5" width="24" height="24" fill="#D9D9D9"/>
</mask>
<g mask="url(#mask0_7245_48464)">
<path d="M2.54688 19.803V17.5798C2.54688 17.0644 2.67987 16.6045 2.94588 16.2C3.21188 15.7955 3.56713 15.4808 4.01163 15.256C4.96196 14.7912 5.91754 14.4328 6.87838 14.1808C7.83938 13.9289 8.89546 13.803 10.0466 13.803C11.198 13.803 12.254 13.9289 13.2149 14.1808C14.1759 14.4328 15.1315 14.7912 16.0819 15.256C16.5264 15.4808 16.8816 15.7955 17.1476 16.2C17.4136 16.6045 17.5466 17.0644 17.5466 17.5798V19.803H2.54688ZM19.5466 19.803V17.4567C19.5466 16.8004 19.386 16.1748 19.0646 15.58C18.7431 14.9853 18.2871 14.4751 17.6966 14.0493C18.3671 14.1493 19.0037 14.304 19.6064 14.5135C20.2089 14.7232 20.7839 14.9709 21.3314 15.2568C21.848 15.5324 22.247 15.8573 22.5284 16.2315C22.8097 16.6055 22.9504 17.0139 22.9504 17.4567V19.803H19.5466ZM10.0466 12.1875C9.08413 12.1875 8.26021 11.8448 7.57488 11.1595C6.88954 10.474 6.54688 9.65 6.54688 8.6875C6.54688 7.725 6.88954 6.90108 7.57488 6.21575C8.26021 5.53025 9.08413 5.1875 10.0466 5.1875C11.0091 5.1875 11.8331 5.53025 12.5186 6.21575C13.204 6.90108 13.5466 7.725 13.5466 8.6875C13.5466 9.65 13.204 10.474 12.5186 11.1595C11.8331 11.8448 11.0091 12.1875 10.0466 12.1875ZM18.6811 8.6875C18.6811 9.65 18.3385 10.474 17.6531 11.1595C16.9678 11.8448 16.1439 12.1875 15.1814 12.1875C15.0685 12.1875 14.925 12.1747 14.7506 12.149C14.5761 12.1233 14.4325 12.0952 14.3199 12.0645C14.7142 11.5903 15.0173 11.0643 15.2291 10.4865C15.4408 9.90867 15.5466 9.30867 15.5466 8.6865C15.5466 8.06417 15.4386 7.46642 15.2226 6.89325C15.0066 6.32025 14.7057 5.79275 14.3199 5.31075C14.4634 5.25942 14.607 5.22608 14.7506 5.21075C14.8941 5.19525 15.0377 5.1875 15.1814 5.1875C16.1439 5.1875 16.9678 5.53025 17.6531 6.21575C18.3385 6.90108 18.6811 7.725 18.6811 8.6875ZM4.04663 18.303H16.0466V17.5798C16.0466 17.3709 15.9944 17.1851 15.8899 17.0223C15.7855 16.8594 15.6199 16.7171 15.3929 16.5953C14.5699 16.1709 13.7225 15.8494 12.8506 15.6308C11.9788 15.4123 11.0441 15.303 10.0466 15.303C9.04929 15.303 8.11471 15.4123 7.24288 15.6308C6.37104 15.8494 5.52363 16.1709 4.70063 16.5953C4.47363 16.7171 4.30788 16.8594 4.20338 17.0223C4.09888 17.1851 4.04663 17.3709 4.04663 17.5798V18.303ZM10.0466 10.6875C10.5966 10.6875 11.0675 10.4917 11.4591 10.1C11.8508 9.70833 12.0466 9.2375 12.0466 8.6875C12.0466 8.1375 11.8508 7.66667 11.4591 7.275C11.0675 6.88333 10.5966 6.6875 10.0466 6.6875C9.49663 6.6875 9.02579 6.88333 8.63413 7.275C8.24246 7.66667 8.04663 8.1375 8.04663 8.6875C8.04663 9.2375 8.24246 9.70833 8.63413 10.1C9.02579 10.4917 9.49663 10.6875 10.0466 10.6875Z" fill="currentColor"/>
</g>
</svg>
