<svg width="25" height="25" viewBox="0 0 25 25" fill="none" xmlns="http://www.w3.org/2000/svg">
<mask id="mask0_7427_25502" style="mask-type:alpha" maskUnits="userSpaceOnUse" x="0" y="0" width="25" height="25">
<rect x="0.75" y="0.539062" width="24" height="24" fill="#D9D9D9"/>
</mask>
<g mask="url(#mask0_7427_25502)">
<path d="M1.75 20.5391V16.5391C1.75 15.9724 1.94583 15.4974 2.3375 15.1141C2.72917 14.7307 3.2 14.5391 3.75 14.5391H7.025C7.35833 14.5391 7.675 14.6224 7.975 14.7891C8.275 14.9557 8.51667 15.1807 8.7 15.4641C9.18333 16.1141 9.77917 16.6224 10.4875 16.9891C11.1958 17.3557 11.95 17.5391 12.75 17.5391C13.5667 17.5391 14.3292 17.3557 15.0375 16.9891C15.7458 16.6224 16.3333 16.1141 16.8 15.4641C17.0167 15.1807 17.2708 14.9557 17.5625 14.7891C17.8542 14.6224 18.1583 14.5391 18.475 14.5391H21.75C22.3167 14.5391 22.7917 14.7307 23.175 15.1141C23.5583 15.4974 23.75 15.9724 23.75 16.5391V20.5391H16.75V18.2641C16.1667 18.6807 15.5375 18.9974 14.8625 19.2141C14.1875 19.4307 13.4833 19.5391 12.75 19.5391C12.0333 19.5391 11.3333 19.4266 10.65 19.2016C9.96667 18.9766 9.33333 18.6557 8.75 18.2391V20.5391H1.75ZM12.75 16.5391C12.1167 16.5391 11.5167 16.3932 10.95 16.1016C10.3833 15.8099 9.90833 15.4057 9.525 14.8891C9.24167 14.4724 8.8875 14.1432 8.4625 13.9016C8.0375 13.6599 7.575 13.5391 7.075 13.5391C7.44167 12.9224 8.21667 12.4349 9.4 12.0766C10.5833 11.7182 11.7 11.5391 12.75 11.5391C13.8 11.5391 14.9167 11.7182 16.1 12.0766C17.2833 12.4349 18.0583 12.9224 18.425 13.5391C17.9417 13.5391 17.4833 13.6599 17.05 13.9016C16.6167 14.1432 16.2583 14.4724 15.975 14.8891C15.6083 15.4224 15.1417 15.8307 14.575 16.1141C14.0083 16.3974 13.4 16.5391 12.75 16.5391ZM4.75 13.5391C3.91667 13.5391 3.20833 13.2474 2.625 12.6641C2.04167 12.0807 1.75 11.3724 1.75 10.5391C1.75 9.68906 2.04167 8.97656 2.625 8.40156C3.20833 7.82656 3.91667 7.53906 4.75 7.53906C5.6 7.53906 6.3125 7.82656 6.8875 8.40156C7.4625 8.97656 7.75 9.68906 7.75 10.5391C7.75 11.3724 7.4625 12.0807 6.8875 12.6641C6.3125 13.2474 5.6 13.5391 4.75 13.5391ZM20.75 13.5391C19.9167 13.5391 19.2083 13.2474 18.625 12.6641C18.0417 12.0807 17.75 11.3724 17.75 10.5391C17.75 9.68906 18.0417 8.97656 18.625 8.40156C19.2083 7.82656 19.9167 7.53906 20.75 7.53906C21.6 7.53906 22.3125 7.82656 22.8875 8.40156C23.4625 8.97656 23.75 9.68906 23.75 10.5391C23.75 11.3724 23.4625 12.0807 22.8875 12.6641C22.3125 13.2474 21.6 13.5391 20.75 13.5391ZM12.75 10.5391C11.9167 10.5391 11.2083 10.2474 10.625 9.66406C10.0417 9.08073 9.75 8.3724 9.75 7.53906C9.75 6.68906 10.0417 5.97656 10.625 5.40156C11.2083 4.82656 11.9167 4.53906 12.75 4.53906C13.6 4.53906 14.3125 4.82656 14.8875 5.40156C15.4625 5.97656 15.75 6.68906 15.75 7.53906C15.75 8.3724 15.4625 9.08073 14.8875 9.66406C14.3125 10.2474 13.6 10.5391 12.75 10.5391Z" fill="currentColor"/>
</g>
</svg>
