<svg width="25" height="25" viewBox="0 0 25 25" fill="none" xmlns="http://www.w3.org/2000/svg">
<mask id="mask0_7427_27128" style="mask-type:alpha" maskUnits="userSpaceOnUse" x="0" y="0" width="25" height="25">
<rect x="0.5" y="0.808594" width="24" height="24" fill="#D9D9D9"/>
</mask>
<g mask="url(#mask0_7427_27128)">
<path d="M5.80775 21.3086C5.30258 21.3086 4.875 21.1336 4.525 20.7836C4.175 20.4336 4 20.006 4 19.5008V6.11634C4 5.61118 4.175 5.18359 4.525 4.83359C4.875 4.48359 5.30258 4.30859 5.80775 4.30859H19.1923C19.6974 4.30859 20.125 4.48359 20.475 4.83359C20.825 5.18359 21 5.61118 21 6.11634V19.5008C21 20.006 20.825 20.4336 20.475 20.7836C20.125 21.1336 19.6974 21.3086 19.1923 21.3086H5.80775ZM5.80775 19.8086H19.1923C19.2692 19.8086 19.3398 19.7765 19.4038 19.7123C19.4679 19.6483 19.5 19.5778 19.5 19.5008V6.11634C19.5 6.03934 19.4679 5.96884 19.4038 5.90484C19.3398 5.84068 19.2692 5.80859 19.1923 5.80859H5.80775C5.73075 5.80859 5.66025 5.84068 5.59625 5.90484C5.53208 5.96884 5.5 6.03934 5.5 6.11634V19.5008C5.5 19.5778 5.53208 19.6483 5.59625 19.7123C5.66025 19.7765 5.73075 19.8086 5.80775 19.8086ZM7.25 17.5586H17.8268L14.5385 13.1741L11.7308 16.8278L9.73075 14.2701L7.25 17.5586ZM9 10.5586C9.34617 10.5586 9.641 10.4368 9.8845 10.1931C10.1282 9.94959 10.25 9.65476 10.25 9.30859C10.25 8.96243 10.1282 8.66759 9.8845 8.42409C9.641 8.18043 9.34617 8.05859 9 8.05859C8.65383 8.05859 8.359 8.18043 8.1155 8.42409C7.87183 8.66759 7.75 8.96243 7.75 9.30859C7.75 9.65476 7.87183 9.94959 8.1155 10.1931C8.359 10.4368 8.65383 10.5586 9 10.5586Z" fill="currentColor"/>
</g>
</svg>
