<svg width="24" height="25" viewBox="0 0 24 25" fill="none" xmlns="http://www.w3.org/2000/svg">
<mask id="mask0_7645_28564" style="mask-type:alpha" maskUnits="userSpaceOnUse" x="0" y="0" width="24" height="25">
<rect y="0.246094" width="24" height="24" fill="#D9D9D9"/>
</mask>
<g mask="url(#mask0_7645_28564)">
<path d="M18.4141 13.5499V10.5499H15.4141V9.04994H18.4141V6.04994H19.9141V9.04994H22.9141V10.5499H19.9141V13.5499H18.4141ZM9.28906 11.4922C8.32656 11.4922 7.50265 11.1495 6.81731 10.4642C6.13181 9.77869 5.78906 8.95469 5.78906 7.99219C5.78906 7.02969 6.13181 6.20577 6.81731 5.52044C7.50265 4.83494 8.32656 4.49219 9.28906 4.49219C10.2516 4.49219 11.0755 4.83494 11.7608 5.52044C12.4463 6.20577 12.7891 7.02969 12.7891 7.99219C12.7891 8.95469 12.4463 9.77869 11.7608 10.4642C11.0755 11.1495 10.2516 11.4922 9.28906 11.4922ZM1.78906 19.1077V16.8844C1.78906 16.3948 1.92206 15.9413 2.18806 15.5239C2.45406 15.1066 2.80956 14.7858 3.25456 14.5614C4.2429 14.0769 5.23998 13.7135 6.24581 13.4712C7.25165 13.2289 8.26606 13.1077 9.28906 13.1077C10.3121 13.1077 11.3265 13.2289 12.3323 13.4712C13.3381 13.7135 14.3352 14.0769 15.3236 14.5614C15.7686 14.7858 16.1241 15.1066 16.3901 15.5239C16.6561 15.9413 16.7891 16.3948 16.7891 16.8844V19.1077H1.78906ZM3.28906 17.6077H15.2891V16.8844C15.2891 16.6819 15.2304 16.4944 15.1131 16.3219C14.9957 16.1496 14.8365 16.0089 14.6353 15.8999C13.7736 15.4756 12.8951 15.1541 11.9998 14.9354C11.1043 14.7169 10.2007 14.6077 9.28906 14.6077C8.3774 14.6077 7.47381 14.7169 6.57831 14.9354C5.68298 15.1541 4.80448 15.4756 3.94281 15.8999C3.74165 16.0089 3.5824 16.1496 3.46506 16.3219C3.34773 16.4944 3.28906 16.6819 3.28906 16.8844V17.6077ZM9.28906 9.99219C9.83906 9.99219 10.3099 9.79635 10.7016 9.40469C11.0932 9.01302 11.2891 8.54219 11.2891 7.99219C11.2891 7.44219 11.0932 6.97135 10.7016 6.57969C10.3099 6.18802 9.83906 5.99219 9.28906 5.99219C8.73906 5.99219 8.26823 6.18802 7.87656 6.57969C7.4849 6.97135 7.28906 7.44219 7.28906 7.99219C7.28906 8.54219 7.4849 9.01302 7.87656 9.40469C8.26823 9.79635 8.73906 9.99219 9.28906 9.99219Z" fill="currentColor"/>
</g>
</svg>
