<svg width="25" height="25" viewBox="0 0 25 25" fill="none" xmlns="http://www.w3.org/2000/svg">
<mask id="mask0_7427_35920" style="mask-type:alpha" maskUnits="userSpaceOnUse" x="0" y="0" width="25" height="25">
<rect x="0.5" y="0.5" width="24" height="24" fill="#D9D9D9"/>
</mask>
<g mask="url(#mask0_7427_35920)">
<path d="M18.625 14.2492V11.2492H15.625V9.74916H18.625V6.74916H20.125V9.74916H23.125V11.2492H20.125V14.2492H18.625ZM9.5 12.1914C8.5375 12.1914 7.71358 11.8487 7.02825 11.1634C6.34275 10.4779 6 9.65391 6 8.69141C6 7.72891 6.34275 6.90499 7.02825 6.21966C7.71358 5.53416 8.5375 5.19141 9.5 5.19141C10.4625 5.19141 11.2864 5.53416 11.9718 6.21966C12.6573 6.90499 13 7.72891 13 8.69141C13 9.65391 12.6573 10.4779 11.9718 11.1634C11.2864 11.8487 10.4625 12.1914 9.5 12.1914ZM2 19.8069V17.5837C2 17.094 2.133 16.6405 2.399 16.2232C2.665 15.8058 3.0205 15.485 3.4655 15.2607C4.45383 14.7762 5.45092 14.4127 6.45675 14.1704C7.46258 13.9281 8.477 13.8069 9.5 13.8069C10.523 13.8069 11.5374 13.9281 12.5433 14.1704C13.5491 14.4127 14.5462 14.7762 15.5345 15.2607C15.9795 15.485 16.335 15.8058 16.601 16.2232C16.867 16.6405 17 17.094 17 17.5837V19.8069H2Z" fill="currentColor"/>
</g>
</svg>
