<svg width="25" height="24" viewBox="0 0 25 24" fill="none" xmlns="http://www.w3.org/2000/svg">
<mask id="mask0_8471_8987" style="mask-type:alpha" maskUnits="userSpaceOnUse" x="0" y="0" width="25" height="24">
<rect x="0.5" width="24" height="24" fill="#D9D9D9"/>
</mask>
<g mask="url(#mask0_8471_8987)">
<path d="M7.74944 19.5C6.9866 19.5 6.3376 19.2323 5.80244 18.697C5.2671 18.1618 4.99944 17.5128 4.99944 16.75H2.63419L2.96869 15.25H5.51494C5.74694 14.8692 6.05944 14.5657 6.45244 14.3395C6.84527 14.1132 7.2776 14 7.74944 14C8.22127 14 8.65369 14.1132 9.04669 14.3395C9.43952 14.5657 9.75202 14.8692 9.98419 15.25H14.3802L16.5284 6H5.57844L5.63994 5.7385C5.71427 5.37433 5.8921 5.07692 6.17344 4.84625C6.45494 4.61542 6.78602 4.5 7.16669 4.5H18.4032L17.5359 8.25H20.0379L22.8937 12.0578L21.9609 16.75H20.3839C20.3839 17.5128 20.1164 18.1618 19.5812 18.697C19.0459 19.2323 18.3969 19.5 17.6342 19.5C16.8714 19.5 16.2223 19.2323 15.6869 18.697C15.1518 18.1618 14.8842 17.5128 14.8842 16.75H10.4994C10.4994 17.5128 10.2318 18.1618 9.69644 18.697C9.16127 19.2323 8.51227 19.5 7.74944 19.5ZM16.4052 13.125H21.1437L21.2822 12.4173L19.2879 9.75H17.1917L16.4052 13.125ZM16.3822 6.5885L16.5284 6L14.3802 15.25L14.5264 14.6615L16.3822 6.5885ZM1.58594 13.1615L1.96094 11.6615H6.95144L6.57644 13.1615H1.58594ZM3.58594 9.5885L3.96094 8.0885H9.95144L9.57644 9.5885H3.58594ZM7.74944 18C8.09694 18 8.39211 17.8785 8.63494 17.6355C8.87794 17.3927 8.99944 17.0975 8.99944 16.75C8.99944 16.4025 8.87794 16.1073 8.63494 15.8645C8.39211 15.6215 8.09694 15.5 7.74944 15.5C7.40194 15.5 7.10677 15.6215 6.86394 15.8645C6.62094 16.1073 6.49944 16.4025 6.49944 16.75C6.49944 17.0975 6.62094 17.3927 6.86394 17.6355C7.10677 17.8785 7.40194 18 7.74944 18ZM17.6342 18C17.9815 18 18.2767 17.8785 18.5197 17.6355C18.7627 17.3927 18.8842 17.0975 18.8842 16.75C18.8842 16.4025 18.7627 16.1073 18.5197 15.8645C18.2767 15.6215 17.9815 15.5 17.6342 15.5C17.2867 15.5 16.9914 15.6215 16.7484 15.8645C16.5054 16.1073 16.3839 16.4025 16.3839 16.75C16.3839 17.0975 16.5054 17.3927 16.7484 17.6355C16.9914 17.8785 17.2867 18 17.6342 18Z" fill="currentColor"/>
</g>
</svg>
