<svg width="24" height="24" viewBox="0 0 24 24" fill="none" xmlns="http://www.w3.org/2000/svg">
<mask id="mask0_8471_9011" style="mask-type:alpha" maskUnits="userSpaceOnUse" x="0" y="0" width="24" height="24">
<rect width="24" height="24" fill="#D9D9D9"/>
</mask>
<g mask="url(#mask0_8471_9011)">
<path d="M15.5 18.5V20.6152C15.5 20.8603 15.4138 21.0689 15.2413 21.2413C15.0689 21.4138 14.8602 21.5 14.6152 21.5H3.38475C3.13975 21.5 2.93108 21.4138 2.75875 21.2413C2.58625 21.0689 2.5 20.8603 2.5 20.6152V13.3848C2.5 13.1398 2.58625 12.9311 2.75875 12.7587C2.93108 12.5863 3.13975 12.5 3.38475 12.5H6.5V8C6.5 6.47433 7.03525 5.17625 8.10575 4.10575C9.17625 3.03525 10.4743 2.5 12 2.5H16C17.5257 2.5 18.8238 3.03525 19.8943 4.10575C20.9648 5.17625 21.5 6.47433 21.5 8V21.5H20V18.5H15.5ZM15.5 17H20V8C20 6.9 19.6083 5.95833 18.825 5.175C18.0417 4.39167 17.1 4 16 4H12C10.9 4 9.95833 4.39167 9.175 5.175C8.39167 5.95833 8 6.9 8 8V12.5H14.6152C14.8602 12.5 15.0689 12.5863 15.2413 12.7587C15.4138 12.9311 15.5 13.1398 15.5 13.3848V17ZM10.25 9.75V8.25H17.75V9.75H10.25ZM9 16.85L14 14H4L9 16.85ZM9 18.2345L4 15.3845V20H14V15.3845L9 18.2345Z" fill="currentColor"/>
</g>
</svg>
