<svg width="25" height="24" viewBox="0 0 25 24" fill="none" xmlns="http://www.w3.org/2000/svg">
<mask id="mask0_8471_6190" style="mask-type:alpha" maskUnits="userSpaceOnUse" x="0" y="0" width="25" height="24">
<rect x="0.5" width="24" height="24" fill="#D9D9D9"/>
</mask>
<g mask="url(#mask0_8471_6190)">
<path d="M16.5006 8.30469V5.30469H8.50056V8.30469H7.00056V3.80469H18.0006V8.30469H16.5006ZM18.3083 12.3047C18.5916 12.3047 18.8291 12.2089 19.0208 12.0172C19.2125 11.8255 19.3083 11.588 19.3083 11.3047C19.3083 11.0214 19.2125 10.7839 19.0208 10.5922C18.8291 10.4005 18.5916 10.3047 18.3083 10.3047C18.025 10.3047 17.7875 10.4005 17.5958 10.5922C17.4041 10.7839 17.3083 11.0214 17.3083 11.3047C17.3083 11.588 17.4041 11.8255 17.5958 12.0172C17.7875 12.2089 18.025 12.3047 18.3083 12.3047ZM16.5006 18.9969V14.7277H8.50056V18.9969H16.5006ZM18.0006 20.4969H7.00056V16.4969H3.28906V10.8047C3.28906 10.0964 3.53106 9.5026 4.01506 9.02344C4.49906 8.54427 5.0904 8.30469 5.78906 8.30469H19.2121C19.9204 8.30469 20.5141 8.54427 20.9933 9.02344C21.4725 9.5026 21.7121 10.0964 21.7121 10.8047V16.4969H18.0006V20.4969ZM20.2121 14.9969V10.8047C20.2121 10.5214 20.1162 10.2839 19.9246 10.0922C19.7329 9.90052 19.4954 9.80469 19.2121 9.80469H5.78906C5.50573 9.80469 5.26823 9.90052 5.07656 10.0922C4.8849 10.2839 4.78906 10.5214 4.78906 10.8047V14.9969H7.00056V13.2277H18.0006V14.9969H20.2121Z" fill="currentColor"/>
</g>
</svg>
