<svg width="25" height="24" viewBox="0 0 25 24" fill="none" xmlns="http://www.w3.org/2000/svg">
<g clip-path="url(#clip0_7071_20751)">
<path d="M12.8125 11.2869C14.1593 11.2869 15.4509 11.8021 16.4033 12.7192C17.3556 13.6364 17.8906 14.8802 17.8906 16.1772V22.0456H7.73438V16.1772C7.73438 14.8802 8.26939 13.6364 9.22172 12.7192C10.1741 11.8021 11.4657 11.2869 12.8125 11.2869ZM5.99563 14.227C5.834 14.752 5.73852 15.2938 5.71125 15.8408L5.70312 16.1772V22.0456H2.65625V17.6443C2.65605 16.8008 2.97925 15.9869 3.56385 15.3588C4.14845 14.7306 4.95329 14.3325 5.82398 14.2407L5.99664 14.227H5.99563ZM19.6294 14.227C20.5332 14.28 21.3819 14.6631 22.0025 15.2982C22.623 15.9332 22.9686 16.7723 22.9688 17.6443V22.0456H19.9219V16.1772C19.9219 15.4994 19.8203 14.8451 19.6294 14.227ZM6.21094 8.35273C6.88434 8.35273 7.53016 8.61035 8.00633 9.0689C8.48249 9.52746 8.75 10.1494 8.75 10.7979C8.75 11.4464 8.48249 12.0683 8.00633 12.5269C7.53016 12.9854 6.88434 13.243 6.21094 13.243C5.53754 13.243 4.89172 12.9854 4.41555 12.5269C3.93938 12.0683 3.67188 11.4464 3.67188 10.7979C3.67188 10.1494 3.93938 9.52746 4.41555 9.0689C4.89172 8.61035 5.53754 8.35273 6.21094 8.35273ZM19.4141 8.35273C20.0875 8.35273 20.7333 8.61035 21.2095 9.0689C21.6856 9.52746 21.9531 10.1494 21.9531 10.7979C21.9531 11.4464 21.6856 12.0683 21.2095 12.5269C20.7333 12.9854 20.0875 13.243 19.4141 13.243C18.7407 13.243 18.0948 12.9854 17.6187 12.5269C17.1425 12.0683 16.875 11.4464 16.875 10.7979C16.875 10.1494 17.1425 9.52746 17.6187 9.0689C18.0948 8.61035 18.7407 8.35273 19.4141 8.35273ZM12.8125 2.48438C13.8899 2.48438 14.9233 2.89656 15.6851 3.63024C16.447 4.36393 16.875 5.35902 16.875 6.39661C16.875 7.43421 16.447 8.4293 15.6851 9.16299C14.9233 9.89667 13.8899 10.3089 12.8125 10.3089C11.7351 10.3089 10.7017 9.89667 9.93988 9.16299C9.17801 8.4293 8.75 7.43421 8.75 6.39661C8.75 5.35902 9.17801 4.36393 9.93988 3.63024C10.7017 2.89656 11.7351 2.48438 12.8125 2.48438Z" fill="currentColor"/>
</g>
<defs>
<clipPath id="clip0_7071_20751">
<rect width="24.375" height="23.4734" fill="white" transform="translate(0.625 0.527344)"/>
</clipPath>
</defs>
</svg>
