<svg width="24" height="24" viewBox="0 0 24 24" fill="none" xmlns="http://www.w3.org/2000/svg">
<mask id="mask0_7580_57445" style="mask-type:alpha" maskUnits="userSpaceOnUse" x="0" y="0" width="24" height="24">
<rect width="24" height="24" fill="#D9D9D9"/>
</mask>
<g mask="url(#mask0_7580_57445)">
<path d="M12.8979 21.5014C12.1137 21.5014 11.3449 21.3943 10.5914 21.1802C9.83804 20.9662 9.12871 20.6514 8.46338 20.2359L9.54787 19.1514C10.0645 19.4347 10.6062 19.6472 11.1729 19.7889C11.7395 19.9306 12.3145 20.0014 12.8979 20.0014C14.8479 20.0014 16.502 19.3222 17.8604 17.9639C19.2187 16.6056 19.8979 14.9514 19.8979 13.0014C19.8979 11.0514 19.2187 9.39724 17.8604 8.03891C16.502 6.68057 14.8479 6.00141 12.8979 6.00141H12.1709L13.9516 7.78216L12.8979 8.90516L9.24412 5.25141L12.8979 1.59766L13.9516 2.72066L12.1709 4.50141H12.8979C15.2589 4.50141 17.2658 5.32766 18.9186 6.98016C20.5715 8.63266 21.3979 10.6393 21.3979 13.0002C21.3979 14.1805 21.1748 15.286 20.7286 16.3167C20.2825 17.3475 19.676 18.2462 18.9094 19.0129C18.1427 19.7796 17.2441 20.386 16.2136 20.8322C15.1831 21.2783 14.0779 21.5014 12.8979 21.5014ZM6.89787 18.2899L1.60938 13.0014L6.89787 7.71291L12.1864 13.0014L6.89787 18.2899ZM6.89787 16.1514L10.0479 13.0014L6.89787 9.85141L3.74787 13.0014L6.89787 16.1514Z" fill="currentColor"/>
</g>
</svg>
