<svg width="130" height="110" viewBox="0 0 130 110" fill="none" xmlns="http://www.w3.org/2000/svg">
<g clip-path="url(#clip0_7369_81697)">
<path d="M47.8921 105.635L30.2734 109.985C32.4218 100.78 37.2825 85.7475 49.0503 70.9552C50.5265 69.101 63.2785 53.4146 84.3417 43.5551C87.7262 41.9708 93.5591 39.4684 101.15 39.2464C108.291 39.0364 112.39 40.9627 113.512 41.5267C115.15 42.3489 118.373 43.9571 120.701 47.4016C121.139 48.0497 124.584 53.3305 123.102 59.7635C122.748 61.2938 122.207 62.4879 121.799 63.2741C120.851 64.5703 119.903 65.8665 118.955 67.1567C118.055 61.9719 115.804 59.1814 114.406 57.8132C107.589 51.1402 93.7031 51.4343 80.6871 59.7815C75.5443 62.692 66.3749 68.7709 58.7118 79.7886C51.5887 90.0321 48.9663 99.9337 47.8981 105.635H47.8921Z" fill="#018941"/>
<path d="M81.5922 4.84285L99.2109 0.492188C97.0626 9.69759 92.2019 24.7299 80.4341 39.5221C78.9578 41.3764 66.2059 57.0628 45.1427 66.9223C41.7582 68.5066 35.9253 71.0089 28.3341 71.231C21.193 71.441 17.0944 69.5147 15.9722 68.9506C14.334 68.1285 11.1115 66.5203 8.78313 63.0757C5.38662 58.047 6.14273 52.5021 6.35276 50.9179C6.67081 48.5115 7.38492 46.5972 7.97301 45.331C8.5491 44.4129 9.12519 43.4947 9.70727 42.5826C10.2834 45.445 11.6216 49.6037 15.0841 52.6641C25.6517 61.9896 46.0068 52.2741 48.8032 50.6958C53.946 47.7854 63.1154 41.7065 70.7786 30.6888C77.9017 20.4452 80.5241 10.5437 81.5922 4.84285Z" fill="#018941"/>
<path d="M111.784 40.8779C119.483 44.4365 123.786 52.2497 122.513 59.5588C121.745 63.9754 119.027 66.9339 118.157 67.834C111.988 74.189 102.836 73.2949 100.574 73.0728C92.6829 72.3047 87.4681 67.9961 82.9974 64.3115C76.6845 59.1027 72.8079 53.2158 70.4675 48.7091C67.8991 44.8205 54.175 24.8615 31.5816 23.1572C26.9909 22.8092 11.9226 21.669 4.43944 31.6365C-0.367289 38.0275 0.160792 46.0507 0.352821 47.845C0.610861 50.2394 1.58901 56.3483 6.40174 61.9531C9.96029 66.0998 14.0169 68.0981 16.2372 69.0042C8.38805 63.5014 5.21356 54.242 8.02799 46.9389C9.87027 42.1501 13.8909 39.5217 15.3251 38.7056C21.8901 34.955 28.9172 36.9233 32.8898 38.0395C38.6927 39.6657 42.5393 42.5702 44.6816 44.2144C50.2984 48.5291 52.1947 52.2677 56.5454 57.8725C59.6599 61.8931 64.5746 67.552 71.8897 73.6369C74.7822 76.8294 82.2113 84.1205 94.0331 86.5389C97.8977 87.331 105.849 88.9573 114.592 85.0207C119.885 82.6383 122.952 79.4098 123.552 78.7497C124.86 77.3095 128.034 73.7269 129.222 68.0921C130.849 60.3689 127.608 54.206 126.732 52.5977C122.039 43.9864 113.548 41.382 111.796 40.8839L111.784 40.8779Z" fill="#01AF3E"/>
</g>
<defs>
<clipPath id="clip0_7369_81697">
<rect width="129.428" height="109.493" fill="white" transform="translate(0.234375 0.492188)"/>
</clipPath>
</defs>
</svg>
