<svg width="25" height="25" viewBox="0 0 25 25" fill="none" xmlns="http://www.w3.org/2000/svg">
<g clip-path="url(#clip0_6361_19633)">
<path d="M12.125 3.57971C11.025 3.57971 10.125 4.47971 10.125 5.57971C10.125 6.67971 11.025 7.57971 12.125 7.57971C13.225 7.57971 14.125 6.67971 14.125 5.57971C14.125 4.47971 13.225 3.57971 12.125 3.57971ZM12.125 17.5797C11.025 17.5797 10.125 18.4797 10.125 19.5797C10.125 20.6797 11.025 21.5797 12.125 21.5797C13.225 21.5797 14.125 20.6797 14.125 19.5797C14.125 18.4797 13.225 17.5797 12.125 17.5797ZM12.125 10.5797C11.025 10.5797 10.125 11.4797 10.125 12.5797C10.125 13.6797 11.025 14.5797 12.125 14.5797C13.225 14.5797 14.125 13.6797 14.125 12.5797C14.125 11.4797 13.225 10.5797 12.125 10.5797Z" fill="currentColor"/>
</g>
<defs>
<clipPath id="clip0_6361_19633">
<rect width="24" height="24" fill="white" transform="translate(0.125 0.579712)"/>
</clipPath>
</defs>
</svg>
