<svg width="130" height="111" viewBox="0 0 130 111" fill="none" xmlns="http://www.w3.org/2000/svg">
<g clip-path="url(#clip0_7369_66520)">
<path d="M81.3579 4.88191L98.9766 0.53125C96.8282 9.73665 91.9675 24.7689 80.1997 39.5612C78.7235 41.4155 65.9715 57.1019 44.9083 66.9614C41.5238 68.5456 35.6909 71.048 28.0997 71.27C20.9587 71.4801 16.86 69.5538 15.7379 68.9897C14.0996 68.1676 10.8771 66.5593 8.54876 63.1148C5.15224 58.086 5.90836 52.5412 6.11839 50.9569C6.43644 48.5506 7.15054 46.6363 7.73863 45.3701C8.31472 44.452 8.89081 43.5338 9.4729 42.6217C10.049 45.4841 11.3872 49.6427 14.8497 52.7032C25.4173 62.0286 45.7724 52.3131 48.5689 50.7349C53.7116 47.8245 62.881 41.7455 70.5442 30.7279C77.6673 20.4843 80.2897 10.5828 81.3579 4.88191Z" fill="#018941" fill-opacity="0.43"/>
</g>
<defs>
<clipPath id="clip0_7369_66520">
<rect width="129.428" height="109.493" fill="white" transform="translate(0 0.53125)"/>
</clipPath>
</defs>
</svg>
