<svg width="130" height="111" viewBox="0 0 130 111" fill="none" xmlns="http://www.w3.org/2000/svg">
<g clip-path="url(#clip0_7369_81691)">
<path d="M47.9468 105.674L30.3281 110.024C32.4765 100.819 37.3372 85.7866 49.105 70.9943C50.5812 69.14 63.3332 53.4536 84.3964 43.5941C87.7809 42.0099 93.6138 39.5075 101.205 39.2855C108.346 39.0754 112.445 41.0017 113.567 41.5658C115.205 42.3879 118.428 43.9962 120.756 47.4407C121.194 48.0888 124.639 53.3696 123.156 59.8026C122.802 61.3328 122.262 62.527 121.854 63.3131C120.906 64.6093 119.958 65.9055 119.01 67.1957C118.11 62.0109 115.859 59.2205 114.461 57.8523C107.644 51.1793 93.7578 51.4733 80.7418 59.8206C75.599 62.731 66.4296 68.81 58.7665 79.8276C51.6434 90.0712 49.021 99.9727 47.9528 105.674H47.9468Z" fill="#018941"/>
<path d="M81.6469 4.88191L99.2656 0.53125C97.1173 9.73665 92.2565 24.7689 80.4887 39.5612C79.0125 41.4155 66.2606 57.1019 45.1974 66.9614C41.8128 68.5456 35.98 71.048 28.3888 71.27C21.2477 71.4801 17.1491 69.5538 16.0269 68.9897C14.3887 68.1676 11.1662 66.5593 8.83782 63.1148C5.4413 58.086 6.19742 52.5412 6.40745 50.9569C6.7255 48.5506 7.43961 46.6363 8.0277 45.3701C8.60378 44.452 9.17987 43.5338 9.76196 42.6217C10.338 45.4841 11.6763 49.6427 15.1388 52.7032C25.7064 62.0286 46.0615 52.3131 48.8579 50.7349C54.0007 47.8245 63.1701 41.7455 70.8333 30.7279C77.9564 20.4843 80.5788 10.5828 81.6469 4.88191Z" fill="#018941"/>
<path d="M111.839 40.917C119.538 44.4755 123.84 52.2887 122.568 59.5978C121.8 64.0145 119.082 66.973 118.211 67.8731C112.043 74.2281 102.891 73.3339 100.629 73.1119C92.7376 72.3438 87.5228 68.0351 83.0521 64.3506C76.7391 59.1418 72.8626 53.2549 70.5222 48.7482C67.9538 44.8596 54.2297 24.9005 31.6363 23.1963C27.0456 22.8482 11.9773 21.7081 4.49413 31.6756C-0.312601 38.0666 0.215479 46.0898 0.407509 47.8841C0.665548 50.2784 1.6437 56.3873 6.45643 61.9922C10.015 66.1388 14.0716 68.1371 16.2919 69.0433C8.44273 63.5404 5.26825 54.281 8.08268 46.9779C9.92496 42.1892 13.9456 39.5608 15.3798 38.7447C21.9448 34.9941 28.9719 36.9624 32.9445 38.0786C38.7474 39.7048 42.5939 42.6092 44.7363 44.2535C50.3531 48.5682 52.2494 52.3067 56.6001 57.9116C59.7146 61.9322 64.6293 67.5911 71.9444 73.676C74.8369 76.8685 82.266 84.1596 94.0878 86.5779C97.9524 87.3701 105.904 88.9963 114.647 85.0597C119.94 82.6774 123.006 79.4489 123.606 78.7888C124.914 77.3485 128.089 73.766 129.277 68.1311C130.903 60.408 127.663 54.245 126.787 52.6368C122.094 44.0255 113.603 41.4211 111.851 40.923L111.839 40.917Z" fill="#01AF3E"/>
</g>
<defs>
<clipPath id="clip0_7369_81691">
<rect width="129.428" height="109.493" fill="white" transform="translate(0.289062 0.53125)"/>
</clipPath>
</defs>
</svg>
