<svg width="25" height="25" viewBox="0 0 25 25" fill="none" xmlns="http://www.w3.org/2000/svg">
<path d="M5.625 11.7328L7.625 9.73281L13.125 15.2328L16.625 11.7328L19.625 14.7328V5.63281H5.625V11.7328ZM5.625 14.5618V19.6328H8.725L11.711 16.6478L7.625 12.5618L5.625 14.5618ZM11.554 19.6328H19.625V17.5618L16.625 14.5618L11.554 19.6328ZM4.625 3.63281H20.625C20.8902 3.63281 21.1446 3.73817 21.3321 3.92571C21.5196 4.11324 21.625 4.3676 21.625 4.63281V20.6328C21.625 20.898 21.5196 21.1524 21.3321 21.3399C21.1446 21.5275 20.8902 21.6328 20.625 21.6328H4.625C4.35978 21.6328 4.10543 21.5275 3.91789 21.3399C3.73036 21.1524 3.625 20.898 3.625 20.6328V4.63281C3.625 4.3676 3.73036 4.11324 3.91789 3.92571C4.10543 3.73817 4.35978 3.63281 4.625 3.63281ZM16.125 10.6328C15.7272 10.6328 15.3456 10.4748 15.0643 10.1935C14.783 9.91217 14.625 9.53064 14.625 9.13281C14.625 8.73499 14.783 8.35346 15.0643 8.07215C15.3456 7.79085 15.7272 7.63281 16.125 7.63281C16.5228 7.63281 16.9044 7.79085 17.1857 8.07215C17.467 8.35346 17.625 8.73499 17.625 9.13281C17.625 9.53064 17.467 9.91217 17.1857 10.1935C16.9044 10.4748 16.5228 10.6328 16.125 10.6328Z" fill="#1C1C1C"/>
</svg>
