<svg width="101" height="41" viewBox="0 0 101 41" fill="none" xmlns="http://www.w3.org/2000/svg">
<path d="M54.1513 3.63567C57.0431 1.12342 61.0478 0.317417 64.7743 0.860275C66.866 1.16644 68.9638 1.95594 70.6943 3.00481C72.4248 4.05373 73.986 5.41087 75.4472 6.75774C76.9084 8.10468 78.3352 9.49286 79.8964 10.7255C81.1463 11.7131 82.4743 12.6093 83.8671 13.3847C84.728 12.472 86.0622 11.339 87.9657 10.5029C90.3022 9.47646 92.4207 9.37018 93.5575 9.39055C95.08 9.41708 97.75 9.48657 99.4072 11.2519L99.4032 11.2499C99.7198 11.5869 100.532 12.4501 100.499 13.6864C100.464 14.9943 99.5113 15.8411 99.3193 16.0107C98.3417 16.878 97.1537 16.9762 96.2109 17.0741C95.7844 17.1186 95.3871 17.1197 95.0273 17.0986C92.4767 17.0801 88.903 16.5474 85.8945 15.4374C84.1181 18.1356 81.4784 22.4434 78.3788 27.8212C77.0034 30.4762 75.6293 33.131 74.2538 35.7861C73.8416 36.384 73.1663 37.2154 72.1357 37.997C71.762 38.2808 70.2696 39.3685 67.829 39.9052C67.2854 40.0241 61.4657 41.2444 59.6825 38.7206C59.3153 38.1981 58.8217 37.0987 58.997 35.8827C59.0501 35.5195 59.0927 35.2068 59.3212 34.8232C60.0048 33.6764 60.6904 32.5315 61.3739 31.3847C60.3985 31.1929 59.3187 31.0068 58.1474 30.8456C56.3519 30.5988 54.9134 30.4903 54.1093 30.4413C53.2236 30.3862 51.4025 30.2947 49.1025 30.3661C47.2318 30.4253 46.3216 30.5493 45.9521 30.6044C45.4786 30.6758 44.5821 30.8105 43.4413 31.1269C42.1782 31.4758 41.5476 31.6538 41.0068 31.913C40.8392 31.9927 40.2084 32.3007 39.3495 32.4374C38.8519 32.517 38.6358 32.4984 38.497 32.372C38.3337 32.223 38.0564 31.7839 38.038 31.2655V31.207C38.038 31.207 38.0355 30.613 38.5722 30.0048C39.4579 29.0007 41.9296 28.582 41.9296 28.582C44.6646 28.1173 46.5896 28.0129 46.5947 28.0126C47.7803 27.9494 49.3006 27.8699 51.3984 27.9189C53.0902 27.9597 55.2233 28.0171 57.956 28.4579C59.2315 28.6641 60.7622 28.9745 62.4765 29.4521C62.8804 28.6952 63.3842 27.7971 63.3886 28.0107L74.7968 27.831C77.5314 23.3596 80.2663 18.8864 83.0009 14.413C83.056 14.3396 83.1182 14.2608 83.1855 14.1757C81.6665 13.3138 80.2319 12.307 78.872 11.2089C77.3455 9.97625 75.9346 8.58862 74.4999 7.27434C73.0653 5.96015 71.6245 4.71896 69.8818 3.71086C68.1391 2.70286 66.1863 2.03321 64.1845 1.80461C60.6743 1.40257 56.8619 2.30544 54.3232 4.87688C52.0477 7.18296 51.0535 10.9559 52.4921 13.9579C52.5539 14.0878 52.5686 14.2313 52.5341 14.3603H62.8564C63.2386 14.3583 63.5336 14.3583 63.5419 14.3583L62.4667 16.328L59.665 16.2909H53.9872C53.224 17.5154 52.4605 18.7383 51.6972 19.9628C51.4503 20.3465 51.1375 20.8367 50.7763 21.4101C49.5766 23.3157 49.5074 23.4937 49.5829 23.6835C49.9162 24.5116 52.5056 24.3213 54.0829 23.9765C54.4094 23.9051 54.7997 23.8174 55.3017 23.6318C56.508 23.1867 58.9506 21.9547 59.4628 21.6425C59.4915 21.6261 59.5666 21.5788 59.6581 21.5888C59.8867 21.6153 60.0133 21.9708 60.0195 21.9872C60.1848 22.4709 59.5681 23.1092 59.2988 23.3847C59.1395 23.548 58.5255 24.1545 57.0419 24.8525C56.448 25.1321 55.5908 25.5278 54.4052 25.7665C53.8175 25.8849 53.3031 25.9321 52.7236 25.9872C52.7112 25.9884 51.9893 26.0547 51.0829 26.079C50.7972 26.0851 50.601 26.083 50.4765 26.081C50.3338 26.0789 50.2134 26.0724 50.0849 26.0663C47.8465 25.9583 46.8202 24.6896 46.8505 24.7255C46.2874 24.0644 45.9527 23.1874 46.1015 22.3652C46.1933 21.859 46.4215 21.4765 46.5868 21.248C47.295 20.1399 48.0056 19.0338 48.7157 17.9257C48.7198 17.3605 48.6056 16.9257 48.5097 16.6523C48.2813 15.9976 48.0137 15.7815 47.9482 15.7323C47.7727 15.6201 47.4953 15.4753 47.1445 15.4589C46.3445 15.4201 45.6581 16.0726 43.9989 18.2929C42.8299 19.8578 42.0116 21.0863 41.8603 21.3154C41.1154 22.4357 40.5343 23.3118 39.8691 24.4198L39.8642 24.4277C39.0254 25.8215 37.9444 27.7668 36.828 30.2402C36.828 30.2402 36.0826 31.6957 36.2275 32.8202C36.2753 33.1798 36.2808 33.22 36.2812 33.2236C36.3934 33.9807 36.4989 34.1139 36.4091 34.2792C36.2763 34.5217 35.881 34.5402 35.5077 34.5566C35.2016 34.5709 34.7256 34.5912 34.2236 34.3075C33.4611 33.8773 33.2529 33.0906 33.2118 32.9345C33.0608 32.3672 33.1645 31.8648 33.2665 31.5097C33.6849 30.0648 35.3317 27.042 35.5419 26.6542C35.7541 26.2645 35.9216 25.95 36.0175 25.7704C36.3848 25.1521 36.8712 24.3417 37.4609 23.3622C37.3794 23.3643 37.2954 23.3688 37.2118 23.3749C36.8567 23.3994 36.5256 23.4566 36.2236 23.5341C36.193 23.5688 36.1643 23.6059 36.1337 23.6405C35.4806 24.3528 34.1209 25.644 31.9804 26.4521C29.6746 27.3213 27.6607 27.1794 26.6933 27.0468C26.2198 26.9346 24.4623 26.4546 23.4296 24.8056C22.2603 22.9404 22.4932 20.3405 24.0624 18.3447C24.5216 17.8243 25.1888 17.1605 26.0907 16.5361C25.8949 16.1058 25.6997 15.9461 25.6445 15.9052C25.4689 15.793 25.1908 15.6481 24.8398 15.6318C24.0399 15.5931 23.3542 16.2466 21.6952 18.4667C20.5261 20.0317 19.7078 21.2603 19.5566 21.4892C18.8117 22.6096 18.2297 23.4855 17.5644 24.5937C16.7256 25.9875 15.6435 27.932 14.5273 30.4052C14.5273 30.4052 13.7828 31.8608 13.9277 32.9853C13.9787 33.3688 13.9804 33.3896 13.9804 33.3896C14.0926 34.1464 14.1991 34.279 14.1093 34.4443C13.9766 34.6871 13.5804 34.7053 13.207 34.7216C12.9008 34.7359 12.4256 34.7561 11.9238 34.4726C11.1606 34.042 10.9519 33.2547 10.9111 33.0995C10.76 32.5322 10.8647 32.0298 10.9667 31.6747C11.3851 30.2301 13.0313 27.2092 13.2421 26.8202C13.4543 26.4306 13.6218 26.1161 13.7177 25.9364C14.3687 24.8447 15.3827 23.1506 16.705 20.9794C16.705 20.9794 18.5112 18.0116 20.3866 15.8769C20.452 15.8034 20.7117 15.544 21.0566 15.1991C21.5892 14.6685 22.4323 13.8786 23.6913 13.6786C24.1154 13.6114 24.4744 13.6298 24.707 13.6542C25.0682 13.6991 25.7641 13.8385 26.3437 14.371C26.4478 14.4669 26.6384 14.6446 26.8017 14.9364C26.9892 15.275 27.0544 15.6259 27.0829 15.9257C27.2318 15.8442 27.3868 15.7649 27.5458 15.6874C28.3825 15.2793 29.7663 14.6257 31.662 14.6093C32.7029 14.6011 34.622 14.5869 36.122 15.9726C36.9444 16.7297 37.2991 17.5993 37.4277 17.9667C37.9134 19.3463 37.6479 20.5447 37.5234 21.0019C37.903 20.9407 38.3259 20.8917 38.7851 20.8652C38.8522 20.8631 38.9153 20.8584 38.9804 20.8564C38.9886 20.8421 38.9976 20.8296 39.0058 20.8154C39.0321 20.7722 40.8257 17.8328 42.6874 15.7138C42.753 15.6401 43.0117 15.3807 43.3564 15.0361C43.889 14.5054 44.732 13.7155 45.9911 13.5155C46.4156 13.4482 46.7751 13.4666 47.0077 13.4911C47.3691 13.5361 48.065 13.6754 48.6445 14.2079C48.7486 14.3039 48.9384 14.4811 49.1015 14.7724C49.3566 15.2316 49.3827 15.7137 49.4052 16.0566C49.4174 16.2606 49.4054 16.5688 49.3769 16.8974C49.5054 16.6954 49.6341 16.4948 49.7626 16.2948C50.1645 15.6828 50.5648 15.071 50.9667 14.4589C50.9749 14.4446 50.9951 14.4072 51.04 14.3827C51.0705 14.3644 51.1037 14.3603 51.12 14.3603H51.5585C51.3891 13.9954 51.2418 13.6203 51.1288 13.2353C50.127 9.80887 51.4984 5.93968 54.1513 3.63567ZM66.4638 30.331L62.456 37.1396C62.3866 37.2885 62.3215 37.4968 62.4072 37.6845C62.8116 38.57 65.9237 38.358 67.4501 37.956V37.9579C71.7622 36.8251 73.5929 31.5496 74.0195 30.2109C71.6501 30.2517 68.8311 30.2902 66.4638 30.331ZM9.46867 14.6405C10.5095 14.6324 12.4277 14.6182 13.9277 16.0038C14.2256 16.2773 14.8629 16.9531 15.2343 17.998C15.9034 19.8835 15.3911 22.0586 13.9404 23.6728V23.6747C13.2873 24.387 11.9279 25.6791 9.78703 26.4872C7.48092 27.3566 5.46629 27.2136 4.49895 27.081C4.02277 26.9685 2.26859 26.489 1.23625 24.8407C0.0668635 22.9754 0.299676 20.3748 1.86907 18.3788C2.54666 17.6074 3.67928 16.5318 5.35246 15.7177C6.1892 15.3095 7.57292 14.6569 9.46867 14.6405ZM66.5019 16.6454C66.525 16.6073 67.9081 14.3302 67.9081 14.6318H79.6445C79.8381 14.6297 80.0093 14.6298 80.1318 14.6298H80.33C80.3248 14.6341 80.2421 14.7421 80.2421 14.7421C80.177 14.8279 77.0453 18.8943 76.9755 18.9863L75.9384 20.5439H68.5712L66.2626 24.0136C66.1465 24.2522 66.1591 24.4113 66.206 24.5195C66.4307 25.0356 67.7506 25.1318 69.5175 24.832C70.5502 24.534 71.7692 24.0945 73.0712 23.4394C73.7485 23.0987 74.3567 22.7462 74.8993 22.3993C75.2055 22.2034 75.6241 22.3933 75.6425 22.7382V22.8046C75.6384 22.8434 75.622 22.8952 75.622 22.9013C75.3654 23.6704 74.1535 24.4291 74.1464 24.4335C73.2974 24.9641 72.8709 25.2316 72.3974 25.454C71.7199 25.7744 70.6834 26.1891 69.3652 26.4462C68.8141 26.5523 68.0055 26.7047 66.9443 26.6659C66.4607 26.6476 66.0157 26.6279 65.4648 26.4667C64.9464 26.3137 64.1957 26.0924 63.6386 25.4394C63.63 25.4293 62.7906 24.442 63.0302 22.9091C63.0363 22.8602 63.0447 22.8214 63.0488 22.7948C63.1243 22.3745 63.2403 22.0295 63.373 21.8173C65.0138 19.1949 64.4073 20.5865 65.7216 18.5029H65.7714C65.8814 18.344 65.9549 18.2685 65.955 18.3437H75.1523L76.453 16.6454H66.5019ZM11.0888 15.5829C9.67034 14.7632 7.14009 16.4841 5.44231 19.4267C3.74452 22.3694 3.51804 25.4178 4.9384 26.2382C6.35679 27.0585 8.88696 25.3382 10.5849 22.3954C12.2828 19.4526 12.5092 16.4033 11.0888 15.5829ZM33.2851 15.5419C31.8667 14.7216 29.3356 16.442 27.6376 19.3847C25.9397 22.3274 25.7135 25.3766 27.1337 26.1972C28.5521 27.0176 31.0832 25.2973 32.7812 22.3544C34.479 19.4116 34.7055 16.3623 33.2851 15.5419ZM93.6005 10.5146C91.8782 10.021 90.2128 10.9701 89.5536 11.3476C88.2783 12.0741 87.5743 13.0133 87.3193 13.3622C87.0687 13.7042 86.7752 14.1272 86.4394 14.6239C89.4566 15.843 92.8276 16.3828 96.0146 15.6591C96.1995 15.5231 96.3623 15.3596 96.4843 15.1601C97.3741 13.705 95.6964 11.1146 93.6005 10.5146Z" fill="#F03F65"/>
</svg>
