<svg width="261" height="103" viewBox="0 0 261 103" fill="none" xmlns="http://www.w3.org/2000/svg">
<path d="M139.824 7.63454C147.342 1.10293 157.753 -0.992646 167.442 0.418719C172.88 1.21464 178.335 3.26777 182.834 5.99489C187.334 8.72216 191.394 12.2508 195.193 15.7527C198.992 19.2547 202.701 22.8633 206.76 26.0681C210.012 28.6375 213.465 30.9742 217.088 32.991C219.326 30.6158 222.798 27.6611 227.756 25.4832C233.831 22.8145 239.339 22.5385 242.294 22.5916C246.253 22.6606 253.194 22.8408 257.502 27.4304L257.492 27.4256C258.314 28.3014 260.425 30.5458 260.34 33.7605C260.25 37.1612 257.773 39.3636 257.274 39.8045C254.732 42.0594 251.644 42.3144 249.193 42.5691C248.125 42.6803 247.128 42.6915 246.22 42.6433C239.584 42.6113 230.23 41.226 222.363 38.325C217.744 45.3407 210.883 56.5358 202.829 70.5105C199.252 77.4137 195.681 84.3173 192.105 91.2205C191.033 92.7751 189.276 94.9345 186.597 96.9666C185.626 97.7041 181.747 100.532 175.401 101.928C173.993 102.236 158.856 105.413 154.219 98.8504C153.264 97.492 151.981 94.6319 152.437 91.4695C152.575 90.5251 152.686 89.713 153.28 88.7156C155.057 85.7338 156.84 82.757 158.618 79.7752C156.081 79.2764 153.274 78.7929 150.229 78.3738C145.56 77.7319 141.82 77.4514 139.729 77.324C137.426 77.1807 132.692 76.942 126.712 77.1277C121.847 77.2816 119.481 77.6045 118.52 77.7478C117.289 77.9335 114.959 78.2839 111.994 79.1062C108.709 80.0135 107.07 80.4754 105.663 81.1492C105.228 81.3561 103.589 82.1569 101.355 82.5125C100.061 82.7193 99.4979 82.6721 99.1371 82.3435C98.7127 81.9562 97.9906 80.8151 97.9428 79.4675V79.3133C97.9428 79.3005 97.9438 77.7629 99.3334 76.1883C101.634 73.58 108.051 72.4919 108.062 72.49C115.182 71.2803 120.192 71.0095 120.192 71.0095C123.275 70.8451 127.228 70.6381 132.682 70.7654C137.081 70.8715 142.626 71.0197 149.731 72.1658C153.047 72.7017 157.027 73.5082 161.484 74.7498C162.534 72.7818 163.844 70.4479 163.855 71.0037L193.516 70.5369C200.626 58.9115 207.736 47.2808 214.846 35.6502C214.987 35.4624 215.144 35.2589 215.316 35.0418C211.365 32.8004 207.633 30.1819 204.096 27.3259C200.127 24.1212 196.461 20.5125 192.731 17.0955C189.001 13.6784 185.254 10.452 180.723 7.83083C176.192 5.20972 171.114 3.46909 165.909 2.87477C156.782 1.82949 146.871 4.1756 140.27 10.8611C134.354 16.8569 131.77 26.6673 135.51 34.4724C135.671 34.8111 135.711 35.1862 135.621 35.5222H162.472C163.47 35.517 164.239 35.5164 164.254 35.5164L161.458 40.6365L154.173 40.5418H139.412C137.427 43.7251 135.443 46.9033 133.458 50.0867C132.816 51.0842 132.004 52.3584 131.065 53.8494C127.946 58.8038 127.765 59.2662 127.961 59.7595C128.826 61.9136 135.559 61.4208 139.661 60.5242C140.509 60.3385 141.524 60.1104 142.829 59.6277C145.965 58.4709 152.316 55.2657 153.648 54.4539C153.722 54.4113 153.918 54.2899 154.157 54.3162C154.749 54.3853 155.079 55.3036 155.096 55.3504C155.526 56.6078 153.924 58.2687 153.223 58.9851C152.809 59.4096 151.212 60.986 147.355 62.8006C145.811 63.5275 143.582 64.5567 140.499 65.1775C138.971 65.4852 137.634 65.6075 136.127 65.7508C136.127 65.7508 134.238 65.9254 131.861 65.989C131.119 66.0049 130.609 66.0002 130.286 65.9949C129.914 65.9896 129.6 65.9737 129.266 65.9578C123.617 65.685 120.936 62.5689 120.856 62.4715C119.392 60.7524 118.522 58.4709 118.909 56.3328C119.147 55.0169 119.742 54.0237 120.171 53.4295C122.012 50.5484 123.86 47.6729 125.706 44.7918C125.717 43.3221 125.42 42.1913 125.17 41.4802C124.577 39.7789 123.882 39.2158 123.711 39.0877C123.255 38.7959 122.533 38.4193 121.621 38.3767C119.541 38.2759 117.757 39.974 113.444 45.7468C110.404 49.8162 108.276 53.0106 107.883 53.6052C105.947 56.5182 104.434 58.7945 102.704 61.6756L102.694 61.697C100.513 65.321 97.7006 70.3776 94.7982 76.8084C94.7982 76.8084 92.861 80.5918 93.2377 83.5154C93.3703 84.5128 93.3764 84.5662 93.3764 84.5662C93.6682 86.5342 93.9437 86.8796 93.7104 87.3093C93.3654 87.9405 92.3355 87.9886 91.3647 88.031C90.5688 88.0682 89.3326 88.1207 88.0277 87.3836C86.0434 86.2641 85.5021 84.2157 85.3959 83.8123C85.0033 82.3374 85.2742 81.0324 85.5395 80.1091C86.6271 76.3528 90.9083 68.4955 91.4555 67.4861C92.0073 66.4727 92.4424 65.6552 92.6918 65.1883C93.6469 63.5805 94.9094 61.4734 96.4428 58.9265C96.2307 58.9318 96.0127 58.9429 95.7953 58.9588C94.8725 59.0224 94.013 59.1713 93.2279 59.3728C93.1485 59.4628 93.0739 59.5582 92.9945 59.6482C91.2967 61.5 87.7624 64.8595 82.1967 66.9607C76.2014 69.2209 70.964 68.8495 68.4486 68.5047C67.2177 68.2128 62.6492 66.9654 59.9643 62.6785C56.9239 57.8288 57.5285 51.069 61.6088 45.8797C62.8027 44.5266 64.538 42.8021 66.8832 41.1785C66.3743 40.06 65.865 39.6455 65.7211 39.5388C65.2648 39.247 64.5428 38.8704 63.6303 38.8279C61.5503 38.7271 59.7672 40.4252 55.4535 46.198C52.4135 50.2673 50.2859 53.4617 49.893 54.0564C47.9564 56.9693 46.444 59.2457 44.7143 62.1267C42.5335 65.7507 39.7211 70.8073 36.8188 77.2381C36.8188 77.2381 34.8825 81.0214 35.2592 83.9451C35.3918 84.9425 35.3969 84.9959 35.3969 84.9959C35.6887 86.964 35.9642 87.3093 35.7309 87.739C35.386 88.3701 34.3569 88.4183 33.3861 88.4607C32.5903 88.4979 31.3534 88.5506 30.0482 87.8133C28.0639 86.6937 27.5226 84.6454 27.4164 84.242C27.0239 82.7671 27.2947 81.462 27.56 80.5388C28.6477 76.7824 32.9289 68.925 33.476 67.9158C34.0278 66.9024 34.4629 66.0849 34.7123 65.6179C36.4049 62.7792 39.0416 58.3748 42.4799 52.7293C42.5037 52.6901 47.1884 45.0006 52.0522 39.4646C52.2222 39.2734 52.8969 38.5994 53.7934 37.7029C55.1783 36.3233 57.3694 34.2697 60.643 33.7498C61.7465 33.5747 62.6807 33.6226 63.2856 33.6863C64.2248 33.8031 66.0338 34.1641 67.5404 35.5486C67.8111 35.798 68.3055 36.2597 68.7299 37.0183C69.2179 37.899 69.3871 38.8117 69.4613 39.5916C69.8486 39.3794 70.2526 39.1721 70.6664 38.9705C72.842 37.9092 76.4397 36.2121 81.3686 36.1697C84.0747 36.1485 89.0625 36.111 92.9623 39.7136C95.1005 41.6822 96.0235 43.9431 96.3578 44.8982C97.6204 48.4848 96.9315 51.5992 96.6078 52.7879C97.5946 52.6287 98.6935 52.5014 99.8871 52.4324C100.062 52.4271 100.226 52.4162 100.396 52.4109C100.417 52.374 100.438 52.3423 100.459 52.3054C100.483 52.2663 105.168 44.5758 110.032 39.0398C110.202 38.8486 110.875 38.1745 111.772 37.2781C113.157 35.8985 115.349 33.8449 118.622 33.325C119.726 33.15 120.66 33.1978 121.265 33.2615C122.204 33.3783 124.013 33.7394 125.52 35.1238C125.791 35.3732 126.284 35.8351 126.708 36.5935C127.372 37.7873 127.441 39.04 127.499 39.9314C127.531 40.4619 127.499 41.2629 127.425 42.117C127.759 41.5919 128.094 41.0723 128.428 40.5525C129.473 38.9607 130.514 37.3679 131.559 35.7761C131.58 35.7385 131.633 35.6431 131.749 35.5799C131.829 35.5323 131.914 35.5222 131.956 35.5222H133.083C132.642 34.5724 132.259 33.5968 131.965 32.5945C129.36 23.6857 132.926 13.6251 139.824 7.63454ZM191.495 76.7244C185.334 76.8305 178.006 76.9308 171.851 77.0369L161.43 94.7381C161.25 95.1254 161.08 95.6669 161.303 96.155C162.355 98.4574 170.446 97.9054 174.414 96.8601V96.866C185.625 93.9209 190.385 80.2057 191.495 76.7244ZM23.6703 36.2429C26.3765 36.2217 31.3643 36.1843 35.2641 39.7869C36.0388 40.498 37.694 42.255 38.6596 44.9715C40.3997 49.8741 39.0686 55.5303 35.2963 59.7273V59.7322C33.5984 61.584 30.0642 64.9435 24.4984 67.0447C18.5031 69.3049 13.2657 68.9335 10.7504 68.5886C9.51413 68.2968 4.95093 67.0494 2.26602 62.7625C-0.77431 57.9128 -0.169657 51.1529 3.91055 45.9636C5.67218 43.958 8.61732 41.1608 12.9682 39.0437C15.1437 37.9825 18.7414 36.2854 23.6703 36.2429ZM171.942 41.4549C171.977 41.3965 175.598 35.4318 175.598 36.2185H206.113C206.617 36.2132 207.063 36.2127 207.381 36.2127H207.896C207.891 36.2127 207.673 36.4969 207.667 36.5047C207.517 36.7031 199.325 47.3398 199.172 47.5418L196.477 51.5896H177.323L171.321 60.6101C171.018 61.2309 171.05 61.6453 171.172 61.9265C171.756 63.2686 175.19 63.518 179.785 62.7381C182.469 61.9634 185.637 60.822 189.022 59.1189C190.783 58.2328 192.365 57.3148 193.777 56.4129C194.573 55.9042 195.66 56.3974 195.707 57.2937V57.4685C195.697 57.5693 195.655 57.7026 195.655 57.7185C194.992 59.7078 191.87 61.6709 191.819 61.7029C189.612 63.0824 188.502 63.7779 187.271 64.3562C185.509 65.1892 182.814 66.2668 179.386 66.9353C177.954 67.2112 175.852 67.6093 173.093 67.5086C171.836 67.4608 170.679 67.4071 169.246 66.9881C167.899 66.5901 165.946 66.0169 164.497 64.3191C164.488 64.3078 162.292 61.737 162.916 57.74C162.932 57.6127 162.954 57.5111 162.964 57.4422C163.161 56.3493 163.463 55.4529 163.808 54.9011C168.074 48.0831 166.498 51.7014 169.915 46.284H170.042C170.329 45.8702 170.52 45.6737 170.52 45.8699H194.434L197.814 41.4549H171.942ZM27.8832 38.6941C24.1955 36.5612 17.6162 41.0341 13.2016 48.6853C8.78692 56.3367 8.198 64.2642 11.891 66.3972C15.5788 68.5296 22.1582 64.0568 26.5727 56.406C30.9871 48.7549 31.5759 40.8273 27.8832 38.6941ZM85.5873 38.5945C81.8996 36.4615 75.3193 40.9345 70.9047 48.5857C66.4903 56.2367 65.9016 64.1633 69.5941 66.2966C73.2819 68.4293 79.8612 63.9566 84.2758 56.3054C88.69 48.6547 89.2794 40.7282 85.5873 38.5945ZM242.406 25.5154C237.928 24.2316 233.598 26.6987 231.884 27.6804C228.568 29.5693 226.737 32.0093 226.074 32.9168C225.419 33.8102 224.649 34.9151 223.771 36.2146C231.62 39.3851 240.393 40.7791 248.683 38.8924C249.164 38.5386 249.586 38.1107 249.904 37.5916C252.217 33.8084 247.855 27.0755 242.406 25.5154Z" fill="#FEFEFE"/>
</svg>
