<svg width="88" height="36" viewBox="0 0 88 36" fill="none" xmlns="http://www.w3.org/2000/svg">
<path d="M47.2065 3.1583C49.7513 0.947656 53.2749 0.238236 56.5542 0.715921C58.395 0.985306 60.2412 1.68052 61.7641 2.60362C63.287 3.52671 64.6609 4.72106 65.9467 5.90635C67.2326 7.09163 68.4879 8.31284 69.8618 9.39756C70.9629 10.2677 72.1336 11.0565 73.3608 11.7394C74.1184 10.9356 75.2936 9.9371 76.9712 9.2003C79.0274 8.297 80.8917 8.20284 81.8921 8.2208C83.2319 8.24415 85.5804 8.30615 87.0385 9.85948L87.0356 9.85752C87.3142 10.1541 88.0282 10.9141 87.9995 12.0021C87.9688 13.1529 87.1302 13.8979 86.9614 14.047C86.1012 14.8102 85.0557 14.8963 84.226 14.9825C83.8579 15.0209 83.5144 15.0234 83.2026 15.006C80.9581 14.9931 77.8024 14.525 75.146 13.546C73.5828 15.9206 71.26 19.7102 68.5337 24.4405C67.3233 26.7769 66.1141 29.113 64.9038 31.4493C64.541 31.9755 63.9473 32.7069 63.0405 33.3946C62.7118 33.6443 61.3983 34.601 59.2505 35.0733C58.7734 35.1777 53.6511 36.2533 52.0815 34.0323C51.7583 33.5726 51.3237 32.6045 51.478 31.5343C51.5247 31.2146 51.562 30.9393 51.7631 30.6017C52.3648 29.5924 52.9682 28.5846 53.5698 27.5753C52.7115 27.4065 51.7616 27.2435 50.7309 27.1017C49.1508 26.8844 47.8849 26.7893 47.1772 26.7462C46.3978 26.6977 44.7957 26.617 42.7719 26.6798C41.1251 26.7319 40.3236 26.8413 39.9985 26.8897C39.5818 26.9526 38.7933 27.0714 37.7895 27.3497C36.678 27.6568 36.1228 27.813 35.6469 28.0411C35.4993 28.1113 34.9445 28.3818 34.1889 28.5021C33.7509 28.5721 33.5601 28.5567 33.438 28.4454C33.2943 28.3143 33.0499 27.9279 33.0337 27.4718V27.419C33.0337 27.4015 33.0402 26.8874 33.5044 26.3614C34.2771 25.4855 36.4217 25.1167 36.4585 25.1105C38.8484 24.7044 40.5358 24.61 40.5639 24.6085C41.6073 24.5528 42.9455 24.4834 44.7915 24.5265C46.2802 24.5624 48.1573 24.6122 50.562 25.0001C51.6844 25.1815 53.0319 25.4549 54.5405 25.8751C54.8961 25.2088 55.3396 24.419 55.3432 24.6075L65.3823 24.4493C67.7888 20.5145 70.1945 16.5774 72.601 12.6407C72.6488 12.5771 72.703 12.5092 72.7612 12.4356C71.4229 11.6767 70.1584 10.7907 68.9604 9.82334C67.6171 8.73862 66.3762 7.51701 65.1137 6.36045C63.8512 5.20389 62.583 4.11189 61.0493 3.22471C59.5158 2.33767 57.7972 1.74914 56.0356 1.54795C52.9466 1.19416 49.591 1.98726 47.3569 4.2501C45.3545 6.27948 44.4804 9.60052 45.7465 12.2423C45.8008 12.3564 45.8139 12.4825 45.7837 12.5958H54.8735C55.2147 12.594 55.477 12.5948 55.477 12.5948L54.5307 14.3272L52.0649 14.295H47.0688C46.3972 15.3725 45.7248 16.448 45.0532 17.5255C44.8359 17.8631 44.5614 18.2944 44.2436 18.7989C43.1876 20.4763 43.1264 20.6329 43.1928 20.7999C43.4856 21.529 45.7645 21.3622 47.1528 21.0587C47.4401 20.9958 47.7833 20.9184 48.2251 20.755C49.2864 20.3635 51.4364 19.2788 51.8872 19.004C51.9124 18.9896 51.9785 18.9483 52.059 18.9571C52.2602 18.9805 52.372 19.2934 52.3774 19.3077C52.5224 19.7331 51.9808 20.2946 51.7436 20.5372C51.6035 20.6809 51.0628 21.215 49.7573 21.8292C49.2347 22.0752 48.4803 22.4238 47.437 22.6339C46.9198 22.7381 46.4665 22.7788 45.9565 22.8272C45.9403 22.8287 45.3072 22.887 44.5131 22.9083C44.262 22.9137 44.0895 22.9121 43.9799 22.9103C43.8544 22.9085 43.7482 22.9029 43.6352 22.8976C41.7292 22.8056 40.8211 21.7571 40.7885 21.7179C40.2929 21.136 39.9983 20.3635 40.1294 19.6397C40.2101 19.1945 40.4107 18.8585 40.5561 18.6573C41.1793 17.6821 41.8052 16.7087 42.4301 15.7335C42.4337 15.2364 42.3329 14.854 42.2485 14.6134C42.0474 14.0369 41.8118 13.8459 41.7544 13.8028C41.6 13.7041 41.3559 13.5771 41.0473 13.5626C40.3434 13.5285 39.7397 14.103 38.2797 16.0567C37.2507 17.4342 36.5298 18.5158 36.3969 18.7169C35.7415 19.7027 35.2294 20.4733 34.644 21.4483L34.6411 21.4552C33.903 22.6818 32.9506 24.3938 31.9682 26.5704C31.9555 26.5953 31.3147 27.8602 31.4409 28.8399C31.4827 29.1545 31.4864 29.1918 31.4868 29.1954C31.5856 29.8617 31.6791 29.9787 31.6001 30.1241C31.4833 30.3378 31.1347 30.3539 30.8061 30.3683C30.5368 30.3808 30.1186 30.3988 29.6772 30.1495C29.0055 29.7706 28.8225 29.077 28.7866 28.9405C28.6538 28.4415 28.7447 28 28.8344 27.6876C29.2025 26.4164 30.6518 23.7574 30.8374 23.4151C31.0241 23.0721 31.1709 22.7949 31.2553 22.6368C31.5786 22.0927 32.0059 21.3797 32.5249 20.5177C32.4532 20.5195 32.3796 20.523 32.3061 20.5284C31.9936 20.55 31.7028 20.6008 31.437 20.669C31.4101 20.6995 31.3847 20.7314 31.3579 20.7618C30.7832 21.3885 29.5872 22.5252 27.7036 23.2364C25.6744 24.0014 23.9016 23.8766 23.0503 23.7599C22.6336 23.6611 21.0869 23.2383 20.1782 21.7872C19.1494 20.1458 19.3539 17.8579 20.7348 16.1017C21.1388 15.6438 21.7263 15.0603 22.52 14.5108C22.3476 14.132 22.176 13.9912 22.1274 13.9552C21.973 13.8564 21.7283 13.7293 21.4194 13.7149C20.7154 13.6808 20.1118 14.2553 18.6518 16.2091C17.6229 17.5863 16.903 18.6678 16.77 18.8692C16.1145 19.8551 15.6025 20.6256 15.017 21.6007C14.2789 22.8273 13.3266 24.5393 12.3442 26.7159C12.33 26.7439 11.6908 28.0069 11.8169 28.9855C11.8593 29.3043 11.8634 29.3382 11.8637 29.3409C11.9625 30.0072 12.0551 30.1242 11.976 30.2696C11.8592 30.4831 11.5115 30.4994 11.1831 30.5138C10.9137 30.5263 10.4949 30.5446 10.0532 30.295C9.38151 29.9161 9.19848 29.2225 9.16256 29.086C9.02976 28.5871 9.12067 28.1456 9.21041 27.8331C9.57845 26.562 11.0276 23.9033 11.2133 23.5606C11.4001 23.2176 11.5469 22.9404 11.6313 22.7823C12.2042 21.8215 13.0974 20.3309 14.2612 18.42C14.2812 18.3872 15.8606 15.7973 17.5004 13.9308C17.5579 13.8661 17.7859 13.6375 18.0893 13.3341C18.558 12.8671 19.3006 12.1722 20.4087 11.9962C20.7818 11.937 21.0975 11.9532 21.3022 11.9747C21.6201 12.0142 22.2326 12.1368 22.7426 12.6056C22.8342 12.69 23.0013 12.8459 23.145 13.1026C23.3102 13.4008 23.3679 13.7097 23.393 13.9737C23.5241 13.9019 23.6611 13.832 23.8012 13.7638C24.5376 13.4046 25.7551 12.8299 27.4233 12.8155C28.3392 12.8083 30.0272 12.7955 31.3471 14.0147C32.0709 14.681 32.3834 15.4464 32.4965 15.7696C32.9238 16.9833 32.6901 18.037 32.5805 18.4396C32.9146 18.3857 33.2868 18.3428 33.6909 18.3194C33.75 18.3176 33.8055 18.3144 33.8628 18.3126C33.8699 18.3 33.878 18.289 33.8852 18.2765C33.9047 18.2444 35.4843 15.6541 37.1245 13.7872C37.1819 13.7226 37.4099 13.494 37.7133 13.1905C38.182 12.7237 38.9239 12.0288 40.0317 11.8526C40.4051 11.7934 40.7215 11.8096 40.9262 11.8312C41.244 11.8707 41.8567 11.9925 42.3667 12.461C42.4583 12.5454 42.6253 12.7023 42.769 12.9591C42.9935 13.3631 43.0168 13.7873 43.0366 14.089C43.0473 14.2685 43.0363 14.5394 43.0112 14.8282C43.1243 14.6505 43.2379 14.4749 43.351 14.2989C43.7048 13.7602 44.0569 13.2214 44.4106 12.6827C44.4178 12.6702 44.4358 12.6379 44.4751 12.6163C44.502 12.6001 44.531 12.5958 44.5454 12.5958H44.9253C44.7762 12.2747 44.6457 11.9453 44.5463 11.6065C43.6646 8.59124 44.8718 5.18586 47.2065 3.1583ZM58.0493 26.6495L54.5219 32.6397C54.4609 32.7707 54.4038 32.9541 54.479 33.1192C54.8345 33.8986 57.5731 33.7123 58.9165 33.3585V33.3605C62.7112 32.3637 64.3224 27.7212 64.6977 26.5431C62.6127 26.579 60.1325 26.6136 58.0493 26.6495ZM7.89303 12.8409C8.80903 12.8337 10.4971 12.8209 11.8169 14.0401C12.0791 14.2808 12.6394 14.8756 12.9663 15.795C13.5552 17.4543 13.1043 19.3687 11.8276 20.7892V20.7911C11.2529 21.4179 10.0562 22.5545 8.17232 23.2657C6.1434 24.0305 4.37133 23.9049 3.51998 23.7882C3.10154 23.6894 1.55664 23.2676 0.647909 21.8165C-0.381096 20.1751 -0.176323 17.8873 1.20455 16.131C1.80074 15.4522 2.79755 14.5057 4.26998 13.7892C5.0063 13.43 6.22463 12.8553 7.89303 12.8409ZM58.0786 14.6056C58.0786 14.6056 59.3144 12.5674 59.3159 12.8321H69.644C69.8146 12.8303 69.9659 12.8312 70.0737 12.8312H70.2475C70.243 12.8349 70.1704 12.9298 70.1704 12.9298C70.1176 12.9994 67.3484 16.5951 67.2954 16.6651L66.3823 18.0353H59.8999L57.8686 21.088C57.7664 21.2978 57.7767 21.4381 57.8178 21.5333C58.0154 21.9877 59.1776 22.0727 60.7329 21.8087C61.6416 21.5465 62.714 21.1606 63.8598 20.5841C64.4558 20.2843 64.9906 19.9733 65.4682 19.6681C65.7376 19.4957 66.1064 19.6624 66.1225 19.9659V20.0255C66.1189 20.0593 66.1042 20.1036 66.104 20.1095C65.8796 20.7824 64.8245 21.4466 64.8061 21.4581C64.0591 21.925 63.6837 22.1608 63.2671 22.3565C62.6708 22.6385 61.7582 23.0023 60.5981 23.2286C60.1132 23.322 59.4021 23.4571 58.4682 23.423C58.0427 23.4068 57.6512 23.389 57.1665 23.2472C56.7104 23.1125 56.0493 22.9184 55.559 22.3439C55.559 22.3439 54.812 21.4722 55.0239 20.1163C55.0292 20.0738 55.0359 20.0399 55.0395 20.0167C55.1059 19.6468 55.2089 19.3431 55.3256 19.1564C56.7695 16.8487 56.2356 18.0728 57.3921 16.2394H57.436C57.5329 16.0995 57.5971 16.0333 57.5971 16.0997H65.6909L66.8354 14.6056H58.0786ZM9.31881 13.67C8.07065 12.9481 5.84327 14.4622 4.34908 17.0519C2.8549 19.6415 2.65578 22.325 3.90572 23.047C5.15391 23.7687 7.38132 22.2547 8.87545 19.6651C10.3696 17.0755 10.5686 14.392 9.31881 13.67ZM28.851 13.6358C27.6029 12.9139 25.3755 14.428 23.8813 17.0177C22.3872 19.6073 22.188 22.2909 23.4379 23.0128C24.6861 23.7346 26.9135 22.2206 28.4077 19.631C29.9018 17.0413 30.1009 14.3579 28.851 13.6358ZM81.9292 9.21104C80.4135 8.77654 78.9477 9.61123 78.3676 9.94346C77.2457 10.5826 76.6264 11.4087 76.4018 11.7159C76.1805 12.0179 75.9213 12.3921 75.6245 12.8312C78.2816 13.9037 81.2504 14.3764 84.0561 13.7364C84.218 13.617 84.3604 13.4728 84.4672 13.298C85.2498 12.0174 83.7734 9.73899 81.9292 9.21104Z" fill="#018941"/>
</svg>
