<svg width="293" height="91" viewBox="0 0 293 91" fill="none" xmlns="http://www.w3.org/2000/svg">
<path d="M115.34 44.0361C117.291 40.7906 118.995 38.2254 121.177 34.9394C121.621 34.2715 124.02 30.6713 127.444 26.0855C132.305 19.5769 134.313 17.6681 136.658 17.7799C137.684 17.8292 138.502 18.2516 139.013 18.5807C139.207 18.725 139.989 19.3586 140.655 21.2744C140.934 22.077 141.269 23.3478 141.262 25.0031C139.182 28.2477 137.102 31.4923 135.022 34.7379C134.537 35.4076 133.869 36.5234 133.602 38.0063C133.168 40.4157 134.146 42.9854 135.798 44.9232C135.7 44.8088 138.711 48.5366 145.276 48.8516C145.65 48.8692 146.005 48.8859 146.426 48.8956C146.787 48.9035 147.365 48.9097 148.204 48.8868C150.881 48.8147 153.013 48.6149 153.013 48.6149C154.713 48.4565 156.218 48.3157 157.941 47.9698C161.415 47.272 163.926 46.1086 165.665 45.2902C170.012 43.2432 171.811 41.4683 172.281 40.9895C173.073 40.1834 174.875 38.3081 174.388 36.893C174.372 36.8446 174.001 35.8044 173.332 35.7244C173.062 35.6927 172.839 35.8291 172.76 35.8775C171.26 36.7901 164.101 40.4034 160.567 41.7094C159.095 42.2532 157.954 42.5076 156.997 42.7179C152.377 43.7299 144.789 44.2852 143.813 41.8555C143.589 41.2975 143.793 40.7783 147.312 35.1955C148.37 33.5173 149.287 32.0793 150.007 30.9573C152.243 27.3721 154.48 23.786 156.716 20.2008H173.351L181.56 20.3064L184.709 14.5344C184.709 14.5344 183.836 14.5326 182.701 14.5423L182.705 14.537H148.316C148.267 14.5405 148.175 14.552 148.08 14.603C147.945 14.6752 147.887 14.7808 147.867 14.8221C146.691 16.6147 145.515 18.4082 144.339 20.2008C143.962 20.7887 143.586 21.3756 143.209 21.9635C143.292 20.9999 143.331 20.0952 143.293 19.4986C143.229 18.4909 143.15 17.0811 142.4 15.7374C141.923 14.8829 141.364 14.361 141.061 14.0829C139.362 12.5244 137.323 12.1126 136.266 11.985C135.584 11.9128 134.534 11.86 133.29 12.0571C129.601 12.6406 127.129 14.955 125.569 16.5135C124.556 17.5247 123.798 18.285 123.608 18.5015C118.113 24.7567 112.819 33.4486 112.819 33.4486C112.795 33.4882 112.771 33.5278 112.747 33.5674C112.559 33.5754 112.369 33.5833 112.176 33.5947C110.831 33.6704 109.593 33.8165 108.481 33.996C108.848 32.6593 109.621 29.1453 108.198 25.1025C107.821 24.028 106.781 21.4812 104.375 19.2583C99.9782 15.1961 94.361 15.2419 91.3109 15.2665C85.7562 15.3123 81.6993 17.2299 79.2485 18.4214C78.7821 18.6485 78.3306 18.8817 77.8923 19.121C77.8061 18.2454 77.6187 17.2167 77.0651 16.2231C76.5882 15.3686 76.0285 14.8468 75.7257 14.5687C74.0264 13.0102 71.9874 12.5983 70.9305 12.4707C70.2485 12.3986 69.1986 12.3458 67.9552 12.5429C64.2661 13.1263 61.7941 15.4408 60.2339 16.9993C59.221 18.0104 58.4624 18.7708 58.2723 18.9873C52.7775 25.2424 47.4842 33.9344 47.4842 33.9344C43.6112 40.2943 40.6358 45.262 38.7297 48.4582C38.4508 48.9819 37.9579 49.9032 37.3367 51.0446C36.7198 52.179 31.8955 61.0346 30.6679 65.2719C30.366 66.313 30.0668 67.7844 30.5051 69.4441C30.6256 69.899 31.2346 72.2065 33.4734 73.4702C34.9465 74.3018 36.3361 74.2428 37.2372 74.2023C38.332 74.1522 39.4918 74.0994 39.8773 73.3892C40.1395 72.9069 39.8315 72.5136 39.4997 70.2977C39.4997 70.2977 39.4909 70.2387 39.3457 69.1114C38.9216 65.814 41.1049 61.5512 41.1049 61.5512C44.3768 54.3068 47.5466 48.607 50.0019 44.5228C51.9529 41.2773 53.6566 38.712 55.8391 35.426C56.2826 34.7581 58.6824 31.1579 62.1066 26.5722C66.9669 20.0635 68.9751 18.1548 71.3204 18.2665C72.3465 18.3158 73.164 18.7382 73.6753 19.0674C73.8372 19.1879 74.4101 19.6508 74.9821 20.9172C72.3394 22.7494 70.384 24.688 69.0394 26.2149C64.443 32.0626 63.7619 39.6809 67.1834 45.1441C70.2098 49.9763 75.3544 51.379 76.7422 51.7108C79.5758 52.0989 85.4799 52.5195 92.2367 49.9692C98.5103 47.602 102.492 43.8161 104.406 41.7287C104.496 41.6275 104.579 41.5219 104.667 41.4199C105.552 41.1946 106.519 41.0256 107.562 40.9517C107.809 40.9341 108.051 40.9244 108.292 40.9182C106.561 43.7897 105.141 46.164 104.063 47.9716C103.784 48.4952 103.291 49.4166 102.67 50.558C102.053 51.6923 97.229 60.5479 96.0014 64.7852C95.6995 65.8263 95.4003 67.2977 95.8386 68.9574C95.9592 69.4124 96.5681 71.7198 98.8069 72.9835C100.28 73.8151 101.67 73.7562 102.571 73.7157C103.665 73.6655 104.825 73.6127 105.211 72.9025C105.473 72.4203 105.165 72.0269 104.833 69.811C104.833 69.811 104.824 69.7521 104.679 68.6248C104.255 65.3273 106.438 61.0645 106.438 61.0645C109.71 53.8202 112.88 48.1203 115.335 44.0361H115.34ZM94.5758 37.9834C89.5984 46.6049 82.1895 51.6465 78.0279 49.2441C73.8663 46.8416 74.528 37.9042 79.5054 29.2826C84.4828 20.6611 91.8917 15.6194 96.0533 18.0219C100.215 20.4243 99.5531 29.3618 94.5758 37.9834Z" fill="#F03F65"/>
<path d="M39.377 41.852C43.6257 37.1228 45.1288 30.7462 43.1681 25.225C42.0804 22.1616 40.2165 20.186 39.3444 19.3807C34.9469 15.3186 29.3306 15.3643 26.2805 15.389C20.7267 15.4339 16.6689 17.3523 14.2172 18.5438C9.31637 20.9269 5.99693 24.0827 4.00985 26.3382C-0.586492 32.1859 -1.26763 39.8042 2.15389 45.2674C5.18027 50.0996 10.3249 51.5023 11.7127 51.8341C14.5463 52.2222 20.4504 52.6428 27.2072 50.0925C33.4817 47.7253 37.4629 43.9394 39.377 41.852ZM29.5436 38.1049C24.5662 46.7265 17.1573 51.7681 12.9957 49.3656C8.83412 46.9632 9.49589 38.0257 14.4733 29.4042C19.4507 20.7826 26.8596 15.741 31.0212 18.1434C35.1828 20.5459 34.521 29.4834 29.5436 38.1049Z" fill="#F03F65"/>
<path d="M183.256 39.2732C183.243 39.3481 183.223 39.4616 183.2 39.6077C182.497 44.1248 184.981 47.0236 184.981 47.0236C186.612 48.9394 188.815 49.5853 190.331 50.0306C191.947 50.5049 193.248 50.5657 194.668 50.6176C197.778 50.732 200.143 50.2858 201.76 49.9699C205.624 49.2157 208.657 48.0013 210.644 47.0649C212.033 46.4111 213.278 45.6323 215.77 44.0746C215.77 44.0746 219.34 41.8438 220.095 39.5865C220.1 39.5707 220.144 39.4158 220.154 39.3058C220.159 39.2504 220.16 39.1949 220.156 39.1386C220.156 39.1289 220.156 39.1184 220.155 39.1087C220.103 38.0975 218.876 37.5387 217.978 38.1143C216.391 39.1316 214.607 40.1656 212.624 41.1626C208.81 43.0793 205.239 44.365 202.216 45.2424C197.037 46.1242 193.167 45.8391 192.514 44.3272C192.378 44.0113 192.34 43.5449 192.681 42.8461L199.442 32.681H221.027L224.063 28.1216C224.231 27.9025 233.468 15.9043 233.637 15.6852L233.891 15.3552C233.698 15.3552 233.505 15.3552 233.313 15.3552C232.953 15.3552 232.45 15.3578 231.884 15.3631C220.422 15.3614 208.96 15.3596 197.499 15.3578C197.499 14.4673 193.378 21.2601 193.378 21.2601H222.533L218.724 26.234H191.774C191.774 26.0105 191.561 26.2322 191.236 26.7022H191.09C187.238 32.8051 189.013 28.7315 184.205 36.4105C183.817 37.031 183.476 38.0412 183.255 39.2732H183.256Z" fill="#F03F65"/>
<path d="M289.786 5.45862C284.93 0.283226 277.112 0.0834657 272.65 0.00602395C269.317 -0.0520573 263.113 0.257707 256.268 3.26473C248.25 6.78745 243.681 12.1107 241.718 14.7226C233.705 27.8278 225.694 40.934 217.681 54.0392L184.257 54.5681C184.244 53.9415 182.77 56.5702 181.584 58.7887C176.56 57.3868 172.075 56.4821 168.342 55.8793C160.336 54.5857 154.089 54.4203 149.131 54.3023C142.983 54.1563 138.53 54.3895 135.057 54.5787C135.057 54.5787 129.414 54.8867 121.385 56.2463C121.385 56.2463 114.142 57.4731 111.548 60.4141C109.975 62.1979 109.98 63.935 109.98 63.935C109.98 63.9526 109.981 64.0195 109.984 64.1093C110.037 65.6273 110.85 66.9121 111.328 67.3486C111.735 67.7209 112.37 67.7728 113.827 67.5414C116.344 67.1409 118.193 66.2398 118.683 66.0066C120.269 65.2498 122.117 64.7271 125.819 63.7027C129.158 62.7787 131.786 62.3792 133.171 62.1732C134.251 62.0131 136.921 61.6443 142.405 61.4745C149.143 61.2659 154.476 61.5326 157.075 61.6936C159.431 61.8397 163.645 62.1539 168.908 62.8746C172.339 63.3445 175.502 63.8893 178.364 64.4542C176.358 67.8133 174.353 71.1714 172.348 74.5305C171.676 75.656 171.552 76.5721 171.4 77.6334C170.888 81.2001 172.332 84.4228 173.411 85.9496C178.639 93.3462 195.694 89.7662 197.283 89.4169C204.436 87.8425 208.803 84.6551 209.9 83.8235C212.922 81.5328 214.897 79.0969 216.104 77.35C220.132 69.5698 224.16 61.7904 228.188 54.0102C240.168 33.2188 249.807 17.8889 254.383 11.6469C255.13 10.627 257.194 7.87428 260.931 5.74287C262.865 4.63933 267.741 1.85758 272.791 3.30345C278.929 5.06173 283.847 12.6466 281.237 16.9121C279.347 20.0009 274.187 20.2403 273.066 20.2711C273.043 20.8458 273.019 21.4204 272.997 21.9951C274.666 22.4087 277.277 22.8469 280.434 22.5222C283.195 22.238 286.678 21.9502 289.541 19.4078C290.102 18.9088 292.897 16.4281 292.998 12.6C293.093 8.97782 290.715 6.44425 289.789 5.45775L289.786 5.45862ZM196.153 83.6959C191.68 84.8707 182.562 85.4964 181.379 82.8986C181.13 82.3512 181.317 81.7405 181.524 81.2996L193.269 61.3513C200.207 61.2343 208.466 61.1163 215.404 60.9993C214.156 64.9233 208.789 80.3773 196.153 83.6959Z" fill="#F03F65"/>
</svg>
