<svg width="25" height="25" viewBox="0 0 25 25" fill="none" xmlns="http://www.w3.org/2000/svg">
<mask id="mask0_7683_5675" style="mask-type:alpha" maskUnits="userSpaceOnUse" x="0" y="0" width="25" height="25">
<rect x="0.5" y="0.46875" width="24" height="24" fill="#D9D9D9"/>
</mask>
<g mask="url(#mask0_7683_5675)">
<path d="M7.74944 19.9688C6.9866 19.9688 6.3376 19.7011 5.80244 19.1658C5.2671 18.6306 4.99944 17.9816 4.99944 17.2188H2.63419L2.96869 15.7188H5.51494C5.74694 15.3379 6.05944 15.0344 6.45244 14.8082C6.84527 14.5819 7.2776 14.4688 7.74944 14.4688C8.22127 14.4688 8.65369 14.5819 9.04669 14.8082C9.43952 15.0344 9.75202 15.3379 9.98419 15.7188H14.3802L16.5284 6.46875H5.57844L5.63994 6.20725C5.71427 5.84308 5.8921 5.54567 6.17344 5.315C6.45494 5.08417 6.78602 4.96875 7.16669 4.96875H18.4032L17.5359 8.71875H20.0379L22.8937 12.5265L21.9609 17.2188H20.3839C20.3839 17.9816 20.1164 18.6306 19.5812 19.1658C19.0459 19.7011 18.3969 19.9688 17.6342 19.9688C16.8714 19.9688 16.2223 19.7011 15.6869 19.1658C15.1518 18.6306 14.8842 17.9816 14.8842 17.2188H10.4994C10.4994 17.9816 10.2318 18.6306 9.69644 19.1658C9.16127 19.7011 8.51227 19.9688 7.74944 19.9688ZM16.4052 13.5938H21.1437L21.2822 12.886L19.2879 10.2188H17.1917L16.4052 13.5938ZM16.3822 7.05725L16.5284 6.46875L14.3802 15.7188L14.5264 15.1302L16.3822 7.05725ZM1.58594 13.6302L1.96094 12.1302H6.95144L6.57644 13.6302H1.58594ZM3.58594 10.0572L3.96094 8.55725H9.95144L9.57644 10.0572H3.58594ZM7.74944 18.4688C8.09694 18.4688 8.39211 18.3472 8.63494 18.1042C8.87794 17.8614 8.99944 17.5662 8.99944 17.2188C8.99944 16.8713 8.87794 16.5761 8.63494 16.3333C8.39211 16.0903 8.09694 15.9688 7.74944 15.9688C7.40194 15.9688 7.10677 16.0903 6.86394 16.3333C6.62094 16.5761 6.49944 16.8713 6.49944 17.2188C6.49944 17.5662 6.62094 17.8614 6.86394 18.1042C7.10677 18.3472 7.40194 18.4688 7.74944 18.4688ZM17.6342 18.4688C17.9815 18.4688 18.2767 18.3472 18.5197 18.1042C18.7627 17.8614 18.8842 17.5662 18.8842 17.2188C18.8842 16.8713 18.7627 16.5761 18.5197 16.3333C18.2767 16.0903 17.9815 15.9688 17.6342 15.9688C17.2867 15.9688 16.9914 16.0903 16.7484 16.3333C16.5054 16.5761 16.3839 16.8713 16.3839 17.2188C16.3839 17.5662 16.5054 17.8614 16.7484 18.1042C16.9914 18.3472 17.2867 18.4688 17.6342 18.4688Z" fill="currentColor"/>
</g>
</svg>
