<svg width="25" height="25" viewBox="0 0 25 25" fill="none" xmlns="http://www.w3.org/2000/svg">
<mask id="mask0_7683_5300" style="mask-type:alpha" maskUnits="userSpaceOnUse" x="0" y="0" width="25" height="25">
<rect x="0.5" y="0.46875" width="24" height="24" fill="#D9D9D9"/>
</mask>
<g mask="url(#mask0_7683_5300)">
<path d="M5.5 8.3725V19.161C5.5 19.2508 5.52883 19.3246 5.5865 19.3822C5.64417 19.4399 5.71792 19.4688 5.80775 19.4688H19.1923C19.2821 19.4688 19.3558 19.4399 19.4135 19.3822C19.4712 19.3246 19.5 19.2508 19.5 19.161V8.3725H16V15.7668L12.5 14.0168L9 15.7668V8.3725H5.5ZM5.80775 20.9688C5.30908 20.9688 4.88308 20.7922 4.52975 20.439C4.17658 20.0857 4 19.6597 4 19.161V7.4745C4 7.2605 4.03433 7.05633 4.103 6.862C4.1715 6.66783 4.27433 6.48867 4.4115 6.3245L5.8155 4.6265C5.9795 4.41233 6.18458 4.24917 6.43075 4.137C6.67692 4.02483 6.93717 3.96875 7.2115 3.96875H17.7693C18.0436 3.96875 18.3054 4.02483 18.5548 4.137C18.8041 4.24917 19.0108 4.41233 19.175 4.6265L20.5885 6.34375C20.7257 6.50792 20.8285 6.68867 20.897 6.886C20.9657 7.0835 21 7.28933 21 7.5035V19.161C21 19.6597 20.8234 20.0857 20.4703 20.439C20.1169 20.7922 19.6909 20.9688 19.1923 20.9688H5.80775ZM5.8905 6.87275H19.1L18.0095 5.5745C17.9775 5.5425 17.9407 5.51683 17.899 5.4975C17.8573 5.47833 17.8141 5.46875 17.7693 5.46875H7.22125C7.17642 5.46875 7.13308 5.47833 7.09125 5.4975C7.04958 5.51683 7.01275 5.5425 6.98075 5.5745L5.8905 6.87275ZM10.5 8.3725V13.3245L12.5 12.3245L14.5 13.3245V8.3725H10.5Z" fill="currentColor"/>
</g>
</svg>
