<svg width="25" height="25" viewBox="0 0 25 25" fill="none" xmlns="http://www.w3.org/2000/svg">
<mask id="mask0_7379_60490" style="mask-type:alpha" maskUnits="userSpaceOnUse" x="0" y="0" width="25" height="25">
<rect x="0.304688" y="0.71875" width="24" height="24" fill="#D9D9D9"/>
</mask>
<g mask="url(#mask0_7379_60490)">
<path d="M12.3047 21.0439L11.2009 20.0517C9.54327 18.5479 8.17244 17.2556 7.08844 16.1749C6.00444 15.0941 5.14544 14.1322 4.51144 13.2892C3.87744 12.4464 3.43452 11.6774 3.18269 10.9824C2.93069 10.2876 2.80469 9.58252 2.80469 8.86719C2.80469 7.44802 3.28319 6.25985 4.24019 5.30269C5.19735 4.34569 6.38552 3.86719 7.80469 3.86719C8.67769 3.86719 9.50269 4.07135 10.2797 4.47969C11.0567 4.88802 11.7317 5.4736 12.3047 6.23644C12.8777 5.4736 13.5527 4.88802 14.3297 4.47969C15.1067 4.07135 15.9317 3.86719 16.8047 3.86719C18.2239 3.86719 19.412 4.34569 20.3692 5.30269C21.3262 6.25985 21.8047 7.44802 21.8047 8.86719C21.8047 9.58252 21.6787 10.2876 21.4267 10.9824C21.1749 11.6774 20.7319 12.4464 20.0979 13.2892C19.4639 14.1322 18.6065 15.0941 17.5257 16.1749C16.445 17.2556 15.0726 18.5479 13.4084 20.0517L12.3047 21.0439ZM12.3047 19.0172C13.9047 17.5775 15.2214 16.3435 16.2547 15.3152C17.288 14.287 18.1047 13.3938 18.7047 12.6354C19.3047 11.8771 19.7214 11.2037 19.9547 10.6152C20.188 10.0269 20.3047 9.44419 20.3047 8.86719C20.3047 7.86719 19.9714 7.03385 19.3047 6.36719C18.638 5.70052 17.8047 5.36719 16.8047 5.36719C16.015 5.36719 15.2852 5.59119 14.6152 6.03919C13.9454 6.48735 13.4149 7.11077 13.0239 7.90944H11.5854C11.1879 7.10427 10.6559 6.47927 9.98919 6.03444C9.32252 5.5896 8.59435 5.36719 7.80469 5.36719C6.81102 5.36719 5.97927 5.70052 5.30944 6.36719C4.6396 7.03385 4.30469 7.86719 4.30469 8.86719C4.30469 9.44419 4.42135 10.0269 4.65469 10.6152C4.88802 11.2037 5.30469 11.8771 5.90469 12.6354C6.50469 13.3938 7.32135 14.2854 8.35469 15.3104C9.38802 16.3354 10.7047 17.571 12.3047 19.0172Z" fill="currentColor"/>
</g>
</svg>
