<svg width="44" height="42" viewBox="0 0 44 42" fill="none" xmlns="http://www.w3.org/2000/svg">
<g filter="url(#filter0_d_7375_4205)">
<mask id="mask0_7375_4205" style="mask-type:alpha" maskUnits="userSpaceOnUse" x="10" y="9" width="24" height="25">
<rect x="10" y="9.25" width="24" height="24" fill="#D9D9D9"/>
</mask>
<g mask="url(#mask0_7375_4205)">
<path d="M22 29.5767L20.8963 28.5844C19.2386 27.0806 17.8678 25.7883 16.7838 24.7077C15.6997 23.6268 14.8408 22.6649 14.2068 21.8219C13.5728 20.9791 13.1298 20.2102 12.878 19.5152C12.626 18.8203 12.5 18.1152 12.5 17.3999C12.5 15.9807 12.9785 14.7926 13.9355 13.8354C14.8927 12.8784 16.0808 12.3999 17.5 12.3999C18.373 12.3999 19.198 12.6041 19.975 13.0124C20.752 13.4207 21.427 14.0063 22 14.7692C22.573 14.0063 23.248 13.4207 24.025 13.0124C24.802 12.6041 25.627 12.3999 26.5 12.3999C27.9192 12.3999 29.1073 12.8784 30.0645 13.8354C31.0215 14.7926 31.5 15.9807 31.5 17.3999C31.5 18.1152 31.374 18.8203 31.122 19.5152C30.8702 20.2102 30.4272 20.9791 29.7932 21.8219C29.1592 22.6649 28.3018 23.6268 27.221 24.7077C26.1403 25.7883 24.7679 27.0806 23.1038 28.5844L22 29.5767ZM22 27.5499C23.6 26.1102 24.9167 24.8762 25.95 23.8479C26.9833 22.8197 27.8 21.9265 28.4 21.1682C29 20.4098 29.4167 19.7364 29.65 19.1479C29.8833 18.5596 30 17.9769 30 17.3999C30 16.3999 29.6667 15.5666 29 14.8999C28.3333 14.2332 27.5 13.8999 26.5 13.8999C25.7103 13.8999 24.9805 14.1239 24.3105 14.5719C23.6407 15.0201 23.1102 15.6435 22.7192 16.4422H21.2808C20.8833 15.637 20.3512 15.012 19.6845 14.5672C19.0178 14.1223 18.2897 13.8999 17.5 13.8999C16.5063 13.8999 15.6746 14.2332 15.0048 14.8999C14.3349 15.5666 14 16.3999 14 17.3999C14 17.9769 14.1167 18.5596 14.35 19.1479C14.5833 19.7364 15 20.4098 15.6 21.1682C16.2 21.9265 17.0167 22.8182 18.05 23.8432C19.0833 24.8682 20.4 26.1037 22 27.5499Z" fill="#9A9A9A"/>
</g>
</g>
<defs>
<filter id="filter0_d_7375_4205" x="-2" y="-2.75" width="48" height="48" filterUnits="userSpaceOnUse" color-interpolation-filters="sRGB">
<feFlood flood-opacity="0" result="BackgroundImageFix"/>
<feColorMatrix in="SourceAlpha" type="matrix" values="0 0 0 0 0 0 0 0 0 0 0 0 0 0 0 0 0 0 127 0" result="hardAlpha"/>
<feOffset/>
<feGaussianBlur stdDeviation="6"/>
<feComposite in2="hardAlpha" operator="out"/>
<feColorMatrix type="matrix" values="0 0 0 0 0 0 0 0 0 0 0 0 0 0 0 0 0 0 0.08 0"/>
<feBlend mode="normal" in2="BackgroundImageFix" result="effect1_dropShadow_7375_4205"/>
<feBlend mode="normal" in="SourceGraphic" in2="effect1_dropShadow_7375_4205" result="shape"/>
</filter>
</defs>
</svg>
