<svg width="25" height="24" viewBox="0 0 25 24" fill="none" xmlns="http://www.w3.org/2000/svg">
<mask id="mask0_7297_31309" style="mask-type:alpha" maskUnits="userSpaceOnUse" x="0" y="0" width="25" height="24">
<rect x="0.5" width="24" height="24" fill="#D9D9D9"/>
</mask>
<g mask="url(#mask0_7297_31309)">
<path d="M12.3125 20.4307L11.2088 19.4384C9.55108 17.9346 8.18025 16.6423 7.09625 15.5617C6.01225 14.4808 5.15325 13.5189 4.51925 12.6759C3.88525 11.8331 3.44233 11.0642 3.1905 10.3692C2.9385 9.67432 2.8125 8.96924 2.8125 8.25391C2.8125 6.83474 3.291 5.64657 4.248 4.68941C5.20517 3.73241 6.39333 3.25391 7.8125 3.25391C8.6855 3.25391 9.5105 3.45807 10.2875 3.86641C11.0645 4.27474 11.7395 4.86032 12.3125 5.62316C12.8855 4.86032 13.5605 4.27474 14.3375 3.86641C15.1145 3.45807 15.9395 3.25391 16.8125 3.25391C18.2317 3.25391 19.4198 3.73241 20.377 4.68941C21.334 5.64657 21.8125 6.83474 21.8125 8.25391C21.8125 8.96924 21.6865 9.67432 21.4345 10.3692C21.1827 11.0642 20.7397 11.8331 20.1057 12.6759C19.4717 13.5189 18.6143 14.4808 17.5335 15.5617C16.4528 16.6423 15.0804 17.9346 13.4163 19.4384L12.3125 20.4307Z" fill="#F03F65"/>
</g>
</svg>
