<svg width="25" height="25" viewBox="0 0 25 25" fill="none" xmlns="http://www.w3.org/2000/svg">
<mask id="mask0_7647_7145" style="mask-type:alpha" maskUnits="userSpaceOnUse" x="0" y="0" width="25" height="25">
<rect x="0.117188" y="0.25" width="24" height="24" fill="#D9D9D9"/>
</mask>
<g mask="url(#mask0_7647_7145)">
<path d="M11.9297 20.6807L10.8259 19.6884C9.16827 18.1846 7.79744 16.8923 6.71344 15.8117C5.62944 14.7308 4.77044 13.7689 4.13644 12.9259C3.50244 12.0831 3.05952 11.3142 2.80769 10.6192C2.55569 9.92432 2.42969 9.21924 2.42969 8.50391C2.42969 7.08474 2.90819 5.89657 3.86519 4.93941C4.82235 3.98241 6.01052 3.50391 7.42969 3.50391C8.30269 3.50391 9.12769 3.70807 9.90469 4.11641C10.6817 4.52474 11.3567 5.11032 11.9297 5.87316C12.5027 5.11032 13.1777 4.52474 13.9547 4.11641C14.7317 3.70807 15.5567 3.50391 16.4297 3.50391C17.8489 3.50391 19.037 3.98241 19.9942 4.93941C20.9512 5.89657 21.4297 7.08474 21.4297 8.50391C21.4297 9.21924 21.3037 9.92432 21.0517 10.6192C20.7999 11.3142 20.3569 12.0831 19.7229 12.9259C19.0889 13.7689 18.2315 14.7308 17.1507 15.8117C16.07 16.8923 14.6976 18.1846 13.0334 19.6884L11.9297 20.6807Z" fill="#FF8539"/>
</g>
</svg>
