<svg width="25" height="25" viewBox="0 0 25 25" fill="none" xmlns="http://www.w3.org/2000/svg">
<mask id="mask0_7647_3446" style="mask-type:alpha" maskUnits="userSpaceOnUse" x="0" y="0" width="25" height="25">
<rect x="0.15625" y="0.25" width="24" height="24" fill="#D9D9D9"/>
</mask>
<g mask="url(#mask0_7647_3446)">
<path d="M12.1562 21.7508C10.9767 21.7508 9.87167 21.5278 8.841 21.0816C7.81017 20.6354 6.91142 20.029 6.14475 19.2623C5.37808 18.4957 4.77167 17.5969 4.3255 16.5661C3.87933 15.5354 3.65625 14.4303 3.65625 13.2508H5.15625C5.15625 15.2008 5.83542 16.855 7.19375 18.2133C8.55208 19.5717 10.2063 20.2508 12.1562 20.2508C14.1062 20.2508 15.7604 19.5717 17.1188 18.2133C18.4771 16.855 19.1562 15.2008 19.1562 13.2508C19.1562 11.3008 18.4771 9.64668 17.1188 8.28834C15.7604 6.93001 14.1062 6.25084 12.1562 6.25084H11.8907L13.4792 7.83934L12.4255 8.92384L9.0025 5.49134L12.4448 2.05859L13.4985 3.14309L11.8907 4.75084H12.1562C13.3357 4.75084 14.4408 4.97393 15.4715 5.42009C16.5023 5.86626 17.4011 6.47268 18.1678 7.23934C18.9344 8.00601 19.5408 8.90476 19.987 9.9356C20.4332 10.9663 20.6562 12.0713 20.6562 13.2508C20.6562 14.4303 20.4332 15.5354 19.987 16.5661C19.5408 17.5969 18.9344 18.4957 18.1678 19.2623C17.4011 20.029 16.5023 20.6354 15.4715 21.0816C14.4408 21.5278 13.3357 21.7508 12.1562 21.7508Z" fill="currentColor"/>
</g>
</svg>
