<svg width="25" height="25" viewBox="0 0 25 25" fill="none" xmlns="http://www.w3.org/2000/svg">
<mask id="mask0_7247_57600" style="mask-type:alpha" maskUnits="userSpaceOnUse" x="0" y="0" width="25" height="25">
<rect x="0.804688" y="0.457031" width="24" height="24" fill="#D9D9D9"/>
</mask>
<g mask="url(#mask0_7247_57600)">
<path d="M8.11244 20.9568C7.61377 20.9568 7.18777 20.7802 6.83444 20.427C6.48127 20.0737 6.30469 19.6477 6.30469 19.149V6.45677H5.30469V4.95677H9.80469V4.07227H15.8047V4.95677H20.3047V6.45677H19.3047V19.149C19.3047 19.6542 19.1297 20.0818 18.7797 20.4318C18.4297 20.7818 18.0021 20.9568 17.4969 20.9568H8.11244ZM17.8047 6.45677H7.80469V19.149C7.80469 19.2388 7.83352 19.3126 7.89119 19.3703C7.94885 19.4279 8.0226 19.4568 8.11244 19.4568H17.4969C17.5739 19.4568 17.6444 19.4247 17.7084 19.3605C17.7726 19.2965 17.8047 19.226 17.8047 19.149V6.45677ZM10.2087 17.4568H11.7084V8.45677H10.2087V17.4568ZM13.9009 17.4568H15.4007V8.45677H13.9009V17.4568Z" fill="currentColor"/>
</g>
</svg>
