<svg width="25" height="25" viewBox="0 0 25 25" fill="none" xmlns="http://www.w3.org/2000/svg">
<path d="M17.75 6.1062H22.75V8.1062H20.75V21.1062C20.75 21.3714 20.6446 21.6258 20.4571 21.8133C20.2696 22.0008 20.0152 22.1062 19.75 22.1062H5.75C5.48478 22.1062 5.23043 22.0008 5.04289 21.8133C4.85536 21.6258 4.75 21.3714 4.75 21.1062V8.1062H2.75V6.1062H7.75V3.1062C7.75 2.84098 7.85536 2.58663 8.04289 2.39909C8.23043 2.21156 8.48478 2.1062 8.75 2.1062H16.75C17.0152 2.1062 17.2696 2.21156 17.4571 2.39909C17.6446 2.58663 17.75 2.84098 17.75 3.1062V6.1062ZM18.75 8.1062H6.75V20.1062H18.75V8.1062ZM9.75 11.1062H11.75V17.1062H9.75V11.1062ZM13.75 11.1062H15.75V17.1062H13.75V11.1062ZM9.75 4.1062V6.1062H15.75V4.1062H9.75Z" fill="#09121F"/>
</svg>
