<svg width="25" height="25" viewBox="0 0 25 25" fill="none" xmlns="http://www.w3.org/2000/svg">
<mask id="mask0_7247_57728" style="mask-type:alpha" maskUnits="userSpaceOnUse" x="0" y="0" width="25" height="25">
<rect x="0.804688" y="0.457031" width="24" height="24" fill="#D9D9D9"/>
</mask>
<g mask="url(#mask0_7247_57728)">
<path d="M5.80469 19.457H7.06619L17.3027 9.22053L16.0412 7.95903L5.80469 18.1955V19.457ZM4.30469 20.957V17.5725L17.4952 4.38778C17.6464 4.25045 17.8133 4.14436 17.9959 4.06953C18.1788 3.99453 18.3704 3.95703 18.5709 3.95703C18.7714 3.95703 18.9656 3.99262 19.1534 4.06378C19.3414 4.13495 19.5079 4.24811 19.6527 4.40328L20.8739 5.63978C21.0291 5.78461 21.1397 5.95128 21.2057 6.13978C21.2717 6.32828 21.3047 6.51678 21.3047 6.70528C21.3047 6.90645 21.2704 7.09837 21.2017 7.28103C21.133 7.46387 21.0238 7.63086 20.8739 7.78203L7.68919 20.957H4.30469ZM16.6609 8.60078L16.0412 7.95903L17.3027 9.22053L16.6609 8.60078Z" fill="currentColor"/>
</g>
</svg>
