<svg width="169" height="169" viewBox="0 0 169 169" fill="none" xmlns="http://www.w3.org/2000/svg">
<path d="M63.7 70.474H75.138V71.426H63.7V70.474ZM68.838 68.92H69.986V70.908H68.838V68.92ZM68.838 63.894H69.986V65.658H68.838V63.894ZM68.782 65.77H69.804V65.966C69.804 66.4887 69.6687 66.9553 69.398 67.366C69.1367 67.7767 68.768 68.1313 68.292 68.43C67.8253 68.7287 67.284 68.9713 66.668 69.158C66.0613 69.3353 65.4127 69.4613 64.722 69.536L64.358 68.64C64.974 68.584 65.548 68.4813 66.08 68.332C66.612 68.1827 67.0787 67.9913 67.48 67.758C67.8907 67.5247 68.208 67.2587 68.432 66.96C68.6653 66.6613 68.782 66.33 68.782 65.966V65.77ZM69.034 65.77H70.042V65.966C70.042 66.33 70.154 66.6613 70.378 66.96C70.6113 67.2587 70.9287 67.5247 71.33 67.758C71.7407 67.9913 72.212 68.1827 72.744 68.332C73.276 68.4813 73.85 68.584 74.466 68.64L74.116 69.536C73.4253 69.4613 72.772 69.3353 72.156 69.158C71.5493 68.9713 71.008 68.7287 70.532 68.43C70.0653 68.1313 69.6967 67.7767 69.426 67.366C69.1647 66.9553 69.034 66.4887 69.034 65.966V65.77ZM64.876 65.154H73.976V66.092H64.876V65.154ZM69.412 72.364C70.7747 72.364 71.834 72.546 72.59 72.91C73.3553 73.2647 73.738 73.7827 73.738 74.464C73.738 75.1453 73.3553 75.6633 72.59 76.018C71.834 76.382 70.7747 76.564 69.412 76.564C68.0493 76.564 66.9853 76.382 66.22 76.018C65.4547 75.6633 65.072 75.1453 65.072 74.464C65.072 73.7827 65.4547 73.2647 66.22 72.91C66.9853 72.546 68.0493 72.364 69.412 72.364ZM69.412 73.246C68.404 73.246 67.6247 73.3533 67.074 73.568C66.5233 73.7733 66.248 74.072 66.248 74.464C66.248 74.856 66.5233 75.1593 67.074 75.374C67.6247 75.5793 68.404 75.682 69.412 75.682C70.4107 75.682 71.1853 75.5793 71.736 75.374C72.296 75.1593 72.576 74.856 72.576 74.464C72.576 74.072 72.296 73.7733 71.736 73.568C71.1853 73.3533 70.4107 73.246 69.412 73.246ZM80.284 73.974H91.764V74.954H80.284V73.974ZM85.394 70.908H86.542V74.296H85.394V70.908ZM85.352 64.762H86.374V65.742C86.374 66.2927 86.276 66.8107 86.08 67.296C85.8933 67.772 85.632 68.22 85.296 68.64C84.96 69.0507 84.5727 69.4193 84.134 69.746C83.7047 70.0727 83.2427 70.348 82.748 70.572C82.2533 70.796 81.7493 70.9593 81.236 71.062L80.732 70.096C81.18 70.0213 81.6233 69.8907 82.062 69.704C82.51 69.508 82.93 69.2747 83.322 69.004C83.714 68.724 84.064 68.416 84.372 68.08C84.68 67.7347 84.918 67.366 85.086 66.974C85.2633 66.5727 85.352 66.162 85.352 65.742V64.762ZM85.562 64.762H86.57V65.742C86.57 66.1713 86.6587 66.582 86.836 66.974C87.0133 67.366 87.256 67.7347 87.564 68.08C87.872 68.416 88.222 68.724 88.614 69.004C89.0153 69.284 89.4353 69.5173 89.874 69.704C90.322 69.8907 90.77 70.0213 91.218 70.096L90.714 71.062C90.2007 70.9593 89.6967 70.796 89.202 70.572C88.7073 70.348 88.2407 70.0727 87.802 69.746C87.3633 69.4193 86.976 69.0507 86.64 68.64C86.304 68.22 86.038 67.7673 85.842 67.282C85.6553 66.7967 85.562 66.2833 85.562 65.742V64.762ZM96.4529 64.524H97.4189V65.756C97.4189 66.5587 97.2696 67.31 96.9709 68.01C96.6816 68.71 96.2662 69.3213 95.7249 69.844C95.1929 70.3573 94.5722 70.7493 93.8629 71.02L93.2749 70.096C93.7509 69.9187 94.1802 69.6853 94.5629 69.396C94.9549 69.0973 95.2909 68.7567 95.5709 68.374C95.8602 67.9913 96.0796 67.576 96.2289 67.128C96.3782 66.68 96.4529 66.2227 96.4529 65.756V64.524ZM96.6629 64.524H97.6289V65.756C97.6289 66.2133 97.7036 66.652 97.8529 67.072C98.0116 67.492 98.2309 67.884 98.5109 68.248C98.7909 68.612 99.1222 68.934 99.5049 69.214C99.8969 69.494 100.326 69.7133 100.793 69.872L100.219 70.796C99.5189 70.5347 98.8982 70.1613 98.3569 69.676C97.8249 69.1813 97.4096 68.598 97.1109 67.926C96.8122 67.254 96.6629 66.5307 96.6629 65.756V64.524ZM95.0809 72.182H103.537V76.592H102.375V73.134H95.0809V72.182ZM102.375 63.922H103.537V71.538H102.375V63.922Z" fill="#414651"/>
<path d="M78.5341 87.2273V110.5H74.3182V91.3295H74.1818L68.7386 94.8068V90.9432L74.5227 87.2273H78.5341ZM85.2955 110.5L95.1932 90.9091V90.75H83.7045V87.2273H99.5568V90.8295L89.6705 110.5H85.2955Z" fill="#414651"/>
<path d="M84.5 1C101.015 1 117.159 5.89719 130.89 15.0723C144.622 24.2474 155.324 37.2883 161.644 52.5459C167.964 67.8036 169.617 84.5926 166.396 100.79C163.174 116.987 155.221 131.866 143.543 143.543L127.011 127.011C135.419 118.603 141.145 107.891 143.465 96.2288C145.785 84.5667 144.594 72.4786 140.044 61.4931C135.493 50.5076 127.788 41.1181 117.901 34.512C108.014 27.906 96.3906 24.38 84.5 24.38V1Z" fill="#14B8A6" stroke="white" stroke-width="2"/>
<path d="M84.5 168C69.8427 168 55.4436 164.142 42.75 156.813L54.44 136.565C63.5794 141.842 73.9467 144.62 84.5 144.62V168Z" fill="#6366F1" stroke="white" stroke-width="2"/>
<path d="M42.75 156.813C30.0564 149.484 19.5155 138.944 12.1869 126.25C4.85822 113.556 0.999999 99.1573 1 84.5H24.38C24.38 95.0533 27.1579 105.421 32.4345 114.56C37.7112 123.699 45.3006 131.289 54.44 136.565L42.75 156.813Z" fill="#EC4899" stroke="white" stroke-width="2"/>
<path d="M1 84.5C1 62.3544 9.7973 41.1159 25.4566 25.4566C41.1159 9.79729 62.3544 1 84.5 1V24.38C68.5552 24.38 53.2634 30.7141 41.9887 41.9887C30.7141 53.2634 24.38 68.5552 24.38 84.5H1Z" fill="#F5E50B" stroke="white" stroke-width="2"/>
<path d="M143.543 143.543C127.884 159.203 106.646 168 84.5 168V144.62C100.445 144.62 115.737 138.286 127.011 127.011L143.543 143.543Z" fill="#3B82F6" stroke="white" stroke-width="2"/>
</svg>
