<svg width="16" height="17" viewBox="0 0 16 17" fill="none" xmlns="http://www.w3.org/2000/svg">
<path d="M1.33398 9.05351V10.5002C1.33398 13.8335 2.66732 15.1668 6.00065 15.1668H10.0007C13.334 15.1668 14.6673 13.8335 14.6673 10.5002V6.50016C14.6673 3.16683 13.334 1.8335 10.0007 1.8335H6.00065C2.66732 1.8335 1.33398 3.16683 1.33398 6.50016" stroke="currentColor" stroke-linecap="round" stroke-linejoin="round"/>
<path d="M6.73954 7.93311H4.97288C4.55288 7.93311 4.21289 8.27307 4.21289 8.69307V12.1064H6.73954V7.93311V7.93311Z" stroke="currentColor" stroke-miterlimit="10" stroke-linecap="round" stroke-linejoin="round"/>
<path d="M8.50576 4.8999H7.49241C7.07241 4.8999 6.73242 5.23991 6.73242 5.65991V12.0999H9.25909V5.65991C9.25909 5.23991 8.92576 4.8999 8.50576 4.8999Z" stroke="currentColor" stroke-miterlimit="10" stroke-linecap="round" stroke-linejoin="round"/>
<path d="M11.0323 9.06641H9.26562V12.0998H11.7923V9.82642C11.7856 9.40642 11.4456 9.06641 11.0323 9.06641Z" stroke="currentColor" stroke-miterlimit="10" stroke-linecap="round" stroke-linejoin="round"/>
</svg>
