<svg width="60" height="63" viewBox="0 0 60 63" fill="none" xmlns="http://www.w3.org/2000/svg">
<path opacity="0.21" d="M37 0C49.7025 0 60 10.2975 60 23V39.2432C59.9999 51.9456 49.7025 62.2432 37 62.2432H23C10.2975 62.2432 9.35379e-05 51.9456 0 39.2432V23C0 10.2975 10.2975 0 23 0H37Z" fill="#FEC53D"/>
<path fill-rule="evenodd" clip-rule="evenodd" d="M15 25.2213L27.9005 32.9478C28.0394 33.031 28.1851 33.0911 28.3333 33.1293V48.1145L15.9201 40.4937C15.3498 40.1436 15 39.5072 15 38.8197V25.2213ZM44.9993 25.0156V38.8195C44.9993 39.5069 44.6496 40.1433 44.0793 40.4934L31.666 48.1142V32.9977C31.6963 32.9821 31.7262 32.9653 31.7559 32.9476L44.9993 25.0156Z" fill="#FEC53D"/>
<path opacity="0.499209" fill-rule="evenodd" clip-rule="evenodd" d="M15.4063 21.4737C15.5638 21.2673 15.7627 21.0928 15.9946 20.9647L29.1196 13.7127C29.6706 13.4083 30.3315 13.4083 30.8825 13.7127L44.0075 20.9647C44.1862 21.0635 44.3454 21.1898 44.4811 21.337L30.0909 29.9558C29.9963 30.0124 29.9091 30.0773 29.8296 30.1489C29.75 30.0773 29.6628 30.0124 29.5682 29.9558L15.4063 21.4737Z" fill="#FEC53D"/>
</svg>
