<svg width="60" height="60" viewBox="0 0 60 60" fill="none" xmlns="http://www.w3.org/2000/svg">
<path opacity="0.3" d="M37 0C49.7025 0 60 10.2975 60 23V37C60 49.7025 49.7025 60 37 60H23C10.2975 60 0 49.7025 0 37V23C0 10.2975 10.2975 0 23 0H37Z" fill="#FF9066"/>
<path opacity="0.78" fill-rule="evenodd" clip-rule="evenodd" d="M28.6299 23.8054C28.65 23.5449 28.8672 23.3438 29.1285 23.3438H29.5463C29.8032 23.3438 30.0183 23.5384 30.0438 23.794L30.6655 30.0104L35.0802 32.5331C35.236 32.6221 35.3321 32.7878 35.3321 32.9672V33.3558C35.3321 33.6855 35.0186 33.9249 34.7006 33.8382L28.3974 32.1191C28.1661 32.056 28.0121 31.8375 28.0305 31.5984L28.6299 23.8054Z" fill="#FF9066"/>
<path opacity="0.901274" d="M21.8525 15.1893C21.9479 14.7897 22.4575 14.6687 22.7217 14.9833L24.5205 17.1278C26.2036 16.4111 28.0552 16.0126 30 16.0126C37.7319 16.0126 43.9998 22.2808 44 30.0126C44 37.7446 37.732 44.0126 30 44.0126C22.268 44.0126 16 37.7446 16 30.0126C16 28.6996 16.1805 27.4286 16.5186 26.2235L19.0859 26.9442C18.8086 27.9331 18.667 28.9621 18.667 30.0126C18.667 36.2718 23.7408 41.3466 30 41.3466C36.2592 41.3466 41.333 36.2718 41.333 30.0126C41.3328 23.7535 36.2591 18.6796 30 18.6796C28.7318 18.6796 27.4968 18.888 26.332 19.286L28.1328 21.4325C28.3974 21.7478 28.1892 22.2295 27.7783 22.2528L20.7334 22.6522C20.3992 22.6711 20.1411 22.3626 20.2188 22.037L21.8525 15.1893Z" fill="#FF9066"/>
</svg>
