<svg width="60" height="63" viewBox="0 0 60 63" fill="none" xmlns="http://www.w3.org/2000/svg">
<path opacity="0.21" d="M37 0C49.7025 0 60 10.2975 60 23V39.4004C59.9998 52.1028 49.7024 62.4004 37 62.4004H23C10.2976 62.4004 0.00021011 52.1028 0 39.4004V23C0 10.2975 10.2975 0 23 0H37Z" fill="#4AD991"/>
<path d="M19.1111 42.5251H42.4444C43.3036 42.5251 44 43.2494 44 44.1428C44 45.0363 43.3036 45.7606 42.4444 45.7606H17.5556C16.6964 45.7606 16 45.0363 16 44.1428V18.2584C16 17.3649 16.6964 16.6406 17.5556 16.6406C18.4147 16.6406 19.1111 17.3649 19.1111 18.2584V42.5251Z" fill="#4AD991"/>
<path opacity="0.5" d="M24.9091 35.5446C24.3216 36.1964 23.3372 36.2294 22.7104 35.6183C22.0836 35.0072 22.0519 33.9834 22.6395 33.3316L28.4728 26.8605C29.0411 26.2301 29.9854 26.1755 30.6174 26.7364L35.2214 30.8223L41.22 22.9201C41.7524 22.2188 42.7306 22.0991 43.4049 22.6528C44.0792 23.2064 44.1942 24.2237 43.6619 24.925L36.6619 34.1463C36.1152 34.8666 35.1024 34.9702 34.4312 34.3745L29.7272 30.1998L24.9091 35.5446Z" fill="#4AD991"/>
</svg>
