<svg width="60" height="60" viewBox="0 0 60 60" fill="none" xmlns="http://www.w3.org/2000/svg">
<path opacity="0.21" d="M37 0C49.7025 0 60 10.2975 60 23V37C60 49.7025 49.7025 60 37 60H23C10.2975 60 0 49.7025 0 37V23C0 10.2975 10.2975 0 23 0H37Z" fill="#8280FF"/>
<path opacity="0.587821" d="M37.9971 24.667C40.2062 24.667 41.9971 26.4579 41.9971 28.667C41.9969 30.876 40.2061 32.667 37.9971 32.667C35.7882 32.6668 33.9972 30.8759 33.9971 28.667C33.9971 26.458 35.7881 24.6672 37.9971 24.667ZM25.9971 18C28.9425 18 31.3309 20.3876 31.3311 23.333C31.3311 26.2785 28.9426 28.667 25.9971 28.667C23.0517 28.6668 20.6641 26.2784 20.6641 23.333C20.6642 20.3877 23.0518 18.0002 25.9971 18Z" fill="#8280FF"/>
<path d="M25.9774 31.3359C32.3611 31.3359 37.6061 34.3934 37.997 40.9355C38.0125 41.1962 37.9966 42.0029 36.995 42.0029H14.9696C14.6351 42.0025 13.9727 41.2811 14.0009 40.9346C14.5178 34.5713 19.6824 31.336 25.9774 31.3359ZM37.4686 34.0049C42.0103 34.0547 45.7187 36.3495 45.9979 41.2021C46.0092 41.3976 45.9977 42.0029 45.2743 42.0029H40.1337C40.1337 39.0022 39.1416 36.233 37.4686 34.0049Z" fill="#8280FF"/>
</svg>
