<svg width="16" height="17" viewBox="0 0 16 17" fill="none" xmlns="http://www.w3.org/2000/svg">
<path d="M8 11C6.62 11 5.5 9.88 5.5 8.5C5.5 7.12 6.62 6 8 6C9.38 6 10.5 7.12 10.5 8.5C10.5 9.88 9.38 11 8 11ZM8 7C7.17333 7 6.5 7.67333 6.5 8.5C6.5 9.32667 7.17333 10 8 10C8.82667 10 9.5 9.32667 9.5 8.5C9.5 7.67333 8.82667 7 8 7Z" fill="currentColor"/>
<path d="M10.1407 15.2932C10.0007 15.2932 9.86065 15.2732 9.72065 15.2399C9.30732 15.1265 8.96065 14.8665 8.74065 14.4999L8.66065 14.3665C8.26732 13.6865 7.72732 13.6865 7.33398 14.3665L7.26065 14.4932C7.04065 14.8665 6.69398 15.1332 6.28065 15.2399C5.86065 15.3532 5.42732 15.2932 5.06065 15.0732L3.91398 14.4132C3.50732 14.1799 3.21398 13.7999 3.08732 13.3399C2.96732 12.8799 3.02732 12.4065 3.26065 11.9999C3.45398 11.6599 3.50732 11.3532 3.39398 11.1599C3.28065 10.9665 2.99398 10.8532 2.60065 10.8532C1.62732 10.8532 0.833984 10.0599 0.833984 9.08653V7.9132C0.833984 6.93987 1.62732 6.14653 2.60065 6.14653C2.99398 6.14653 3.28065 6.0332 3.39398 5.83987C3.50732 5.64653 3.46065 5.33987 3.26065 4.99987C3.02732 4.5932 2.96732 4.1132 3.08732 3.65987C3.20732 3.19987 3.50065 2.81987 3.91398 2.58653L5.06732 1.92653C5.82065 1.47987 6.81398 1.73987 7.26732 2.50653L7.34732 2.63987C7.74065 3.31987 8.28065 3.31987 8.67398 2.63987L8.74732 2.5132C9.20065 1.73987 10.194 1.47987 10.954 1.9332L12.1007 2.5932C12.5073 2.82653 12.8007 3.20653 12.9273 3.66653C13.0473 4.12653 12.9873 4.59987 12.754 5.00653C12.5607 5.34653 12.5073 5.6532 12.6207 5.84653C12.734 6.03987 13.0207 6.1532 13.414 6.1532C14.3873 6.1532 15.1807 6.94653 15.1807 7.91987V9.0932C15.1807 10.0665 14.3873 10.8599 13.414 10.8599C13.0207 10.8599 12.734 10.9732 12.6207 11.1665C12.5073 11.3599 12.554 11.6665 12.754 12.0065C12.9873 12.4132 13.054 12.8932 12.9273 13.3465C12.8073 13.8065 12.514 14.1865 12.1007 14.4199L10.9473 15.0799C10.694 15.2199 10.4207 15.2932 10.1407 15.2932ZM8.00065 12.8265C8.59398 12.8265 9.14732 13.1999 9.52732 13.8599L9.60065 13.9865C9.68065 14.1265 9.81398 14.2265 9.97398 14.2665C10.134 14.3065 10.294 14.2865 10.4273 14.2065L11.5807 13.5399C11.754 13.4399 11.8873 13.2732 11.9407 13.0732C11.994 12.8732 11.9673 12.6665 11.8673 12.4932C11.4873 11.8399 11.4407 11.1665 11.734 10.6532C12.0273 10.1399 12.634 9.84653 13.394 9.84653C13.8207 9.84653 14.1607 9.50653 14.1607 9.07987V7.90653C14.1607 7.48653 13.8207 7.13987 13.394 7.13987C12.634 7.13987 12.0273 6.84653 11.734 6.3332C11.4407 5.81987 11.4873 5.14653 11.8673 4.4932C11.9673 4.31987 11.994 4.1132 11.9407 3.9132C11.8873 3.7132 11.7607 3.5532 11.5873 3.44653L10.434 2.78653C10.1473 2.6132 9.76732 2.7132 9.59398 3.00653L9.52065 3.1332C9.14065 3.7932 8.58732 4.16653 7.99398 4.16653C7.40065 4.16653 6.84732 3.7932 6.46732 3.1332L6.39398 2.99987C6.22732 2.71987 5.85398 2.61987 5.56732 2.78653L4.41398 3.4532C4.24065 3.5532 4.10732 3.71987 4.05398 3.91987C4.00065 4.11987 4.02732 4.32653 4.12732 4.49987C4.50732 5.1532 4.55398 5.82653 4.26065 6.33987C3.96732 6.8532 3.36065 7.14653 2.60065 7.14653C2.17398 7.14653 1.83398 7.48653 1.83398 7.9132V9.08653C1.83398 9.50653 2.17398 9.8532 2.60065 9.8532C3.36065 9.8532 3.96732 10.1465 4.26065 10.6599C4.55398 11.1732 4.50732 11.8465 4.12732 12.4999C4.02732 12.6732 4.00065 12.8799 4.05398 13.0799C4.10732 13.2799 4.23398 13.4399 4.40732 13.5465L5.56065 14.2065C5.70065 14.2932 5.86732 14.3132 6.02065 14.2732C6.18065 14.2332 6.31398 14.1265 6.40065 13.9865L6.47398 13.8599C6.85398 13.2065 7.40732 12.8265 8.00065 12.8265Z" fill="currentColor"/>
</svg>
