<svg width="25" height="25" viewBox="0 0 25 25" fill="none" xmlns="http://www.w3.org/2000/svg">
<mask id="mask0_7427_33446" style="mask-type:alpha" maskUnits="userSpaceOnUse" x="0" y="0" width="25" height="25">
<rect x="0.75" y="0.222656" width="24" height="24" fill="#D9D9D9"/>
</mask>
<g mask="url(#mask0_7427_33446)">
<path d="M3.25 21.2612V4.53041C3.25 4.02524 3.425 3.59766 3.775 3.24766C4.125 2.89766 4.55258 2.72266 5.05775 2.72266H20.4423C20.9474 2.72266 21.375 2.89766 21.725 3.24766C22.075 3.59766 22.25 4.02524 22.25 4.53041V15.9149C22.25 16.4201 22.075 16.8477 21.725 17.1977C21.375 17.5477 20.9474 17.7227 20.4423 17.7227H6.7885L3.25 21.2612ZM6.15 16.2227H20.4423C20.5193 16.2227 20.5898 16.1906 20.6538 16.1264C20.7179 16.0624 20.75 15.9919 20.75 15.9149V4.53041C20.75 4.45341 20.7179 4.38291 20.6538 4.31891C20.5898 4.25474 20.5193 4.22266 20.4423 4.22266H5.05775C4.98075 4.22266 4.91025 4.25474 4.84625 4.31891C4.78208 4.38291 4.75 4.45341 4.75 4.53041V17.6074L6.15 16.2227Z" fill="currentColor"/>
</g>
</svg>
