<svg width="25" height="25" viewBox="0 0 25 25" fill="none" xmlns="http://www.w3.org/2000/svg">
<mask id="mask0_7427_33457" style="mask-type:alpha" maskUnits="userSpaceOnUse" x="0" y="0" width="25" height="25">
<rect x="0.0859375" y="0.222656" width="24" height="24" fill="#D9D9D9"/>
</mask>
<g mask="url(#mask0_7427_33457)">
<path d="M12.0859 1.82031L20.8667 7.04706C21.0897 7.19206 21.2654 7.38281 21.3937 7.61931C21.5219 7.85581 21.5859 8.1074 21.5859 8.37406V18.9163C21.5859 19.4215 21.4109 19.8491 21.0609 20.1991C20.7109 20.5491 20.2834 20.7241 19.7782 20.7241H4.39369C3.88852 20.7241 3.46094 20.5491 3.11094 20.1991C2.76094 19.8491 2.58594 19.4215 2.58594 18.9163V8.37406C2.58594 8.1074 2.65002 7.85581 2.77819 7.61931C2.90652 7.38281 3.08219 7.19206 3.30519 7.04706L12.0859 1.82031ZM12.0859 12.8741L19.8859 8.22406L12.0859 3.57406L4.28594 8.22406L12.0859 12.8741ZM12.0859 14.6278L4.08594 9.84706V18.9163C4.08594 19.0061 4.11477 19.0799 4.17244 19.1376C4.2301 19.1952 4.30385 19.2241 4.39369 19.2241H19.7782C19.868 19.2241 19.9418 19.1952 19.9994 19.1376C20.0571 19.0799 20.0859 19.0061 20.0859 18.9163V9.84706L12.0859 14.6278Z" fill="currentColor"/>
</g>
</svg>
