<svg width="25" height="25" viewBox="0 0 25 25" fill="none" xmlns="http://www.w3.org/2000/svg">
<path d="M7.25 6.1062V3.1062C7.25 2.84098 7.35536 2.58663 7.54289 2.39909C7.73043 2.21156 7.98478 2.1062 8.25 2.1062H20.25C20.5152 2.1062 20.7696 2.21156 20.9571 2.39909C21.1446 2.58663 21.25 2.84098 21.25 3.1062V17.1062C21.25 17.3714 21.1446 17.6258 20.9571 17.8133C20.7696 18.0008 20.5152 18.1062 20.25 18.1062H17.25V21.1062C17.25 21.6582 16.8 22.1062 16.243 22.1062H4.257C4.12513 22.107 3.9944 22.0817 3.87232 22.0318C3.75025 21.9819 3.63923 21.9084 3.54566 21.8155C3.45208 21.7226 3.37779 21.6121 3.32705 21.4904C3.27632 21.3686 3.25013 21.2381 3.25 21.1062L3.253 7.1062C3.253 6.5542 3.703 6.1062 4.26 6.1062H7.25ZM5.253 8.1062L5.25 20.1062H15.25V8.1062H5.253ZM9.25 6.1062H17.25V16.1062H19.25V4.1062H9.25V6.1062Z" fill="#1C1C1C"/>
</svg>
