<svg width="25" height="25" viewBox="0 0 25 25" fill="none" xmlns="http://www.w3.org/2000/svg">
<path d="M12.25 9.0531C11.4544 9.0531 10.6913 9.36917 10.1287 9.93178C9.56607 10.4944 9.25 11.2575 9.25 12.0531C9.25 12.8488 9.56607 13.6118 10.1287 14.1744C10.6913 14.737 11.4544 15.0531 12.25 15.0531C13.0456 15.0531 13.8087 14.737 14.3713 14.1744C14.9339 13.6118 15.25 12.8488 15.25 12.0531C15.25 11.2575 14.9339 10.4944 14.3713 9.93178C13.8087 9.36917 13.0456 9.0531 12.25 9.0531ZM12.25 7.0531C13.5761 7.0531 14.8479 7.57988 15.7855 8.51757C16.7232 9.45525 17.25 10.727 17.25 12.0531C17.25 13.3792 16.7232 14.651 15.7855 15.5886C14.8479 16.5263 13.5761 17.0531 12.25 17.0531C10.9239 17.0531 9.65215 16.5263 8.71447 15.5886C7.77678 14.651 7.25 13.3792 7.25 12.0531C7.25 10.727 7.77678 9.45525 8.71447 8.51757C9.65215 7.57988 10.9239 7.0531 12.25 7.0531ZM18.75 6.8031C18.75 7.13462 18.6183 7.45256 18.3839 7.68698C18.1495 7.9214 17.8315 8.0531 17.5 8.0531C17.1685 8.0531 16.8505 7.9214 16.6161 7.68698C16.3817 7.45256 16.25 7.13462 16.25 6.8031C16.25 6.47158 16.3817 6.15364 16.6161 5.91922C16.8505 5.6848 17.1685 5.5531 17.5 5.5531C17.8315 5.5531 18.1495 5.6848 18.3839 5.91922C18.6183 6.15364 18.75 6.47158 18.75 6.8031ZM12.25 4.0531C9.776 4.0531 9.372 4.0601 8.221 4.1111C7.437 4.1481 6.911 4.2531 6.423 4.4431C5.989 4.6111 5.676 4.8121 5.343 5.1461C5.03001 5.4485 4.78935 5.81768 4.639 6.2261C4.449 6.7161 4.344 7.2411 4.308 8.0241C4.256 9.1281 4.25 9.5141 4.25 12.0531C4.25 14.5271 4.257 14.9311 4.308 16.0821C4.345 16.8651 4.45 17.3921 4.639 17.8791C4.809 18.3141 5.009 18.6271 5.341 18.9591C5.678 19.2951 5.991 19.4961 6.421 19.6621C6.915 19.8531 7.441 19.9591 8.221 19.9951C9.325 20.0471 9.711 20.0531 12.25 20.0531C14.724 20.0531 15.128 20.0461 16.279 19.9951C17.061 19.9581 17.588 19.8531 18.076 19.6641C18.509 19.4951 18.824 19.2941 19.156 18.9621C19.493 18.6251 19.694 18.3121 19.86 17.8821C20.05 17.3891 20.156 16.8621 20.192 16.0821C20.244 14.9781 20.25 14.5921 20.25 12.0531C20.25 9.5791 20.243 9.1751 20.192 8.0241C20.155 7.2421 20.05 6.7141 19.86 6.2261C19.7093 5.8181 19.4691 5.44906 19.157 5.1461C18.8547 4.83295 18.4855 4.59227 18.077 4.4421C17.587 4.2521 17.061 4.1471 16.279 4.1111C15.175 4.0591 14.789 4.0531 12.25 4.0531ZM12.25 2.0531C14.967 2.0531 15.306 2.0631 16.372 2.1131C17.437 2.1631 18.162 2.3301 18.8 2.5781C19.46 2.8321 20.016 3.1761 20.572 3.7311C21.0805 4.231 21.474 4.83569 21.725 5.5031C21.972 6.1401 22.14 6.8661 22.19 7.9311C22.237 8.9971 22.25 9.3361 22.25 12.0531C22.25 14.7701 22.24 15.1091 22.19 16.1751C22.14 17.2401 21.972 17.9651 21.725 18.6031C21.4747 19.2709 21.0811 19.8757 20.572 20.3751C20.072 20.8834 19.4673 21.2769 18.8 21.5281C18.163 21.7751 17.437 21.9431 16.372 21.9931C15.306 22.0401 14.967 22.0531 12.25 22.0531C9.533 22.0531 9.194 22.0431 8.128 21.9931C7.063 21.9431 6.338 21.7751 5.7 21.5281C5.03233 21.2776 4.42753 20.884 3.928 20.3751C3.41941 19.8753 3.02593 19.2706 2.775 18.6031C2.527 17.9661 2.36 17.2401 2.31 16.1751C2.263 15.1091 2.25 14.7701 2.25 12.0531C2.25 9.3361 2.26 8.9971 2.31 7.9311C2.36 6.8651 2.527 6.1411 2.775 5.5031C3.02524 4.83528 3.4188 4.23042 3.928 3.7311C4.42767 3.22233 5.03243 2.82883 5.7 2.5781C6.338 2.3301 7.062 2.1631 8.128 2.1131C9.194 2.0661 9.533 2.0531 12.25 2.0531Z" fill="currentColor"/>
</svg>
