<svg width="25" height="25" viewBox="0 0 25 25" fill="none" xmlns="http://www.w3.org/2000/svg">
<path d="M6.428 18.7558C3.842 17.1988 2.25 14.7448 2.25 12.0378C2.25 7.33381 6.998 3.63281 12.75 3.63281C18.502 3.63281 23.25 7.33381 23.25 12.0378C23.25 16.7418 18.502 20.4428 12.75 20.4428C12.308 20.4428 11.868 20.4208 11.432 20.3778L7.667 22.8358C7.052 23.1618 6.71 23.2608 6.182 22.9018C5.562 22.4778 5.586 22.0098 5.801 21.3418L6.428 18.7558ZM4.25 12.0378C4.25 14.1698 5.668 16.1608 8.031 17.3578L8.737 17.7168L8.551 18.4868L8.15 20.1348L10.95 18.3048L11.316 18.3508C11.789 18.4118 12.268 18.4428 12.75 18.4428C17.491 18.4428 21.25 15.5128 21.25 12.0378C21.25 8.56281 17.491 5.63281 12.75 5.63281C8.009 5.63281 4.25 8.56281 4.25 12.0378ZM18.657 11.6918L20.171 13.8468C20.2067 13.8976 20.232 13.9549 20.2455 14.0154C20.259 14.0759 20.2605 14.1385 20.2498 14.1996C20.2391 14.2607 20.2165 14.3191 20.1832 14.3715C20.15 14.4239 20.1068 14.4692 20.056 14.5048C20.0052 14.5405 19.948 14.5658 19.8874 14.5793C19.8269 14.5928 19.7643 14.5943 19.7032 14.5836C19.6421 14.5729 19.5837 14.5503 19.5313 14.5171C19.479 14.4838 19.4337 14.4406 19.398 14.3898L17.97 12.3568L17.543 12.7698V14.1328C17.543 14.258 17.4933 14.378 17.4048 14.4666C17.3162 14.5551 17.1962 14.6048 17.071 14.6048C16.9458 14.6048 16.8258 14.5551 16.7372 14.4666C16.6487 14.378 16.599 14.258 16.599 14.1328V12.6938C16.5813 12.6209 16.5813 12.5448 16.599 12.4718V9.91481C16.599 9.78963 16.6487 9.66958 16.7372 9.58106C16.8258 9.49254 16.9458 9.44281 17.071 9.44281C17.1962 9.44281 17.3162 9.49254 17.4048 9.58106C17.4933 9.66958 17.543 9.78963 17.543 9.91481V11.4568L19.471 9.59081C19.5618 9.50894 19.6809 9.46552 19.8031 9.4697C19.9253 9.47388 20.0412 9.52533 20.1262 9.61322C20.2112 9.70111 20.2588 9.81857 20.259 9.94086C20.2591 10.0631 20.2118 10.1807 20.127 10.2688L18.657 11.6918ZM15.699 13.6168C15.8242 13.6168 15.9442 13.6665 16.0328 13.7551C16.1213 13.8436 16.171 13.9636 16.171 14.0888C16.171 14.214 16.1213 14.3341 16.0328 14.4226C15.9442 14.5111 15.8242 14.5608 15.699 14.5608H13.767C13.642 14.5605 13.5222 14.5107 13.4339 14.4222C13.3456 14.3337 13.296 14.2138 13.296 14.0888V9.92981C13.2931 9.86607 13.3031 9.80239 13.3255 9.74263C13.3478 9.68286 13.3821 9.62826 13.4262 9.58211C13.4702 9.53596 13.5232 9.49923 13.5819 9.47413C13.6405 9.44903 13.7037 9.43609 13.7675 9.43609C13.8313 9.43609 13.8945 9.44903 13.9531 9.47413C14.0118 9.49923 14.0648 9.53596 14.1088 9.58211C14.1529 9.62826 14.1872 9.68286 14.2095 9.74263C14.2319 9.80239 14.2419 9.86607 14.239 9.92981V13.6168H15.699ZM9.842 12.5248H11.176L10.538 10.8178L9.842 12.5248ZM12.365 13.0128L12.71 13.9378C12.7338 13.9963 12.7457 14.059 12.7448 14.1221C12.744 14.1853 12.7305 14.2476 12.7051 14.3055C12.6798 14.3633 12.6431 14.4155 12.5972 14.4589C12.5513 14.5023 12.4971 14.536 12.438 14.5581C12.3788 14.5802 12.3158 14.5902 12.2527 14.5875C12.1896 14.5848 12.1277 14.5694 12.0706 14.5424C12.0135 14.5153 11.9625 14.477 11.9205 14.4299C11.8785 14.3827 11.8463 14.3276 11.826 14.2678L11.528 13.4688H9.458L9.127 14.2818C9.10356 14.3392 9.06904 14.3914 9.02543 14.4355C8.98181 14.4795 8.92994 14.5145 8.87279 14.5385C8.81563 14.5625 8.75431 14.5751 8.69232 14.5754C8.63033 14.5757 8.56889 14.5638 8.5115 14.5403C8.45411 14.5169 8.4019 14.4824 8.35785 14.4387C8.31381 14.3951 8.27878 14.3433 8.25478 14.2861C8.23077 14.2289 8.21826 14.1676 8.21796 14.1056C8.21765 14.0436 8.22956 13.9822 8.253 13.9248L9.913 9.84981C9.96363 9.71765 10.0534 9.60406 10.1702 9.52419C10.2871 9.44433 10.4255 9.40199 10.567 9.40281C10.7073 9.40862 10.8426 9.45711 10.9546 9.54181C11.0666 9.62651 11.1502 9.74338 11.194 9.87681L12.24 12.6768C12.3214 12.7635 12.3668 12.8779 12.367 12.9968L12.365 13.0128ZM9.043 9.93481C9.043 10.1948 8.833 10.4068 8.572 10.4068H7.432V14.1428C7.432 14.2681 7.38222 14.3883 7.29361 14.4769C7.205 14.5655 7.08481 14.6153 6.9595 14.6153C6.83419 14.6153 6.714 14.5655 6.62539 14.4769C6.53678 14.3883 6.487 14.2681 6.487 14.1428V10.4068H5.327C5.20182 10.4068 5.08176 10.3571 4.99325 10.2686C4.90473 10.18 4.855 10.06 4.855 9.93481C4.855 9.80963 4.90473 9.68958 4.99325 9.60106C5.08176 9.51254 5.20182 9.46281 5.327 9.46281H8.572C8.832 9.46281 9.043 9.67381 9.043 9.93481Z" fill="currentColor"/>
</svg>
