<svg width="25" height="25" viewBox="0 0 25 25" fill="none" xmlns="http://www.w3.org/2000/svg">
<g clip-path="url(#clip0_7427_33452)">
<mask id="path-1-inside-1_7427_33452" fill="white">
<path fill-rule="evenodd" clip-rule="evenodd" d="M12.9219 1.02344C6.29413 1.02344 0.921875 5.17407 0.921875 10.2932C0.921875 13.4769 2.99976 16.2835 6.16393 17.9528L4.83259 22.8162C4.71497 23.2459 5.20644 23.5884 5.58385 23.3394L11.4197 19.4878C11.9122 19.5353 12.4127 19.563 12.9219 19.563C19.5492 19.563 24.9219 15.4126 24.9219 10.2932C24.9219 5.17407 19.5492 1.02344 12.9219 1.02344Z"/>
</mask>
<path d="M6.16393 17.9528L7.6107 18.3488L7.92853 17.1878L6.86385 16.6261L6.16393 17.9528ZM4.83259 22.8162L3.38582 22.4201L3.38581 22.4202L4.83259 22.8162ZM5.58385 23.3394L6.40995 24.5914L6.41011 24.5913L5.58385 23.3394ZM11.4197 19.4878L11.5638 17.9947L11.036 17.9438L10.5934 18.2359L11.4197 19.4878ZM12.9219 1.02344V-0.476562C5.84876 -0.476562 -0.578125 4.0086 -0.578125 10.2932H0.921875H2.42188C2.42188 6.33953 6.7395 2.52344 12.9219 2.52344V1.02344ZM0.921875 10.2932H-0.578125C-0.578125 14.1823 1.95519 17.4283 5.46401 19.2795L6.16393 17.9528L6.86385 16.6261C4.04432 15.1386 2.42188 12.7715 2.42188 10.2932H0.921875ZM6.16393 17.9528L4.71716 17.5567L3.38582 22.4201L4.83259 22.8162L6.27937 23.2122L7.6107 18.3488L6.16393 17.9528ZM4.83259 22.8162L3.38581 22.4202C2.87466 24.2877 4.96715 25.5434 6.40995 24.5914L5.58385 23.3394L4.75774 22.0874C5.13404 21.8391 5.585 21.896 5.88002 22.1016C6.1785 22.3095 6.40878 22.7394 6.27938 23.2122L4.83259 22.8162ZM5.58385 23.3394L6.41011 24.5913L12.246 20.7397L11.4197 19.4878L10.5934 18.2359L4.75759 22.0875L5.58385 23.3394ZM11.4197 19.4878L11.2756 20.9808C11.8092 21.0323 12.3582 21.063 12.9219 21.063V19.563V18.063C12.4671 18.063 12.0151 18.0383 11.5638 17.9947L11.4197 19.4878ZM12.9219 19.563V21.063C19.9946 21.063 26.4219 16.5781 26.4219 10.2932H24.9219H23.4219C23.4219 14.2471 19.1039 18.063 12.9219 18.063V19.563ZM24.9219 10.2932H26.4219C26.4219 4.00858 19.9946 -0.476562 12.9219 -0.476562V1.02344V2.52344C19.1039 2.52344 23.4219 6.33955 23.4219 10.2932H24.9219Z" fill="currentColor" mask="url(#path-1-inside-1_7427_33452)"/>
</g>
<defs>
<clipPath id="clip0_7427_33452">
<rect width="24" height="24.0001" fill="white" transform="translate(0.921875 0.222656)"/>
</clipPath>
</defs>
</svg>
