<svg width="25" height="25" viewBox="0 0 25 25" fill="none" xmlns="http://www.w3.org/2000/svg">
<path d="M3.118 6.90709L12.365 1.36309C12.5204 1.26984 12.6983 1.22058 12.8795 1.22058C13.0607 1.22058 13.2386 1.26984 13.394 1.36309L22.632 6.90809C22.7061 6.95251 22.7675 7.01537 22.8101 7.09056C22.8526 7.16574 22.875 7.25068 22.875 7.33709V20.0531C22.875 20.3183 22.7696 20.5727 22.5821 20.7602C22.3946 20.9477 22.1402 21.0531 21.875 21.0531H3.875C3.60978 21.0531 3.35543 20.9477 3.16789 20.7602C2.98036 20.5727 2.875 20.3183 2.875 20.0531V7.33609C2.87498 7.24968 2.89736 7.16474 2.93995 7.08956C2.98253 7.01437 3.04388 6.95151 3.118 6.90709ZM4.875 8.18609V19.0531H20.875V8.18509L12.879 3.38509L4.875 8.18509V8.18609ZM12.935 13.7511L18.231 9.28809L19.519 10.8181L12.949 16.3551L6.239 10.8251L7.511 9.28109L12.935 13.7511Z" fill="currentColor"/>
</svg>
