<svg width="25" height="25" viewBox="0 0 25 25" fill="none" xmlns="http://www.w3.org/2000/svg">
<path d="M13.745 17.0761L9.54599 14.7861C8.99779 15.3721 8.28598 15.7797 7.50307 15.9559C6.72015 16.1322 5.90234 16.0688 5.15591 15.7741C4.40948 15.4794 3.76895 14.967 3.31756 14.3035C2.86617 13.64 2.62479 12.8561 2.62479 12.0536C2.62479 11.2511 2.86617 10.4671 3.31756 9.80362C3.76895 9.14011 4.40948 8.62771 5.15591 8.33302C5.90234 8.03833 6.72015 7.97497 7.50307 8.15117C8.28598 8.32738 8.99779 8.735 9.54599 9.32106L13.746 7.03106C13.5075 6.08713 13.6215 5.08865 14.0666 4.22276C14.5117 3.35688 15.2573 2.68304 16.1637 2.32756C17.07 1.97208 18.0749 1.95936 18.99 2.29179C19.905 2.62422 20.6675 3.27898 21.1343 4.13332C21.6011 4.98767 21.7404 5.98295 21.5259 6.93261C21.3114 7.88226 20.7579 8.7211 19.9692 9.29187C19.1805 9.86264 18.2107 10.1262 17.2416 10.0331C16.2725 9.93994 15.3706 9.49657 14.705 8.78606L10.505 11.0761C10.6662 11.7174 10.6662 12.3887 10.505 13.0301L14.704 15.3201C15.3696 14.6095 16.2715 14.1662 17.2406 14.0731C18.2097 13.9799 19.1795 14.2435 19.9682 14.8142C20.7569 15.385 21.3104 16.2239 21.5249 17.1735C21.7394 18.1232 21.6001 19.1185 21.1333 19.9728C20.6665 20.8271 19.904 21.4819 18.989 21.8143C18.0739 22.1468 17.069 22.134 16.1627 21.7786C15.2563 21.4231 14.5107 20.7492 14.0656 19.8834C13.6205 19.0175 13.5065 18.019 13.745 17.0751V17.0761ZM6.62499 14.0531C7.15543 14.0531 7.66413 13.8423 8.03921 13.4673C8.41428 13.0922 8.62499 12.5835 8.62499 12.0531C8.62499 11.5226 8.41428 11.0139 8.03921 10.6388C7.66413 10.2638 7.15543 10.0531 6.62499 10.0531C6.09456 10.0531 5.58585 10.2638 5.21078 10.6388C4.83571 11.0139 4.62499 11.5226 4.62499 12.0531C4.62499 12.5835 4.83571 13.0922 5.21078 13.4673C5.58585 13.8423 6.09456 14.0531 6.62499 14.0531ZM17.625 8.05306C18.1554 8.05306 18.6641 7.84235 19.0392 7.46727C19.4143 7.0922 19.625 6.58349 19.625 6.05306C19.625 5.52263 19.4143 5.01392 19.0392 4.63885C18.6641 4.26377 18.1554 4.05306 17.625 4.05306C17.0946 4.05306 16.5859 4.26377 16.2108 4.63885C15.8357 5.01392 15.625 5.52263 15.625 6.05306C15.625 6.58349 15.8357 7.0922 16.2108 7.46727C16.5859 7.84235 17.0946 8.05306 17.625 8.05306ZM17.625 20.0531C18.1554 20.0531 18.6641 19.8423 19.0392 19.4673C19.4143 19.0922 19.625 18.5835 19.625 18.0531C19.625 17.5226 19.4143 17.0139 19.0392 16.6388C18.6641 16.2638 18.1554 16.0531 17.625 16.0531C17.0946 16.0531 16.5859 16.2638 16.2108 16.6388C15.8357 17.0139 15.625 17.5226 15.625 18.0531C15.625 18.5835 15.8357 19.0922 16.2108 19.4673C16.5859 19.8423 17.0946 20.0531 17.625 20.0531Z" fill="#09121F"/>
</svg>
