<svg width="25" height="25" viewBox="0 0 25 25" fill="none" xmlns="http://www.w3.org/2000/svg">
<mask id="mask0_7427_33463" style="mask-type:alpha" maskUnits="userSpaceOnUse" x="0" y="0" width="25" height="25">
<rect x="0.25" y="0.222656" width="24" height="24" fill="#D9D9D9"/>
</mask>
<g mask="url(#mask0_7427_33463)">
<path d="M17.0555 21.7227C16.307 21.7227 15.6715 21.4609 15.149 20.9374C14.6267 20.4139 14.3655 19.7782 14.3655 19.0304C14.3655 18.9304 14.4001 18.6874 14.4693 18.3014L7.35775 14.1149C7.11675 14.3649 6.83042 14.5607 6.49875 14.7024C6.16708 14.8441 5.81175 14.9149 5.43275 14.9149C4.68758 14.9149 4.05417 14.6521 3.5325 14.1264C3.01083 13.6007 2.75 12.9662 2.75 12.2227C2.75 11.4792 3.01083 10.8446 3.5325 10.3189C4.05417 9.79324 4.68758 9.53041 5.43275 9.53041C5.81175 9.53041 6.16708 9.60124 6.49875 9.74291C6.83042 9.88457 7.11675 10.0804 7.35775 10.3304L14.4693 6.15341C14.4296 6.03041 14.4023 5.90991 14.3875 5.79191C14.3728 5.67391 14.3655 5.54824 14.3655 5.41491C14.3655 4.66707 14.6274 4.03141 15.1512 3.50791C15.6753 2.98441 16.3115 2.72266 17.06 2.72266C17.8085 2.72266 18.4439 2.98466 18.9663 3.50866C19.4888 4.03249 19.75 4.66866 19.75 5.41716C19.75 6.16566 19.4883 6.80116 18.9648 7.32366C18.4412 7.84599 17.8056 8.10716 17.0577 8.10716C16.6769 8.10716 16.3228 8.03474 15.9952 7.88991C15.6676 7.74507 15.3833 7.54766 15.1423 7.29766L8.03075 11.4842C8.07042 11.6073 8.09767 11.7278 8.1125 11.8457C8.12717 11.9637 8.1345 12.0893 8.1345 12.2227C8.1345 12.356 8.12717 12.4817 8.1125 12.5997C8.09767 12.7175 8.07042 12.838 8.03075 12.9612L15.1423 17.1477C15.3833 16.8977 15.6676 16.7002 15.9952 16.5554C16.3228 16.4106 16.6769 16.3382 17.0577 16.3382C17.8056 16.3382 18.4412 16.6001 18.9648 17.1239C19.4883 17.6479 19.75 18.2842 19.75 19.0327C19.75 19.7812 19.488 20.4166 18.964 20.9389C18.4402 21.4614 17.804 21.7227 17.0555 21.7227ZM17.0577 20.2227C17.3956 20.2227 17.6787 20.1084 17.9072 19.8799C18.1357 19.6514 18.25 19.3682 18.25 19.0304C18.25 18.6926 18.1357 18.4094 17.9072 18.1809C17.6787 17.9522 17.3956 17.8379 17.0577 17.8379C16.7199 17.8379 16.4368 17.9522 16.2083 18.1809C15.9796 18.4094 15.8652 18.6926 15.8652 19.0304C15.8652 19.3682 15.9796 19.6514 16.2083 19.8799C16.4368 20.1084 16.7199 20.2227 17.0577 20.2227ZM5.43275 13.4149C5.77325 13.4149 6.05867 13.3007 6.289 13.0722C6.5195 12.8437 6.63475 12.5605 6.63475 12.2227C6.63475 11.8848 6.5195 11.6017 6.289 11.3732C6.05867 11.1447 5.77325 11.0304 5.43275 11.0304C5.09758 11.0304 4.81667 11.1447 4.59 11.3732C4.36333 11.6017 4.25 11.8848 4.25 12.2227C4.25 12.5605 4.36333 12.8437 4.59 13.0722C4.81667 13.3007 5.09758 13.4149 5.43275 13.4149ZM17.0577 6.60741C17.3956 6.60741 17.6787 6.49307 17.9072 6.26441C18.1357 6.03591 18.25 5.75274 18.25 5.41491C18.25 5.07707 18.1357 4.79391 17.9072 4.56541C17.6787 4.33691 17.3956 4.22266 17.0577 4.22266C16.7199 4.22266 16.4368 4.33691 16.2083 4.56541C15.9796 4.79391 15.8652 5.07707 15.8652 5.41491C15.8652 5.75274 15.9796 6.03591 16.2083 6.26441C16.4368 6.49307 16.7199 6.60741 17.0577 6.60741Z" fill="currentColor"/>
</g>
</svg>
