<svg width="25" height="25" viewBox="0 0 25 25" fill="none" xmlns="http://www.w3.org/2000/svg">
<path d="M7.79101 20.8771L2.50001 22.0531L3.67601 16.7621C2.90154 15.3135 2.49754 13.6957 2.50001 12.0531C2.50001 6.5301 6.97701 2.0531 12.5 2.0531C18.023 2.0531 22.5 6.5301 22.5 12.0531C22.5 17.5761 18.023 22.0531 12.5 22.0531C10.8574 22.0556 9.23963 21.6516 7.79101 20.8771ZM8.08101 18.7641L8.73401 19.1141C9.89256 19.7332 11.1864 20.0558 12.5 20.0531C14.0823 20.0531 15.629 19.5839 16.9446 18.7049C18.2602 17.8258 19.2855 16.5764 19.891 15.1146C20.4965 13.6528 20.655 12.0442 20.3463 10.4924C20.0376 8.94053 19.2757 7.51507 18.1569 6.39625C17.038 5.27743 15.6126 4.5155 14.0607 4.20682C12.5089 3.89814 10.9004 4.05656 9.43854 4.66206C7.97674 5.26757 6.72731 6.29295 5.84825 7.60854C4.9692 8.92413 4.50001 10.4708 4.50001 12.0531C4.50001 13.3871 4.82501 14.6711 5.44001 15.8191L5.78901 16.4721L5.13401 19.4191L8.08101 18.7641Z" fill="#09121F"/>
</svg>
