<svg width="100" height="31" viewBox="0 0 100 31" fill="none" xmlns="http://www.w3.org/2000/svg">
<path d="M39.3649 15.1113C40.0308 14.0036 40.6123 13.1281 41.3571 12.0066C41.5085 11.7786 42.3275 10.5499 43.4962 8.98481C45.155 6.76344 45.8404 6.11199 46.6408 6.15013C46.991 6.16695 47.2701 6.31112 47.4446 6.42345C47.5106 6.4727 47.7777 6.68895 48.005 7.34281C48.1002 7.61673 48.2144 8.05043 48.212 8.61538C47.5022 9.72276 46.7922 10.8301 46.0825 11.9378C45.917 12.1664 45.6887 12.5472 45.5977 13.0533C45.4497 13.8757 45.7833 14.7527 46.3471 15.414C46.3138 15.375 47.3413 16.6473 49.5821 16.7548C49.7098 16.7608 49.8308 16.7665 49.9744 16.7698C50.0978 16.7725 50.2949 16.7746 50.5814 16.7668C51.4951 16.7422 52.2228 16.674 52.2228 16.674C52.8028 16.6199 53.3167 16.5719 53.9044 16.4539C55.0902 16.2157 55.9471 15.8186 56.5406 15.5393C58.0243 14.8407 58.6382 14.2349 58.7986 14.0715C59.0689 13.7964 59.684 13.1563 59.5179 12.6734C59.5122 12.6569 59.3858 12.3018 59.1575 12.2745C59.0653 12.2637 58.9893 12.3103 58.9623 12.3268C58.4502 12.6382 56.0069 13.8715 54.8007 14.3172C54.2985 14.5028 53.9089 14.5896 53.5825 14.6614C52.0056 15.0068 49.4157 15.1963 49.0827 14.367C49.0064 14.1766 49.0758 13.9994 50.2768 12.094C50.6379 11.5212 50.9511 11.0305 51.1968 10.6475C51.96 9.42392 52.7232 8.2 53.4864 6.97639H59.1638L61.9658 7.01243L63.0404 5.04245C63.0404 5.04245 62.7425 5.04185 62.355 5.04515L62.3565 5.04335H50.6195C50.6027 5.04455 50.5715 5.04846 50.539 5.06588C50.4931 5.0905 50.4733 5.12655 50.4664 5.14066C50.0651 5.75247 49.6635 6.36458 49.2623 6.97639C49.1337 7.17702 49.0052 7.37735 48.8766 7.57798C48.9049 7.2491 48.9184 6.94035 48.9052 6.73671C48.8832 6.39281 48.8565 5.91165 48.6006 5.45302C48.4378 5.16139 48.2468 4.98328 48.1435 4.88837C47.5635 4.35645 46.8676 4.21589 46.5069 4.17234C46.2741 4.14771 45.9158 4.12969 45.4914 4.19697C44.2323 4.3961 43.3887 5.18601 42.8562 5.71793C42.5105 6.06303 42.2516 6.32253 42.1867 6.39642C40.3113 8.53129 38.5047 11.4978 38.5047 11.4978C38.4963 11.5113 38.4882 11.5249 38.4801 11.5384C38.4158 11.5411 38.3509 11.5438 38.2852 11.5477C37.8259 11.5735 37.4036 11.6234 37.024 11.6846C37.1493 11.2284 37.413 10.0291 36.9276 8.64932C36.7987 8.2826 36.4437 7.41339 35.6226 6.65471C34.1221 5.26831 32.2049 5.28393 31.1639 5.29234C29.2681 5.30796 27.8835 5.96241 27.0471 6.36908C26.8879 6.44657 26.7338 6.52617 26.5842 6.60786C26.5548 6.30901 26.4908 5.95791 26.3019 5.61882C26.1391 5.32718 25.9481 5.14907 25.8448 5.05416C25.2648 4.52225 24.5689 4.38168 24.2082 4.33813C23.9754 4.3135 23.6171 4.29548 23.1927 4.36276C21.9336 4.56189 21.09 5.35181 20.5574 5.88372C20.2117 6.22882 19.9529 6.48832 19.888 6.56221C18.0126 8.69708 16.206 11.6636 16.206 11.6636C14.8842 13.8342 13.8687 15.5297 13.2182 16.6205C13.1229 16.7993 12.9548 17.1137 12.7427 17.5033C12.5322 17.8904 10.8857 20.9128 10.4667 22.359C10.3637 22.7143 10.2615 23.2165 10.4111 23.7829C10.4523 23.9382 10.6601 24.7257 11.4242 25.157C11.927 25.4409 12.4012 25.4207 12.7088 25.4069C13.0824 25.3898 13.4783 25.3718 13.6098 25.1294C13.6993 24.9648 13.5942 24.8305 13.481 24.0743C13.481 24.0743 13.478 24.0541 13.4284 23.6694C13.2836 22.544 14.0288 21.0891 14.0288 21.0891C15.1455 18.6167 16.2273 16.6713 17.0653 15.2774C17.7312 14.1697 18.3127 13.2942 19.0575 12.1727C19.2089 11.9447 20.0279 10.716 21.1966 9.1509C22.8554 6.92953 23.5408 6.27808 24.3412 6.31622C24.6914 6.33304 24.9705 6.47721 25.145 6.58954C25.2002 6.63069 25.3958 6.78867 25.591 7.22087C24.689 7.84619 24.0217 8.50786 23.5627 9.02896C21.994 11.0248 21.7615 13.6249 22.9293 15.4894C23.9622 17.1386 25.718 17.6174 26.1917 17.7306C27.1588 17.8631 29.1738 18.0066 31.4799 17.1362C33.6211 16.3283 34.9801 15.0362 35.6331 14.3238C35.664 14.2892 35.6923 14.2532 35.7223 14.2184C36.0245 14.1415 36.3542 14.0838 36.7104 14.0586C36.7948 14.0526 36.8774 14.0493 36.9594 14.0472C36.3686 15.0272 35.8842 15.8375 35.5163 16.4545C35.4211 16.6332 35.2529 16.9476 35.0408 17.3372C34.8303 17.7243 33.1838 20.7467 32.7648 22.1929C32.6618 22.5482 32.5596 23.0504 32.7092 23.6168C32.7504 23.7721 32.9582 24.5596 33.7223 24.9909C34.2251 25.2748 34.6993 25.2546 35.0069 25.2408C35.3805 25.2237 35.7764 25.2057 35.9079 24.9633C35.9974 24.7987 35.8923 24.6645 35.7791 23.9082C35.7791 23.9082 35.7761 23.8881 35.7265 23.5033C35.5817 22.3779 36.3269 20.923 36.3269 20.923C37.4436 18.4506 38.5254 16.5052 39.3634 15.1113H39.3649ZM32.2782 13.0455C30.5794 15.988 28.0508 17.7087 26.6305 16.8888C25.2101 16.0688 25.436 13.0185 27.1348 10.076C28.8335 7.13347 31.3622 5.41278 32.7825 6.23273C34.2028 7.05267 33.977 10.103 32.2782 13.0455Z" fill="#F03F65"/>
<path d="M13.4392 14.3673C14.8893 12.7532 15.4023 10.5769 14.7331 8.69253C14.3619 7.64702 13.7257 6.97274 13.4281 6.69792C11.9273 5.31152 10.0104 5.32713 8.96944 5.33554C7.07395 5.35086 5.68905 6.00562 4.85228 6.41229C3.17964 7.22563 2.04673 8.30268 1.36855 9.07247C-0.200168 11.0683 -0.432637 13.6684 0.735114 15.5329C1.76801 17.1822 3.52384 17.6609 3.99749 17.7741C4.96461 17.9066 6.97964 18.0502 9.28571 17.1797C11.4272 16.3718 12.786 15.0797 13.4392 14.3673ZM10.0831 13.0884C8.38437 16.0309 5.85574 17.7516 4.4354 16.9317C3.01505 16.1117 3.24092 13.0614 4.93968 10.1189C6.63845 7.17637 9.16707 5.45568 10.5874 6.27563C12.0078 7.09558 11.7819 10.1459 10.0831 13.0884Z" fill="#F03F65"/>
<path d="M62.5449 13.487C62.5404 13.5125 62.5335 13.5512 62.5257 13.6011C62.2857 15.1428 63.1336 16.1321 63.1336 16.1321C63.6902 16.786 64.4419 17.0064 64.9594 17.1584C65.5109 17.3203 65.9551 17.341 66.4399 17.3587C67.5013 17.3978 68.3083 17.2455 68.86 17.1377C70.1789 16.8803 71.2142 16.4658 71.8924 16.1462C72.3663 15.9231 72.7913 15.6573 73.6419 15.1257C73.6419 15.1257 74.8601 14.3643 75.1178 13.5939C75.1196 13.5885 75.1346 13.5356 75.1379 13.4981C75.1397 13.4791 75.14 13.4602 75.1388 13.441C75.1388 13.4377 75.1385 13.4341 75.1382 13.4308C75.1205 13.0857 74.7018 12.895 74.3955 13.0914C73.8536 13.4386 73.2448 13.7915 72.5678 14.1318C71.2664 14.786 70.0476 15.2248 69.0156 15.5242C67.2484 15.8252 65.9275 15.7278 65.7046 15.2119C65.658 15.104 65.6451 14.9448 65.7617 14.7064L68.0689 11.2371H75.4359L76.4721 9.68095C76.5294 9.60617 79.6819 5.51123 79.7395 5.43644L79.8263 5.32381C79.7606 5.32381 79.6948 5.32381 79.629 5.32381C79.5062 5.32381 79.3347 5.32471 79.1412 5.32652C75.2295 5.32592 71.3175 5.32532 67.4058 5.32471C67.4058 5.02076 65.9995 7.33914 65.9995 7.33914H75.9501L74.6499 9.03671H65.452C65.452 8.96042 65.3793 9.03611 65.2682 9.19649H65.2186C63.9037 11.2794 64.5095 9.88909 62.8687 12.5099C62.7363 12.7217 62.62 13.0665 62.5446 13.487H62.5449Z" fill="#F03F65"/>
<path d="M98.9033 1.94565C97.2457 0.179306 94.5774 0.111128 93.0546 0.0846976C91.9172 0.0648746 89.7998 0.170596 87.4637 1.19688C84.7272 2.39917 83.1678 4.21598 82.4977 5.10741C79.763 9.58018 77.0287 14.0533 74.294 18.526L62.8865 18.7065C62.882 18.4927 62.3789 19.3898 61.9741 20.147C60.2594 19.6686 58.7288 19.3598 57.4547 19.1541C54.7225 18.7126 52.5903 18.6561 50.8981 18.6158C48.7999 18.566 47.2799 18.6456 46.0947 18.7101C46.0947 18.7101 44.1689 18.8153 41.4285 19.2793C41.4285 19.2793 38.9563 19.698 38.0712 20.7018C37.5342 21.3106 37.536 21.9034 37.536 21.9034C37.536 21.9095 37.5363 21.9323 37.5375 21.9629C37.5555 22.481 37.833 22.9195 37.9961 23.0685C38.1349 23.1955 38.3517 23.2133 38.8491 23.1343C39.7081 22.9976 40.3391 22.6901 40.5064 22.6105C41.0476 22.3522 41.6784 22.1738 42.9416 21.8242C44.0815 21.5088 44.9783 21.3724 45.451 21.3021C45.8196 21.2475 46.7308 21.1216 48.6026 21.0637C50.902 20.9925 52.7222 21.0835 53.6094 21.1385C54.4134 21.1883 55.8518 21.2955 57.6479 21.5415C58.8189 21.7019 59.8984 21.8878 60.8751 22.0807C60.1906 23.2271 59.5064 24.3732 58.8219 25.5196C58.5927 25.9038 58.5504 26.2164 58.4984 26.5787C58.3236 27.796 58.8165 28.8958 59.1847 29.4169C60.9691 31.9414 66.7898 30.7195 67.3323 30.6003C69.7735 30.063 71.2638 28.9751 71.6383 28.6913C72.6697 27.9095 73.3437 27.0781 73.7558 26.4819C75.1305 23.8266 76.5052 21.1715 77.8799 18.5161C81.9688 11.4201 85.2585 6.18806 86.8203 4.05769C87.0753 3.70959 87.7796 2.7701 89.0549 2.04266C89.7151 1.66603 91.3793 0.716628 93.1027 1.2101C95.1976 1.81019 96.8762 4.39889 95.9854 5.85467C95.3403 6.90889 93.5793 6.99059 93.1967 7.0011C93.1889 7.19723 93.1808 7.39335 93.173 7.58948C93.7427 7.73064 94.6338 7.88022 95.7115 7.76939C96.6537 7.67238 97.8425 7.57416 98.8195 6.70646C99.0111 6.53616 99.965 5.68948 99.9993 4.38297C100.032 3.14674 99.2202 2.28204 98.9042 1.94535L98.9033 1.94565ZM66.9466 28.6477C65.4199 29.0487 62.308 29.2623 61.9041 28.3756C61.8191 28.1888 61.8831 27.9804 61.9536 27.8299L65.9624 21.0216C68.3303 20.9817 71.1488 20.9414 73.5167 20.9015C73.0908 22.2407 71.2593 27.5151 66.9469 28.6477H66.9466Z" fill="#F03F65"/>
</svg>
