<svg width="25" height="25" viewBox="0 0 25 25" fill="none" xmlns="http://www.w3.org/2000/svg">
<mask id="mask0_7427_23808" style="mask-type:alpha" maskUnits="userSpaceOnUse" x="0" y="0" width="25" height="25">
<rect x="0.5" y="0.675781" width="24" height="24" fill="#D9D9D9"/>
</mask>
<g mask="url(#mask0_7427_23808)">
<path d="M4 21.1758V17.7913L17.1905 4.60653C17.3417 4.4692 17.5086 4.36311 17.6913 4.28828C17.8741 4.21328 18.0658 4.17578 18.2663 4.17578C18.4668 4.17578 18.6609 4.21137 18.8488 4.28253C19.0367 4.3537 19.2032 4.46686 19.348 4.62203L20.5693 5.85853C20.7244 6.00336 20.835 6.17003 20.901 6.35853C20.967 6.54703 21 6.73553 21 6.92403C21 7.1252 20.9657 7.31712 20.897 7.49978C20.8283 7.68262 20.7191 7.84961 20.5693 8.00078L7.3845 21.1758H4ZM18.052 8.37003L19.5 6.93153L18.2443 5.67578L16.8057 7.12378L18.052 8.37003Z" fill="currentColor"/>
</g>
</svg>
