<svg width="25" height="25" viewBox="0 0 25 25" fill="none" xmlns="http://www.w3.org/2000/svg">
<mask id="mask0_7228_51609" style="mask-type:alpha" maskUnits="userSpaceOnUse" x="0" y="0" width="25" height="25">
<rect x="0.90625" y="0.453125" width="24" height="24" fill="#D9D9D9"/>
</mask>
<g mask="url(#mask0_7228_51609)">
<path d="M4.33594 20.625V17.2405L17.5264 4.05575C17.6776 3.91842 17.8445 3.81233 18.0272 3.7375C18.21 3.6625 18.4017 3.625 18.6022 3.625C18.8027 3.625 18.9969 3.66058 19.1847 3.73175C19.3727 3.80292 19.5391 3.91608 19.6839 4.07125L20.9052 5.30775C21.0604 5.45258 21.1709 5.61925 21.2369 5.80775C21.3029 5.99625 21.3359 6.18475 21.3359 6.37325C21.3359 6.57442 21.3016 6.76633 21.2329 6.949C21.1643 7.13183 21.055 7.29883 20.9052 7.45L7.72044 20.625H4.33594ZM18.3879 7.81925L19.8359 6.38075L18.5802 5.125L17.1417 6.573L18.3879 7.81925Z" fill="currentColor"/>
</g>
</svg>
