<svg width="25" height="25" viewBox="0 0 25 25" fill="none" xmlns="http://www.w3.org/2000/svg">
<mask id="mask0_7645_20986" style="mask-type:alpha" maskUnits="userSpaceOnUse" x="0" y="0" width="25" height="25">
<rect x="0.5" y="0.675781" width="24" height="24" fill="#D9D9D9"/>
</mask>
<g mask="url(#mask0_7645_20986)">
<path d="M5.42969 19.3477H6.69119L16.9277 9.11116L15.6662 7.84966L5.42969 18.0862V19.3477ZM3.92969 20.8477V17.4632L17.1202 4.27841C17.2714 4.14107 17.4383 4.03499 17.6209 3.96016C17.8038 3.88516 17.9954 3.84766 18.1959 3.84766C18.3964 3.84766 18.5906 3.88324 18.7784 3.95441C18.9664 4.02557 19.1329 4.13874 19.2777 4.29391L20.4989 5.53041C20.6541 5.67524 20.7647 5.84191 20.8307 6.03041C20.8967 6.21891 20.9297 6.40741 20.9297 6.59591C20.9297 6.79707 20.8954 6.98899 20.8267 7.17166C20.758 7.35449 20.6488 7.52149 20.4989 7.67266L7.31419 20.8477H3.92969ZM16.2859 8.49141L15.6662 7.84966L16.9277 9.11116L16.2859 8.49141Z" fill="currentColor"/>
</g>
</svg>
