<svg width="25" height="25" viewBox="0 0 25 25" fill="none" xmlns="http://www.w3.org/2000/svg">
<mask id="mask0_7427_23803" style="mask-type:alpha" maskUnits="userSpaceOnUse" x="0" y="0" width="25" height="25">
<rect x="0.5" y="0.675781" width="24" height="24" fill="#D9D9D9"/>
</mask>
<g mask="url(#mask0_7427_23803)">
<path d="M5.00362 21.1758V11.916L3.13637 13.3488L2.23438 12.1528L12.5036 4.30078L22.7729 12.1528L21.8709 13.3335L20.0036 11.916V21.1758H5.00362ZM8.50362 15.5603C8.25879 15.5603 8.05012 15.4741 7.87762 15.3018C7.70529 15.1293 7.61912 14.9206 7.61912 14.6758C7.61912 14.4309 7.70529 14.2223 7.87762 14.0498C8.05012 13.8774 8.25879 13.7913 8.50362 13.7913C8.74846 13.7913 8.95712 13.8774 9.12962 14.0498C9.30196 14.2223 9.38812 14.4309 9.38812 14.6758C9.38812 14.9206 9.30196 15.1293 9.12962 15.3018C8.95712 15.4741 8.74846 15.5603 8.50362 15.5603ZM12.5036 15.5603C12.2588 15.5603 12.0501 15.4741 11.8776 15.3018C11.7053 15.1293 11.6191 14.9206 11.6191 14.6758C11.6191 14.4309 11.7053 14.2223 11.8776 14.0498C12.0501 13.8774 12.2588 13.7913 12.5036 13.7913C12.7485 13.7913 12.9571 13.8774 13.1296 14.0498C13.302 14.2223 13.3881 14.4309 13.3881 14.6758C13.3881 14.9206 13.302 15.1293 13.1296 15.3018C12.9571 15.4741 12.7485 15.5603 12.5036 15.5603ZM16.5036 15.5603C16.2588 15.5603 16.0501 15.4741 15.8776 15.3018C15.7053 15.1293 15.6191 14.9206 15.6191 14.6758C15.6191 14.4309 15.7053 14.2223 15.8776 14.0498C16.0501 13.8774 16.2588 13.7913 16.5036 13.7913C16.7485 13.7913 16.9571 13.8774 17.1296 14.0498C17.302 14.2223 17.3881 14.4309 17.3881 14.6758C17.3881 14.9206 17.302 15.1293 17.1296 15.3018C16.9571 15.4741 16.7485 15.5603 16.5036 15.5603Z" fill="currentColor"/>
</g>
</svg>
