<svg width="24" height="24" viewBox="0 0 24 24" fill="none" xmlns="http://www.w3.org/2000/svg">
<path d="M18.803 8.49691C19.795 8.98004 20.9186 9.12307 22 8.90391V20.0039C22 20.2691 21.8946 20.5235 21.7071 20.711C21.5196 20.8986 21.2652 21.0039 21 21.0039H3C2.73478 21.0039 2.48043 20.8986 2.29289 20.711C2.10536 20.5235 2 20.2691 2 20.0039V4.00391C2 3.73869 2.10536 3.48434 2.29289 3.2968C2.48043 3.10926 2.73478 3.00391 3 3.00391H16.1C16.034 3.32691 16 3.66191 16 4.00391C15.9983 5.19196 16.4215 6.34146 17.193 7.24491L12.061 11.6869L5.647 6.24191L4.353 7.76591L12.073 14.3209L18.803 8.49691ZM21 7.00391C20.606 7.00391 20.2159 6.92631 19.8519 6.77554C19.488 6.62478 19.1573 6.4038 18.8787 6.12523C18.6001 5.84665 18.3791 5.51593 18.2284 5.15196C18.0776 4.78798 18 4.39787 18 4.00391C18 3.60994 18.0776 3.21983 18.2284 2.85586C18.3791 2.49188 18.6001 2.16116 18.8787 1.88259C19.1573 1.60401 19.488 1.38303 19.8519 1.23227C20.2159 1.0815 20.606 1.00391 21 1.00391C21.7956 1.00391 22.5587 1.31998 23.1213 1.88259C23.6839 2.44519 24 3.20826 24 4.00391C24 4.79956 23.6839 5.56262 23.1213 6.12523C22.5587 6.68784 21.7956 7.00391 21 7.00391Z" fill="#1C1C1C"/>
</svg>
