<svg width="24" height="25" viewBox="0 0 24 25" fill="none" xmlns="http://www.w3.org/2000/svg">
<mask id="mask0_7427_23813" style="mask-type:alpha" maskUnits="userSpaceOnUse" x="0" y="0" width="24" height="25">
<rect y="0.675781" width="24" height="24" fill="#D9D9D9"/>
</mask>
<g mask="url(#mask0_7427_23813)">
<path d="M18.8828 9.80859C18.12 9.80859 17.471 9.54093 16.9358 9.00559C16.4005 8.47026 16.1328 7.82126 16.1328 7.05859C16.1328 6.29576 16.4005 5.64668 16.9358 5.11134C17.471 4.57618 18.12 4.30859 18.8828 4.30859C19.6456 4.30859 20.2946 4.57618 20.8298 5.11134C21.3651 5.64668 21.6328 6.29576 21.6328 7.05859C21.6328 7.82126 21.3651 8.47026 20.8298 9.00559C20.2946 9.54093 19.6456 9.80859 18.8828 9.80859ZM4.19056 21.1738C3.6854 21.1738 3.25781 20.9988 2.90781 20.6488C2.55781 20.2988 2.38281 19.8713 2.38281 19.3661V7.98159C2.38281 7.47643 2.55781 7.04884 2.90781 6.69884C3.25781 6.34884 3.6854 6.17384 4.19056 6.17384H14.2136C14.1662 6.42384 14.1409 6.67226 14.1376 6.91909C14.1344 7.16593 14.1533 7.41751 14.1943 7.67384C14.2661 8.19434 14.4146 8.68218 14.6396 9.13734C14.8646 9.59251 15.1495 9.99826 15.4943 10.3546L11.8828 12.6738L4.03656 7.67384L3.88281 9.11609L11.8828 14.2316L16.6771 11.1718C16.9989 11.3745 17.3447 11.5313 17.7146 11.6421C18.0844 11.7531 18.4738 11.8086 18.8828 11.8086C19.32 11.8086 19.7536 11.7461 20.1838 11.6211C20.6138 11.4961 21.0135 11.3086 21.3828 11.0586V19.3661C21.3828 19.8713 21.2078 20.2988 20.8578 20.6488C20.5078 20.9988 20.0802 21.1738 19.5751 21.1738H4.19056Z" fill="currentColor"/>
</g>
</svg>
