<svg width="25" height="25" viewBox="0 0 25 25" fill="none" xmlns="http://www.w3.org/2000/svg">
<mask id="mask0_7228_51693" style="mask-type:alpha" maskUnits="userSpaceOnUse" x="0" y="0" width="25" height="25">
<rect x="0.5" y="0.453125" width="24" height="24" fill="#D9D9D9"/>
</mask>
<g mask="url(#mask0_7228_51693)">
<path d="M4.464 19.6094C3.95883 19.6094 3.53125 19.4344 3.18125 19.0844C2.83125 18.7344 2.65625 18.3068 2.65625 17.8016V6.41712C2.65625 5.91196 2.83125 5.48438 3.18125 5.13438C3.53125 4.78438 3.95883 4.60938 4.464 4.60938H19.8485C20.3537 4.60938 20.7812 4.78438 21.1313 5.13438C21.4813 5.48438 21.6562 5.91196 21.6562 6.41712V17.8016C21.6562 18.3068 21.4813 18.7344 21.1313 19.0844C20.7812 19.4344 20.3537 19.6094 19.8485 19.6094H4.464ZM12.1562 12.6671L4.15625 7.55163V17.8016C4.15625 17.8915 4.18508 17.9652 4.24275 18.0229C4.30042 18.0805 4.37417 18.1094 4.464 18.1094H19.8485C19.9383 18.1094 20.0121 18.0805 20.0697 18.0229C20.1274 17.9652 20.1562 17.8915 20.1562 17.8016V7.55163L12.1562 12.6671ZM12.1562 11.1094L20.0025 6.10938H4.31L12.1562 11.1094ZM4.15625 7.55163V6.10938V17.8016C4.15625 17.8915 4.18508 17.9652 4.24275 18.0229C4.30042 18.0805 4.37417 18.1094 4.464 18.1094H4.15625V7.55163Z" fill="currentColor"/>
</g>
</svg>
