<svg width="24" height="25" viewBox="0 0 24 25" fill="none" xmlns="http://www.w3.org/2000/svg">
<mask id="mask0_7228_51613" style="mask-type:alpha" maskUnits="userSpaceOnUse" x="0" y="0" width="24" height="25">
<rect y="0.453125" width="24" height="24" fill="#D9D9D9"/>
</mask>
<g mask="url(#mask0_7228_51613)">
<path d="M4.464 19.6094C3.95883 19.6094 3.53125 19.4344 3.18125 19.0844C2.83125 18.7344 2.65625 18.3068 2.65625 17.8016V6.41712C2.65625 5.91196 2.83125 5.48438 3.18125 5.13438C3.53125 4.78438 3.95883 4.60938 4.464 4.60938H19.8485C20.3537 4.60938 20.7812 4.78438 21.1313 5.13438C21.4813 5.48438 21.6562 5.91196 21.6562 6.41712V17.8016C21.6562 18.3068 21.4813 18.7344 21.1313 19.0844C20.7812 19.4344 20.3537 19.6094 19.8485 19.6094H4.464ZM12.1562 12.6671L20.1562 7.55163L20.0025 6.10938L12.1562 11.1094L4.31 6.10938L4.15625 7.55163L12.1562 12.6671Z" fill="currentColor"/>
</g>
</svg>
