<svg width="24" height="25" viewBox="0 0 24 25" fill="none" xmlns="http://www.w3.org/2000/svg">
<mask id="mask0_7645_20991" style="mask-type:alpha" maskUnits="userSpaceOnUse" x="0" y="0" width="24" height="25">
<rect y="0.675781" width="24" height="24" fill="#D9D9D9"/>
</mask>
<g mask="url(#mask0_7645_20991)">
<path d="M3.964 19.8359C3.45883 19.8359 3.03125 19.6609 2.68125 19.3109C2.33125 18.9609 2.15625 18.5334 2.15625 18.0282V6.64369C2.15625 6.13852 2.33125 5.71094 2.68125 5.36094C3.03125 5.01094 3.45883 4.83594 3.964 4.83594H19.3485C19.8537 4.83594 20.2812 5.01094 20.6313 5.36094C20.9813 5.71094 21.1562 6.13852 21.1562 6.64369V18.0282C21.1562 18.5334 20.9813 18.9609 20.6313 19.3109C20.2812 19.6609 19.8537 19.8359 19.3485 19.8359H3.964ZM11.6562 12.8937L3.65625 7.77819V18.0282C3.65625 18.118 3.68508 18.1918 3.74275 18.2494C3.80042 18.3071 3.87417 18.3359 3.964 18.3359H19.3485C19.4383 18.3359 19.5121 18.3071 19.5697 18.2494C19.6274 18.1918 19.6562 18.118 19.6562 18.0282V7.77819L11.6562 12.8937ZM11.6562 11.3359L19.5025 6.33594H3.81L11.6562 11.3359ZM3.65625 7.77819V6.33594V18.0282C3.65625 18.118 3.68508 18.1918 3.74275 18.2494C3.80042 18.3071 3.87417 18.3359 3.964 18.3359H3.65625V7.77819Z" fill="currentColor"/>
</g>
</svg>
