<svg width="25" height="24" viewBox="0 0 25 24" fill="none" xmlns="http://www.w3.org/2000/svg">
<mask id="mask0_7596_23171" style="mask-type:alpha" maskUnits="userSpaceOnUse" x="0" y="0" width="25" height="24">
<rect x="0.5" width="24" height="24" fill="#D9D9D9"/>
</mask>
<g mask="url(#mask0_7596_23171)">
<path d="M12.7344 11.9688C11.7719 11.9688 10.948 11.6261 10.2626 10.9408C9.57713 10.2552 9.23438 9.43125 9.23438 8.46875C9.23438 7.50625 9.57713 6.68233 10.2626 5.997C10.948 5.3115 11.7719 4.96875 12.7344 4.96875C13.6969 4.96875 14.5208 5.3115 15.2061 5.997C15.8916 6.68233 16.2344 7.50625 16.2344 8.46875C16.2344 9.43125 15.8916 10.2552 15.2061 10.9408C14.5208 11.6261 13.6969 11.9688 12.7344 11.9688ZM5.23438 19.5843V17.361C5.23438 16.8713 5.36738 16.4178 5.63338 16.0005C5.89938 15.5832 6.25487 15.2623 6.69987 15.038C7.68821 14.5535 8.68529 14.1901 9.69112 13.9478C10.697 13.7054 11.7114 13.5843 12.7344 13.5843C13.7574 13.5843 14.7718 13.7054 15.7776 13.9478C16.7835 14.1901 17.7805 14.5535 18.7689 15.038C19.2139 15.2623 19.5694 15.5832 19.8354 16.0005C20.1014 16.4178 20.2344 16.8713 20.2344 17.361V19.5843H5.23438ZM6.73438 18.0843H18.7344V17.361C18.7344 17.1585 18.6757 16.971 18.5584 16.7985C18.441 16.6262 18.2818 16.4855 18.0806 16.3765C17.219 15.9522 16.3405 15.6307 15.4451 15.412C14.5496 15.1935 13.646 15.0843 12.7344 15.0843C11.8227 15.0843 10.9191 15.1935 10.0236 15.412C9.12829 15.6307 8.24979 15.9522 7.38812 16.3765C7.18696 16.4855 7.02771 16.6262 6.91037 16.7985C6.79304 16.971 6.73438 17.1585 6.73438 17.361V18.0843ZM12.7344 10.4688C13.2844 10.4688 13.7552 10.2729 14.1469 9.88125C14.5385 9.48958 14.7344 9.01875 14.7344 8.46875C14.7344 7.91875 14.5385 7.44792 14.1469 7.05625C13.7552 6.66458 13.2844 6.46875 12.7344 6.46875C12.1844 6.46875 11.7135 6.66458 11.3219 7.05625C10.9302 7.44792 10.7344 7.91875 10.7344 8.46875C10.7344 9.01875 10.9302 9.48958 11.3219 9.88125C11.7135 10.2729 12.1844 10.4688 12.7344 10.4688Z" fill="currentColor"/>
</g>
</svg>
