<svg width="25" height="25" viewBox="0 0 25 25" fill="none" xmlns="http://www.w3.org/2000/svg">
<mask id="mask0_7228_51610" style="mask-type:alpha" maskUnits="userSpaceOnUse" x="0" y="0" width="25" height="25">
<rect x="0.78125" y="0.453125" width="24" height="24" fill="#D9D9D9"/>
</mask>
<g mask="url(#mask0_7228_51610)">
<path d="M13.0156 12.4219C12.0531 12.4219 11.2292 12.0792 10.5439 11.3939C9.85838 10.7084 9.51562 9.88438 9.51562 8.92188C9.51562 7.95937 9.85838 7.13546 10.5439 6.45013C11.2292 5.76463 12.0531 5.42188 13.0156 5.42188C13.9781 5.42188 14.802 5.76463 15.4874 6.45013C16.1729 7.13546 16.5156 7.95937 16.5156 8.92188C16.5156 9.88438 16.1729 10.7084 15.4874 11.3939C14.802 12.0792 13.9781 12.4219 13.0156 12.4219ZM5.51562 20.0374V17.8141C5.51562 17.3245 5.64863 16.871 5.91463 16.4536C6.18063 16.0363 6.53612 15.7155 6.98112 15.4911C7.96946 15.0066 8.96654 14.6432 9.97237 14.4009C10.9782 14.1585 11.9926 14.0374 13.0156 14.0374C14.0386 14.0374 15.053 14.1585 16.0589 14.4009C17.0647 14.6432 18.0618 15.0066 19.0501 15.4911C19.4951 15.7155 19.8506 16.0363 20.1166 16.4536C20.3826 16.871 20.5156 17.3245 20.5156 17.8141V20.0374H5.51562Z" fill="currentColor"/>
</g>
</svg>
