<svg width="25" height="24" viewBox="0 0 25 24" fill="none" xmlns="http://www.w3.org/2000/svg">
<mask id="mask0_7427_23818" style="mask-type:alpha" maskUnits="userSpaceOnUse" x="0" y="0" width="25" height="24">
<rect x="0.5" width="24" height="24" fill="#D9D9D9"/>
</mask>
<g mask="url(#mask0_7427_23818)">
<path d="M12.5 11.6914C11.5375 11.6914 10.7136 11.3487 10.0283 10.6634C9.34275 9.97791 9 9.15391 9 8.19141C9 7.22891 9.34275 6.40499 10.0283 5.71966C10.7136 5.03416 11.5375 4.69141 12.5 4.69141C13.4625 4.69141 14.2864 5.03416 14.9718 5.71966C15.6573 6.40499 16 7.22891 16 8.19141C16 9.15391 15.6573 9.97791 14.9718 10.6634C14.2864 11.3487 13.4625 11.6914 12.5 11.6914ZM5 19.3069V17.0837C5 16.594 5.133 16.1405 5.399 15.7232C5.665 15.3058 6.0205 14.985 6.4655 14.7607C7.45383 14.2762 8.45092 13.9127 9.45675 13.6704C10.4626 13.4281 11.477 13.3069 12.5 13.3069C13.523 13.3069 14.5374 13.4281 15.5433 13.6704C16.5491 13.9127 17.5462 14.2762 18.5345 14.7607C18.9795 14.985 19.335 15.3058 19.601 15.7232C19.867 16.1405 20 16.594 20 17.0837V19.3069H5Z" fill="currentColor"/>
</g>
</svg>
